<mxfile host="app.diagrams.net" agent="Mozilla/5.0 (Macintosh; Intel Mac OS X 10_15_7) AppleWebKit/537.36 (KHTML, like Gecko) Chrome/129.0.0.0 Safari/537.36" version="24.7.16" pages="3">
  <diagram name="Website" id="U_cf_QFk08iumLcE28Xb">
    <mxGraphModel dx="3935" dy="1824" grid="0" gridSize="10" guides="1" tooltips="1" connect="1" arrows="1" fold="1" page="0" pageScale="1" pageWidth="850" pageHeight="1100" math="0" shadow="0">
      <root>
        <mxCell id="0" />
        <mxCell id="1" parent="0" />
        <mxCell id="3FIwbWI3e-DVImyxeN1U-305" value="" style="rounded=0;whiteSpace=wrap;html=1;fillColor=none;" parent="1" vertex="1">
          <mxGeometry x="-582" y="224.5" width="306" height="353.5" as="geometry" />
        </mxCell>
        <mxCell id="oIzuJ4zR-E3tk9c7-mxO-1" value="" style="shape=cylinder3;whiteSpace=wrap;html=1;boundedLbl=1;backgroundOutline=1;size=4.22437139198243;rotation=75;fillColor=#78be2d;strokeColor=#78BE2D;" vertex="1" parent="1">
          <mxGeometry x="-818" y="70" width="4.11" height="232" as="geometry" />
        </mxCell>
        <mxCell id="3FIwbWI3e-DVImyxeN1U-161" value="" style="rounded=0;whiteSpace=wrap;html=1;fillColor=none;" parent="1" vertex="1">
          <mxGeometry x="-585" y="-253" width="306" height="322" as="geometry" />
        </mxCell>
        <mxCell id="3FIwbWI3e-DVImyxeN1U-299" value="" style="rounded=0;whiteSpace=wrap;html=1;fillColor=none;" parent="1" vertex="1">
          <mxGeometry x="-558.07" y="-35" width="246.07" height="66.08" as="geometry" />
        </mxCell>
        <mxCell id="3FIwbWI3e-DVImyxeN1U-163" value="" style="sketch=0;outlineConnect=0;fontColor=#232F3E;gradientColor=none;fillColor=#232F3D;strokeColor=none;dashed=0;verticalLabelPosition=bottom;verticalAlign=top;align=center;html=1;fontSize=12;fontStyle=0;aspect=fixed;pointerEvents=1;shape=mxgraph.aws4.generic_firewall;" parent="1" vertex="1">
          <mxGeometry x="-545.24" y="-24.3" width="52.81" height="44.68" as="geometry" />
        </mxCell>
        <mxCell id="3FIwbWI3e-DVImyxeN1U-164" value="" style="rounded=0;whiteSpace=wrap;html=1;fillColor=#ffe6cc;strokeColor=#d79b00;opacity=10;" parent="1" vertex="1">
          <mxGeometry x="414" y="-277.5" width="306" height="1012" as="geometry" />
        </mxCell>
        <mxCell id="3FIwbWI3e-DVImyxeN1U-165" value="&lt;font style=&quot;font-size: 11px;&quot;&gt;App Service Environment&lt;/font&gt;" style="rounded=0;whiteSpace=wrap;html=1;fillColor=none;dashed=1;strokeColor=#087724;" parent="1" vertex="1">
          <mxGeometry x="449" y="-234.5" width="227" height="30" as="geometry" />
        </mxCell>
        <mxCell id="3FIwbWI3e-DVImyxeN1U-166" value="" style="rounded=0;whiteSpace=wrap;html=1;fillColor=none;" parent="1" vertex="1">
          <mxGeometry x="-555.17" y="-197.5" width="237.17" height="144.5" as="geometry" />
        </mxCell>
        <mxCell id="3FIwbWI3e-DVImyxeN1U-167" value="Primary Region - West Europe" style="points=[[0,0],[0.25,0],[0.5,0],[0.75,0],[1,0],[1,0.25],[1,0.5],[1,0.75],[1,1],[0.75,1],[0.5,1],[0.25,1],[0,1],[0,0.75],[0,0.5],[0,0.25]];outlineConnect=0;gradientColor=none;html=1;whiteSpace=wrap;fontSize=12;fontStyle=0;container=0;pointerEvents=0;collapsible=0;recursiveResize=0;shape=mxgraph.aws4.group;grIcon=mxgraph.aws4.group_region;strokeColor=#00A4A6;fillColor=none;verticalAlign=top;align=left;spacingLeft=30;fontColor=#147EBA;dashed=1;" parent="1" vertex="1">
          <mxGeometry x="-612" y="-301" width="1425" height="459" as="geometry" />
        </mxCell>
        <mxCell id="3FIwbWI3e-DVImyxeN1U-168" value="" style="rounded=0;whiteSpace=wrap;html=1;fillColor=none;" parent="1" vertex="1">
          <mxGeometry x="449" y="-194.5" width="227" height="112.5" as="geometry" />
        </mxCell>
        <mxCell id="3FIwbWI3e-DVImyxeN1U-169" value="" style="image;aspect=fixed;html=1;points=[];align=center;fontSize=12;image=img/lib/azure2/app_services/App_Service_Plans.svg;" parent="1" vertex="1">
          <mxGeometry x="451" y="-193" width="28" height="28" as="geometry" />
        </mxCell>
        <mxCell id="3FIwbWI3e-DVImyxeN1U-170" value="App Service Plan WE" style="text;html=1;align=center;verticalAlign=middle;resizable=0;points=[];autosize=1;strokeColor=none;fillColor=none;" parent="1" vertex="1">
          <mxGeometry x="468.5" y="-194.5" width="133" height="26" as="geometry" />
        </mxCell>
        <mxCell id="3FIwbWI3e-DVImyxeN1U-172" style="edgeStyle=orthogonalEdgeStyle;rounded=0;orthogonalLoop=1;jettySize=auto;html=1;entryX=0;entryY=0.25;entryDx=0;entryDy=0;exitX=0.52;exitY=-0.05;exitDx=0;exitDy=0;exitPerimeter=0;strokeColor=#0066CC;" parent="1" source="3FIwbWI3e-DVImyxeN1U-173" target="3FIwbWI3e-DVImyxeN1U-174" edge="1">
          <mxGeometry relative="1" as="geometry">
            <Array as="points">
              <mxPoint x="-1070" y="-125" />
              <mxPoint x="-523" y="-125" />
            </Array>
          </mxGeometry>
        </mxCell>
        <mxCell id="3FIwbWI3e-DVImyxeN1U-325" style="edgeStyle=orthogonalEdgeStyle;rounded=0;orthogonalLoop=1;jettySize=auto;html=1;entryX=0;entryY=0.5;entryDx=0;entryDy=0;dashed=1;dashPattern=8 8;strokeColor=#0066CC;" parent="1" source="3FIwbWI3e-DVImyxeN1U-173" target="3FIwbWI3e-DVImyxeN1U-311" edge="1">
          <mxGeometry relative="1" as="geometry">
            <Array as="points">
              <mxPoint x="-1075" y="498" />
            </Array>
          </mxGeometry>
        </mxCell>
        <mxCell id="3FIwbWI3e-DVImyxeN1U-173" value="Azure Front Door" style="image;aspect=fixed;html=1;points=[];align=center;fontSize=12;image=img/lib/azure2/networking/Front_Doors.svg;" parent="1" vertex="1">
          <mxGeometry x="-1105" y="160" width="68" height="60" as="geometry" />
        </mxCell>
        <mxCell id="3FIwbWI3e-DVImyxeN1U-174" value="" style="rounded=0;whiteSpace=wrap;html=1;fillColor=none;" parent="1" vertex="1">
          <mxGeometry x="-514.17" y="-146" width="164.17" height="81.5" as="geometry" />
        </mxCell>
        <mxCell id="3FIwbWI3e-DVImyxeN1U-175" value="" style="image;aspect=fixed;html=1;points=[];align=center;fontSize=12;image=img/lib/azure2/networking/Application_Gateways.svg;" parent="1" vertex="1">
          <mxGeometry x="-498.17" y="-144.5" width="37.5" height="37.5" as="geometry" />
        </mxCell>
        <mxCell id="3FIwbWI3e-DVImyxeN1U-176" value="" style="image;aspect=fixed;html=1;points=[];align=center;fontSize=12;image=img/lib/azure2/networking/Web_Application_Firewall_Policies_WAF.svg;" parent="1" vertex="1">
          <mxGeometry x="-457.17" y="-140.5" width="34.5" height="34.5" as="geometry" />
        </mxCell>
        <mxCell id="3FIwbWI3e-DVImyxeN1U-177" value="Azure App gateway&lt;div&gt;with WAF&lt;/div&gt;" style="text;html=1;align=center;verticalAlign=middle;resizable=0;points=[];autosize=1;strokeColor=none;fillColor=none;" parent="1" vertex="1">
          <mxGeometry x="-509.67" y="-109" width="121" height="41" as="geometry" />
        </mxCell>
        <mxCell id="3FIwbWI3e-DVImyxeN1U-178" value="" style="image;aspect=fixed;html=1;points=[];align=center;fontSize=12;image=img/lib/azure2/networking/Subnet.svg;" parent="1" vertex="1">
          <mxGeometry x="-549.17" y="-188.5" width="30.06" height="18" as="geometry" />
        </mxCell>
        <mxCell id="3FIwbWI3e-DVImyxeN1U-179" value="App Gateway Subnet" style="text;html=1;align=center;verticalAlign=middle;resizable=0;points=[];autosize=1;strokeColor=none;fillColor=none;" parent="1" vertex="1">
          <mxGeometry x="-526.17" y="-193.5" width="131" height="26" as="geometry" />
        </mxCell>
        <mxCell id="3FIwbWI3e-DVImyxeN1U-181" value="Virtual WAN HUB - WE" style="text;html=1;align=center;verticalAlign=middle;resizable=0;points=[];autosize=1;strokeColor=none;fillColor=none;" parent="1" vertex="1">
          <mxGeometry x="-546.51" y="-243.31" width="141" height="26" as="geometry" />
        </mxCell>
        <mxCell id="3FIwbWI3e-DVImyxeN1U-182" value="" style="rounded=0;whiteSpace=wrap;html=1;fillColor=none;dashed=1;" parent="1" vertex="1">
          <mxGeometry x="-226" y="-280" width="619" height="414" as="geometry" />
        </mxCell>
        <mxCell id="3FIwbWI3e-DVImyxeN1U-183" value="" style="image;aspect=fixed;html=1;points=[];align=center;fontSize=12;image=img/lib/azure2/networking/Virtual_Networks.svg;" parent="1" vertex="1">
          <mxGeometry x="-219" y="-274" width="31.83" height="19" as="geometry" />
        </mxCell>
        <mxCell id="3FIwbWI3e-DVImyxeN1U-184" value="Spoke - Website Factory WE" style="text;html=1;align=center;verticalAlign=middle;resizable=0;points=[];autosize=1;strokeColor=none;fillColor=none;" parent="1" vertex="1">
          <mxGeometry x="-186" y="-277.5" width="172" height="26" as="geometry" />
        </mxCell>
        <mxCell id="3FIwbWI3e-DVImyxeN1U-185" value="" style="rounded=0;whiteSpace=wrap;html=1;fillColor=none;" parent="1" vertex="1">
          <mxGeometry x="65" y="-251.5" width="242" height="103" as="geometry" />
        </mxCell>
        <mxCell id="3FIwbWI3e-DVImyxeN1U-186" value="" style="rounded=0;whiteSpace=wrap;html=1;fillColor=none;" parent="1" vertex="1">
          <mxGeometry x="-193" y="-138" width="568" height="251" as="geometry" />
        </mxCell>
        <mxCell id="3FIwbWI3e-DVImyxeN1U-187" value="" style="image;aspect=fixed;html=1;points=[];align=center;fontSize=12;image=img/lib/azure2/networking/Subnet.svg;" parent="1" vertex="1">
          <mxGeometry x="-185" y="-130" width="30.06" height="18" as="geometry" />
        </mxCell>
        <mxCell id="3FIwbWI3e-DVImyxeN1U-188" value="PE subnet" style="text;html=1;align=center;verticalAlign=middle;resizable=0;points=[];autosize=1;strokeColor=none;fillColor=none;" parent="1" vertex="1">
          <mxGeometry x="-152.00000000000006" y="-130" width="73" height="26" as="geometry" />
        </mxCell>
        <mxCell id="3FIwbWI3e-DVImyxeN1U-189" value="App service integration subnet" style="text;html=1;align=center;verticalAlign=middle;resizable=0;points=[];autosize=1;strokeColor=none;fillColor=none;" parent="1" vertex="1">
          <mxGeometry x="96.49999999999994" y="-246.5" width="179" height="26" as="geometry" />
        </mxCell>
        <mxCell id="3FIwbWI3e-DVImyxeN1U-190" value="" style="image;aspect=fixed;html=1;points=[];align=center;fontSize=12;image=img/lib/azure2/networking/Subnet.svg;" parent="1" vertex="1">
          <mxGeometry x="68.82999999999998" y="-242.5" width="30.06" height="18" as="geometry" />
        </mxCell>
        <mxCell id="3FIwbWI3e-DVImyxeN1U-191" value="Database PE" style="image;aspect=fixed;html=1;points=[];align=center;fontSize=12;image=img/lib/azure2/other/Private_Endpoints.svg;" parent="1" vertex="1">
          <mxGeometry x="217.99999999999994" y="-134.5" width="36" height="34.24" as="geometry" />
        </mxCell>
        <mxCell id="_STYDhPdlqANtVIS4i8s-5" style="edgeStyle=orthogonalEdgeStyle;rounded=0;orthogonalLoop=1;jettySize=auto;html=1;strokeColor=#9933FF;dashed=1;" edge="1" parent="1" source="3FIwbWI3e-DVImyxeN1U-192" target="3FIwbWI3e-DVImyxeN1U-211">
          <mxGeometry relative="1" as="geometry">
            <Array as="points">
              <mxPoint x="314" y="-58" />
              <mxPoint x="314" y="41" />
            </Array>
          </mxGeometry>
        </mxCell>
        <mxCell id="3FIwbWI3e-DVImyxeN1U-192" value="Configuration PE" style="image;aspect=fixed;html=1;points=[];align=center;fontSize=12;image=img/lib/azure2/other/Private_Endpoints.svg;" parent="1" vertex="1">
          <mxGeometry x="227.99999999999994" y="-75.00000000000001" width="36" height="34.24" as="geometry" />
        </mxCell>
        <mxCell id="3FIwbWI3e-DVImyxeN1U-193" style="edgeStyle=orthogonalEdgeStyle;rounded=0;orthogonalLoop=1;jettySize=auto;html=1;strokeColor=#9933FF;dashed=1;" parent="1" target="3FIwbWI3e-DVImyxeN1U-197" edge="1">
          <mxGeometry relative="1" as="geometry">
            <Array as="points">
              <mxPoint x="37" y="56" />
              <mxPoint x="162" y="56" />
              <mxPoint x="162" y="97" />
              <mxPoint x="700" y="97" />
              <mxPoint x="700" y="-158" />
            </Array>
            <mxPoint x="36.999999999999545" y="9.539999999999964" as="sourcePoint" />
          </mxGeometry>
        </mxCell>
        <mxCell id="3FIwbWI3e-DVImyxeN1U-194" value="App Service PE" style="image;aspect=fixed;html=1;points=[];align=center;fontSize=12;image=img/lib/azure2/other/Private_Endpoints.svg;" parent="1" vertex="1">
          <mxGeometry x="21.999999999999943" y="-24.700000000000017" width="36" height="34.24" as="geometry" />
        </mxCell>
        <mxCell id="3FIwbWI3e-DVImyxeN1U-195" value="Virtual Interfaces" style="text;html=1;align=center;verticalAlign=middle;resizable=0;points=[];autosize=1;strokeColor=none;fillColor=none;" parent="1" vertex="1">
          <mxGeometry x="146" y="-182" width="108" height="26" as="geometry" />
        </mxCell>
        <mxCell id="3FIwbWI3e-DVImyxeN1U-196" value="" style="image;aspect=fixed;html=1;points=[];align=center;fontSize=12;image=img/lib/azure2/app_services/App_Service_Environments.svg;" parent="1" vertex="1">
          <mxGeometry x="453" y="-228" width="23" height="23" as="geometry" />
        </mxCell>
        <mxCell id="3FIwbWI3e-DVImyxeN1U-197" value="websites" style="image;aspect=fixed;html=1;points=[];align=center;fontSize=12;image=img/lib/azure2/app_services/App_Services.svg;" parent="1" vertex="1">
          <mxGeometry x="595" y="-179" width="41" height="41" as="geometry" />
        </mxCell>
        <mxCell id="3FIwbWI3e-DVImyxeN1U-198" value="" style="image;sketch=0;aspect=fixed;html=1;points=[];align=center;fontSize=12;image=img/lib/mscae/NetworkInterfaceCard.svg;" parent="1" vertex="1">
          <mxGeometry x="179.66" y="-216" width="31.68" height="36" as="geometry" />
        </mxCell>
        <mxCell id="3FIwbWI3e-DVImyxeN1U-199" value="" style="rounded=0;whiteSpace=wrap;html=1;fillColor=none;" parent="1" vertex="1">
          <mxGeometry x="-191" y="-247" width="217" height="97" as="geometry" />
        </mxCell>
        <mxCell id="3FIwbWI3e-DVImyxeN1U-200" value="" style="rounded=0;whiteSpace=wrap;html=1;fillColor=none;dashed=1;strokeColor=#087724;" parent="1" vertex="1">
          <mxGeometry x="-939.33" y="-249" width="46.33" height="11" as="geometry" />
        </mxCell>
        <mxCell id="3FIwbWI3e-DVImyxeN1U-201" value="" style="image;aspect=fixed;html=1;points=[];align=center;fontSize=12;image=img/lib/azure2/networking/Subnet.svg;" parent="1" vertex="1">
          <mxGeometry x="-187.17000000000002" y="-243" width="30.06" height="18" as="geometry" />
        </mxCell>
        <mxCell id="3FIwbWI3e-DVImyxeN1U-202" value="APIM Subnet" style="text;html=1;align=center;verticalAlign=middle;resizable=0;points=[];autosize=1;strokeColor=none;fillColor=none;" parent="1" vertex="1">
          <mxGeometry x="-128.11000000000007" y="-247.5" width="89" height="26" as="geometry" />
        </mxCell>
        <mxCell id="3FIwbWI3e-DVImyxeN1U-203" value="API Management" style="image;aspect=fixed;html=1;points=[];align=center;fontSize=12;image=img/lib/azure2/app_services/API_Management_Services.svg;" parent="1" vertex="1">
          <mxGeometry x="-104.11" y="-216" width="36.83" height="34" as="geometry" />
        </mxCell>
        <mxCell id="3FIwbWI3e-DVImyxeN1U-205" value="AZURE PUBLIC PAAS" style="rounded=0;whiteSpace=wrap;html=1;fillColor=#fff2cc;strokeColor=#d6b656;fontStyle=1" parent="1" vertex="1">
          <mxGeometry x="411" y="-279" width="310" height="39" as="geometry" />
        </mxCell>
        <mxCell id="3FIwbWI3e-DVImyxeN1U-206" style="edgeStyle=orthogonalEdgeStyle;rounded=0;orthogonalLoop=1;jettySize=auto;html=1;entryX=1.063;entryY=0.509;entryDx=0;entryDy=0;entryPerimeter=0;strokeColor=#9933FF;dashed=1;" parent="1" source="3FIwbWI3e-DVImyxeN1U-197" target="3FIwbWI3e-DVImyxeN1U-198" edge="1">
          <mxGeometry relative="1" as="geometry">
            <Array as="points">
              <mxPoint x="362" y="-154" />
              <mxPoint x="362" y="-198" />
            </Array>
          </mxGeometry>
        </mxCell>
        <mxCell id="3FIwbWI3e-DVImyxeN1U-207" style="edgeStyle=orthogonalEdgeStyle;rounded=0;orthogonalLoop=1;jettySize=auto;html=1;entryX=0.009;entryY=0.681;entryDx=0;entryDy=0;entryPerimeter=0;strokeColor=#9933FF;dashed=1;" parent="1" source="3FIwbWI3e-DVImyxeN1U-203" target="3FIwbWI3e-DVImyxeN1U-194" edge="1">
          <mxGeometry relative="1" as="geometry">
            <Array as="points">
              <mxPoint x="-25" y="-199" />
              <mxPoint x="-25" y="-1" />
            </Array>
          </mxGeometry>
        </mxCell>
        <mxCell id="3FIwbWI3e-DVImyxeN1U-208" style="edgeStyle=orthogonalEdgeStyle;rounded=0;orthogonalLoop=1;jettySize=auto;html=1;entryX=0.065;entryY=0.55;entryDx=0;entryDy=0;entryPerimeter=0;dashed=1;strokeColor=#9933FF;" parent="1" source="3FIwbWI3e-DVImyxeN1U-198" target="3FIwbWI3e-DVImyxeN1U-191" edge="1">
          <mxGeometry relative="1" as="geometry">
            <Array as="points">
              <mxPoint x="136" y="-198" />
              <mxPoint x="136" y="-116" />
            </Array>
          </mxGeometry>
        </mxCell>
        <mxCell id="3FIwbWI3e-DVImyxeN1U-209" style="edgeStyle=orthogonalEdgeStyle;rounded=0;orthogonalLoop=1;jettySize=auto;html=1;strokeColor=#9933FF;dashed=1;entryX=0.035;entryY=0.613;entryDx=0;entryDy=0;entryPerimeter=0;" parent="1" source="3FIwbWI3e-DVImyxeN1U-198" edge="1" target="3FIwbWI3e-DVImyxeN1U-192">
          <mxGeometry relative="1" as="geometry">
            <mxPoint x="222" y="-29" as="targetPoint" />
            <Array as="points">
              <mxPoint x="82" y="-198" />
              <mxPoint x="82" y="-56" />
              <mxPoint x="222" y="-56" />
              <mxPoint x="222" y="-54" />
            </Array>
          </mxGeometry>
        </mxCell>
        <mxCell id="3FIwbWI3e-DVImyxeN1U-210" value="Master DB" style="image;aspect=fixed;html=1;points=[];align=center;fontSize=12;image=img/lib/azure2/databases/Azure_Database_MariaDB_Server.svg;" parent="1" vertex="1">
          <mxGeometry x="510" y="-65.76" width="36.75" height="49" as="geometry" />
        </mxCell>
        <mxCell id="3FIwbWI3e-DVImyxeN1U-211" value="Azure Keyvault WE" style="image;aspect=fixed;html=1;points=[];align=center;fontSize=12;image=img/lib/azure2/security/Key_Vaults.svg;" parent="1" vertex="1">
          <mxGeometry x="506.75" y="24" width="40" height="40" as="geometry" />
        </mxCell>
        <mxCell id="3FIwbWI3e-DVImyxeN1U-212" style="edgeStyle=orthogonalEdgeStyle;rounded=0;orthogonalLoop=1;jettySize=auto;html=1;entryX=-0.018;entryY=0.553;entryDx=0;entryDy=0;entryPerimeter=0;strokeColor=#9933FF;dashed=1;" parent="1" source="3FIwbWI3e-DVImyxeN1U-191" target="3FIwbWI3e-DVImyxeN1U-210" edge="1">
          <mxGeometry relative="1" as="geometry">
            <Array as="points">
              <mxPoint x="366" y="-111" />
              <mxPoint x="366" y="-39" />
            </Array>
          </mxGeometry>
        </mxCell>
        <mxCell id="3FIwbWI3e-DVImyxeN1U-213" style="edgeStyle=orthogonalEdgeStyle;rounded=0;orthogonalLoop=1;jettySize=auto;html=1;entryX=0.015;entryY=0.608;entryDx=0;entryDy=0;entryPerimeter=0;strokeColor=none;dashed=1;" parent="1" source="3FIwbWI3e-DVImyxeN1U-192" target="3FIwbWI3e-DVImyxeN1U-211" edge="1">
          <mxGeometry relative="1" as="geometry">
            <Array as="points">
              <mxPoint x="357" y="-34" />
              <mxPoint x="357" y="48" />
            </Array>
          </mxGeometry>
        </mxCell>
        <mxCell id="3FIwbWI3e-DVImyxeN1U-214" value="" style="image;aspect=fixed;html=1;points=[];align=center;fontSize=12;image=img/lib/azure2/networking/Network_Security_Groups.svg;" parent="1" vertex="1">
          <mxGeometry x="13.999999999999996" y="-258" width="22.24" height="27" as="geometry" />
        </mxCell>
        <mxCell id="3FIwbWI3e-DVImyxeN1U-215" value="" style="image;aspect=fixed;html=1;points=[];align=center;fontSize=12;image=img/lib/azure2/networking/Network_Security_Groups.svg;" parent="1" vertex="1">
          <mxGeometry x="290" y="-261.5" width="22.24" height="27" as="geometry" />
        </mxCell>
        <mxCell id="3FIwbWI3e-DVImyxeN1U-216" value="" style="image;aspect=fixed;html=1;points=[];align=center;fontSize=12;image=img/lib/azure2/networking/Network_Security_Groups.svg;" parent="1" vertex="1">
          <mxGeometry x="316" y="-148.5" width="22.24" height="27" as="geometry" />
        </mxCell>
        <mxCell id="3FIwbWI3e-DVImyxeN1U-217" value="" style="image;aspect=fixed;html=1;points=[];align=center;fontSize=12;image=img/lib/azure2/networking/Network_Security_Groups.svg;" parent="1" vertex="1">
          <mxGeometry x="-354.24" y="-205" width="22.24" height="27" as="geometry" />
        </mxCell>
        <mxCell id="3FIwbWI3e-DVImyxeN1U-218" value="&lt;font style=&quot;font-size: 11px;&quot;&gt;App Service Environment NE&lt;/font&gt;" style="rounded=0;whiteSpace=wrap;html=1;fillColor=none;dashed=1;strokeColor=#087724;" parent="1" vertex="1">
          <mxGeometry x="451" y="215.5" width="227" height="30" as="geometry" />
        </mxCell>
        <mxCell id="3FIwbWI3e-DVImyxeN1U-221" value="Primary Region - Nort Europe" style="points=[[0,0],[0.25,0],[0.5,0],[0.75,0],[1,0],[1,0.25],[1,0.5],[1,0.75],[1,1],[0.75,1],[0.5,1],[0.25,1],[0,1],[0,0.75],[0,0.5],[0,0.25]];outlineConnect=0;gradientColor=none;html=1;whiteSpace=wrap;fontSize=12;fontStyle=0;container=0;pointerEvents=0;collapsible=0;recursiveResize=0;shape=mxgraph.aws4.group;grIcon=mxgraph.aws4.group_region;strokeColor=#00A4A6;fillColor=none;verticalAlign=top;align=left;spacingLeft=30;fontColor=#147EBA;dashed=1;" parent="1" vertex="1">
          <mxGeometry x="-619" y="183" width="1437" height="414" as="geometry" />
        </mxCell>
        <mxCell id="3FIwbWI3e-DVImyxeN1U-222" value="" style="rounded=0;whiteSpace=wrap;html=1;fillColor=none;" parent="1" vertex="1">
          <mxGeometry x="454" y="255.5" width="227" height="112.5" as="geometry" />
        </mxCell>
        <mxCell id="3FIwbWI3e-DVImyxeN1U-223" value="" style="image;aspect=fixed;html=1;points=[];align=center;fontSize=12;image=img/lib/azure2/app_services/App_Service_Plans.svg;" parent="1" vertex="1">
          <mxGeometry x="455" y="257" width="28" height="28" as="geometry" />
        </mxCell>
        <mxCell id="3FIwbWI3e-DVImyxeN1U-224" value="App Service Plan NE" style="text;html=1;align=center;verticalAlign=middle;resizable=0;points=[];autosize=1;strokeColor=none;fillColor=none;" parent="1" vertex="1">
          <mxGeometry x="472.5" y="255.5" width="130" height="26" as="geometry" />
        </mxCell>
        <mxCell id="3FIwbWI3e-DVImyxeN1U-233" value="" style="rounded=0;whiteSpace=wrap;html=1;fillColor=none;dashed=1;" parent="1" vertex="1">
          <mxGeometry x="-233" y="204" width="619" height="383" as="geometry" />
        </mxCell>
        <mxCell id="3FIwbWI3e-DVImyxeN1U-234" value="" style="image;aspect=fixed;html=1;points=[];align=center;fontSize=12;image=img/lib/azure2/networking/Virtual_Networks.svg;" parent="1" vertex="1">
          <mxGeometry x="-226" y="210" width="31.83" height="19" as="geometry" />
        </mxCell>
        <mxCell id="3FIwbWI3e-DVImyxeN1U-235" value="Spoke - Website Factory NE" style="text;html=1;align=center;verticalAlign=middle;resizable=0;points=[];autosize=1;strokeColor=none;fillColor=none;" parent="1" vertex="1">
          <mxGeometry x="-192" y="206.5" width="169" height="26" as="geometry" />
        </mxCell>
        <mxCell id="3FIwbWI3e-DVImyxeN1U-236" value="" style="rounded=0;whiteSpace=wrap;html=1;fillColor=none;" parent="1" vertex="1">
          <mxGeometry x="105" y="232.5" width="242" height="103" as="geometry" />
        </mxCell>
        <mxCell id="3FIwbWI3e-DVImyxeN1U-237" value="" style="rounded=0;whiteSpace=wrap;html=1;fillColor=none;" parent="1" vertex="1">
          <mxGeometry x="-200" y="346" width="568" height="226" as="geometry" />
        </mxCell>
        <mxCell id="3FIwbWI3e-DVImyxeN1U-238" value="" style="image;aspect=fixed;html=1;points=[];align=center;fontSize=12;image=img/lib/azure2/networking/Subnet.svg;" parent="1" vertex="1">
          <mxGeometry x="-192" y="354" width="30.06" height="18" as="geometry" />
        </mxCell>
        <mxCell id="3FIwbWI3e-DVImyxeN1U-239" value="PE subnet" style="text;html=1;align=center;verticalAlign=middle;resizable=0;points=[];autosize=1;strokeColor=none;fillColor=none;" parent="1" vertex="1">
          <mxGeometry x="-159.00000000000006" y="354" width="73" height="26" as="geometry" />
        </mxCell>
        <mxCell id="3FIwbWI3e-DVImyxeN1U-240" value="App service integration subnet" style="text;html=1;align=center;verticalAlign=middle;resizable=0;points=[];autosize=1;strokeColor=none;fillColor=none;" parent="1" vertex="1">
          <mxGeometry x="136.49999999999994" y="237.5" width="179" height="26" as="geometry" />
        </mxCell>
        <mxCell id="3FIwbWI3e-DVImyxeN1U-241" value="" style="image;aspect=fixed;html=1;points=[];align=center;fontSize=12;image=img/lib/azure2/networking/Subnet.svg;" parent="1" vertex="1">
          <mxGeometry x="108.82999999999998" y="241.5" width="30.06" height="18" as="geometry" />
        </mxCell>
        <mxCell id="3FIwbWI3e-DVImyxeN1U-242" value="Database PE" style="image;aspect=fixed;html=1;points=[];align=center;fontSize=12;image=img/lib/azure2/other/Private_Endpoints.svg;" parent="1" vertex="1">
          <mxGeometry x="257.99999999999994" y="364.5" width="36" height="34.24" as="geometry" />
        </mxCell>
        <mxCell id="3FIwbWI3e-DVImyxeN1U-243" value="Configuration PE" style="image;aspect=fixed;html=1;points=[];align=center;fontSize=12;image=img/lib/azure2/other/Private_Endpoints.svg;" parent="1" vertex="1">
          <mxGeometry x="261.99999999999994" y="433" width="36" height="34.24" as="geometry" />
        </mxCell>
        <mxCell id="3FIwbWI3e-DVImyxeN1U-244" style="edgeStyle=orthogonalEdgeStyle;rounded=0;orthogonalLoop=1;jettySize=auto;html=1;entryX=0.936;entryY=0.536;entryDx=0;entryDy=0;entryPerimeter=0;strokeColor=#9933FF;dashed=1;" parent="1" source="3FIwbWI3e-DVImyxeN1U-245" target="3FIwbWI3e-DVImyxeN1U-248" edge="1">
          <mxGeometry relative="1" as="geometry">
            <Array as="points">
              <mxPoint x="37" y="540" />
              <mxPoint x="748" y="540" />
              <mxPoint x="748" y="289" />
              <mxPoint x="660" y="289" />
            </Array>
          </mxGeometry>
        </mxCell>
        <mxCell id="3FIwbWI3e-DVImyxeN1U-245" value="App Service PE" style="image;aspect=fixed;html=1;points=[];align=center;fontSize=12;image=img/lib/azure2/other/Private_Endpoints.svg;" parent="1" vertex="1">
          <mxGeometry x="19.119999999999944" y="469" width="36" height="34.24" as="geometry" />
        </mxCell>
        <mxCell id="3FIwbWI3e-DVImyxeN1U-246" value="Virtual Interfaces" style="text;html=1;align=center;verticalAlign=middle;resizable=0;points=[];autosize=1;strokeColor=none;fillColor=none;" parent="1" vertex="1">
          <mxGeometry x="186" y="302" width="108" height="26" as="geometry" />
        </mxCell>
        <mxCell id="3FIwbWI3e-DVImyxeN1U-247" value="" style="image;aspect=fixed;html=1;points=[];align=center;fontSize=12;image=img/lib/azure2/app_services/App_Service_Environments.svg;" parent="1" vertex="1">
          <mxGeometry x="455" y="222" width="23" height="23" as="geometry" />
        </mxCell>
        <mxCell id="3FIwbWI3e-DVImyxeN1U-248" value="" style="image;aspect=fixed;html=1;points=[];align=center;fontSize=12;image=img/lib/azure2/app_services/App_Services.svg;" parent="1" vertex="1">
          <mxGeometry x="627" y="281.75" width="35" height="35" as="geometry" />
        </mxCell>
        <mxCell id="3FIwbWI3e-DVImyxeN1U-249" value="" style="image;sketch=0;aspect=fixed;html=1;points=[];align=center;fontSize=12;image=img/lib/mscae/NetworkInterfaceCard.svg;" parent="1" vertex="1">
          <mxGeometry x="219.66" y="268" width="31.68" height="36" as="geometry" />
        </mxCell>
        <mxCell id="3FIwbWI3e-DVImyxeN1U-250" value="" style="rounded=0;whiteSpace=wrap;html=1;fillColor=none;" parent="1" vertex="1">
          <mxGeometry x="-198" y="237" width="242" height="97" as="geometry" />
        </mxCell>
        <mxCell id="3FIwbWI3e-DVImyxeN1U-251" value="" style="image;aspect=fixed;html=1;points=[];align=center;fontSize=12;image=img/lib/azure2/networking/Subnet.svg;" parent="1" vertex="1">
          <mxGeometry x="-194.17000000000002" y="241" width="30.06" height="18" as="geometry" />
        </mxCell>
        <mxCell id="3FIwbWI3e-DVImyxeN1U-252" value="APIM Subnet" style="text;html=1;align=center;verticalAlign=middle;resizable=0;points=[];autosize=1;strokeColor=none;fillColor=none;" parent="1" vertex="1">
          <mxGeometry x="-135.11000000000007" y="236.5" width="89" height="26" as="geometry" />
        </mxCell>
        <mxCell id="3FIwbWI3e-DVImyxeN1U-253" value="API Management" style="image;aspect=fixed;html=1;points=[];align=center;fontSize=12;image=img/lib/azure2/app_services/API_Management_Services.svg;" parent="1" vertex="1">
          <mxGeometry x="-111.11" y="268" width="36.83" height="34" as="geometry" />
        </mxCell>
        <mxCell id="3FIwbWI3e-DVImyxeN1U-254" style="edgeStyle=orthogonalEdgeStyle;rounded=0;orthogonalLoop=1;jettySize=auto;html=1;exitX=1;exitY=0.5;exitDx=0;exitDy=0;entryX=-0.015;entryY=0.363;entryDx=0;entryDy=0;entryPerimeter=0;curved=1;" parent="1" source="3FIwbWI3e-DVImyxeN1U-306" target="3FIwbWI3e-DVImyxeN1U-253" edge="1">
          <mxGeometry relative="1" as="geometry">
            <Array as="points">
              <mxPoint x="-310" y="280" />
            </Array>
            <mxPoint x="-362.2399999999998" y="549" as="sourcePoint" />
          </mxGeometry>
        </mxCell>
        <mxCell id="3FIwbWI3e-DVImyxeN1U-255" style="edgeStyle=orthogonalEdgeStyle;rounded=0;orthogonalLoop=1;jettySize=auto;html=1;entryX=1.063;entryY=0.509;entryDx=0;entryDy=0;entryPerimeter=0;exitX=0.043;exitY=0.536;exitDx=0;exitDy=0;exitPerimeter=0;dashed=1;strokeColor=#9933FF;" parent="1" source="3FIwbWI3e-DVImyxeN1U-248" target="3FIwbWI3e-DVImyxeN1U-249" edge="1">
          <mxGeometry relative="1" as="geometry">
            <Array as="points">
              <mxPoint x="398" y="300" />
              <mxPoint x="398" y="286" />
            </Array>
          </mxGeometry>
        </mxCell>
        <mxCell id="3FIwbWI3e-DVImyxeN1U-256" style="edgeStyle=orthogonalEdgeStyle;rounded=0;orthogonalLoop=1;jettySize=auto;html=1;entryX=0.009;entryY=0.681;entryDx=0;entryDy=0;entryPerimeter=0;" parent="1" source="3FIwbWI3e-DVImyxeN1U-253" target="3FIwbWI3e-DVImyxeN1U-245" edge="1">
          <mxGeometry relative="1" as="geometry">
            <Array as="points">
              <mxPoint x="-9" y="285" />
              <mxPoint x="-9" y="489" />
              <mxPoint x="19" y="489" />
            </Array>
          </mxGeometry>
        </mxCell>
        <mxCell id="3FIwbWI3e-DVImyxeN1U-257" style="edgeStyle=orthogonalEdgeStyle;rounded=0;orthogonalLoop=1;jettySize=auto;html=1;entryX=0.065;entryY=0.55;entryDx=0;entryDy=0;entryPerimeter=0;strokeColor=#9933FF;dashed=1;" parent="1" source="3FIwbWI3e-DVImyxeN1U-249" target="3FIwbWI3e-DVImyxeN1U-242" edge="1">
          <mxGeometry relative="1" as="geometry">
            <Array as="points">
              <mxPoint x="176" y="286" />
              <mxPoint x="176" y="383" />
            </Array>
          </mxGeometry>
        </mxCell>
        <mxCell id="3FIwbWI3e-DVImyxeN1U-258" style="edgeStyle=orthogonalEdgeStyle;rounded=0;orthogonalLoop=1;jettySize=auto;html=1;strokeColor=#9933FF;dashed=1;" parent="1" source="3FIwbWI3e-DVImyxeN1U-249" edge="1">
          <mxGeometry relative="1" as="geometry">
            <mxPoint x="262" y="455" as="targetPoint" />
            <Array as="points">
              <mxPoint x="122" y="286" />
              <mxPoint x="122" y="455" />
            </Array>
          </mxGeometry>
        </mxCell>
        <mxCell id="3FIwbWI3e-DVImyxeN1U-259" value="StandBy DB" style="image;aspect=fixed;html=1;points=[];align=center;fontSize=12;image=img/lib/azure2/databases/Azure_Database_MariaDB_Server.svg;" parent="1" vertex="1">
          <mxGeometry x="550" y="384.24" width="36.75" height="49" as="geometry" />
        </mxCell>
        <mxCell id="3FIwbWI3e-DVImyxeN1U-260" value="Azure Keyvault NE" style="image;aspect=fixed;html=1;points=[];align=center;fontSize=12;image=img/lib/azure2/security/Key_Vaults.svg;" parent="1" vertex="1">
          <mxGeometry x="546.75" y="463" width="40" height="40" as="geometry" />
        </mxCell>
        <mxCell id="3FIwbWI3e-DVImyxeN1U-261" style="edgeStyle=orthogonalEdgeStyle;rounded=0;orthogonalLoop=1;jettySize=auto;html=1;entryX=-0.018;entryY=0.553;entryDx=0;entryDy=0;entryPerimeter=0;strokeColor=#9933FF;dashed=1;" parent="1" source="3FIwbWI3e-DVImyxeN1U-242" target="3FIwbWI3e-DVImyxeN1U-259" edge="1">
          <mxGeometry relative="1" as="geometry">
            <Array as="points">
              <mxPoint x="406" y="382" />
              <mxPoint x="406" y="411" />
            </Array>
          </mxGeometry>
        </mxCell>
        <mxCell id="3FIwbWI3e-DVImyxeN1U-262" style="edgeStyle=orthogonalEdgeStyle;rounded=0;orthogonalLoop=1;jettySize=auto;html=1;entryX=0.015;entryY=0.608;entryDx=0;entryDy=0;entryPerimeter=0;" parent="1" source="3FIwbWI3e-DVImyxeN1U-243" target="3FIwbWI3e-DVImyxeN1U-260" edge="1">
          <mxGeometry relative="1" as="geometry">
            <Array as="points">
              <mxPoint x="397" y="450" />
              <mxPoint x="397" y="487" />
            </Array>
          </mxGeometry>
        </mxCell>
        <mxCell id="3FIwbWI3e-DVImyxeN1U-263" value="" style="image;aspect=fixed;html=1;points=[];align=center;fontSize=12;image=img/lib/azure2/networking/Network_Security_Groups.svg;" parent="1" vertex="1">
          <mxGeometry x="28.759999999999998" y="224.5" width="22.24" height="27" as="geometry" />
        </mxCell>
        <mxCell id="3FIwbWI3e-DVImyxeN1U-264" value="" style="image;aspect=fixed;html=1;points=[];align=center;fontSize=12;image=img/lib/azure2/networking/Network_Security_Groups.svg;" parent="1" vertex="1">
          <mxGeometry x="330" y="222.5" width="22.24" height="27" as="geometry" />
        </mxCell>
        <mxCell id="3FIwbWI3e-DVImyxeN1U-265" value="" style="image;aspect=fixed;html=1;points=[];align=center;fontSize=12;image=img/lib/azure2/networking/Network_Security_Groups.svg;" parent="1" vertex="1">
          <mxGeometry x="356" y="335.5" width="22.24" height="27" as="geometry" />
        </mxCell>
        <mxCell id="3FIwbWI3e-DVImyxeN1U-267" style="edgeStyle=orthogonalEdgeStyle;rounded=0;orthogonalLoop=1;jettySize=auto;html=1;entryX=1.088;entryY=0.635;entryDx=0;entryDy=0;entryPerimeter=0;strokeColor=#CC0000;strokeWidth=1;" parent="1" source="3FIwbWI3e-DVImyxeN1U-210" target="3FIwbWI3e-DVImyxeN1U-259" edge="1">
          <mxGeometry relative="1" as="geometry">
            <Array as="points">
              <mxPoint x="870" y="-41" />
              <mxPoint x="870" y="415" />
            </Array>
          </mxGeometry>
        </mxCell>
        <mxCell id="3FIwbWI3e-DVImyxeN1U-268" value="&lt;font style=&quot;font-size: 14px;&quot;&gt;Geo Replication&lt;/font&gt;" style="edgeLabel;html=1;align=center;verticalAlign=middle;resizable=0;points=[];" parent="3FIwbWI3e-DVImyxeN1U-267" vertex="1" connectable="0">
          <mxGeometry x="-0.0099" relative="1" as="geometry">
            <mxPoint as="offset" />
          </mxGeometry>
        </mxCell>
        <mxCell id="3FIwbWI3e-DVImyxeN1U-269" value="" style="rounded=0;whiteSpace=wrap;html=1;fillColor=#e1d5e7;strokeColor=#9673a6;opacity=10;" parent="1" vertex="1">
          <mxGeometry x="-608" y="-404" width="1462" height="80" as="geometry" />
        </mxCell>
        <mxCell id="3FIwbWI3e-DVImyxeN1U-270" value="Azure B2C" style="image;aspect=fixed;html=1;points=[];align=center;fontSize=12;image=img/lib/azure2/identity/Azure_AD_B2C.svg;" parent="1" vertex="1">
          <mxGeometry x="738" y="-387.74" width="32.06" height="29.74" as="geometry" />
        </mxCell>
        <mxCell id="3FIwbWI3e-DVImyxeN1U-271" value="Appq insights" style="image;aspect=fixed;html=1;points=[];align=center;fontSize=12;image=img/lib/azure2/devops/Application_Insights.svg;" parent="1" vertex="1">
          <mxGeometry x="-370.12" y="-390.5" width="25" height="35.8" as="geometry" />
        </mxCell>
        <mxCell id="3FIwbWI3e-DVImyxeN1U-272" value="Azure DevOps" style="image;aspect=fixed;html=1;points=[];align=center;fontSize=12;image=img/lib/azure2/devops/Azure_DevOps.svg;" parent="1" vertex="1">
          <mxGeometry x="216.34" y="-390.5" width="35" height="35" as="geometry" />
        </mxCell>
        <mxCell id="3FIwbWI3e-DVImyxeN1U-273" value="Aquasec" style="shape=image;verticalLabelPosition=bottom;labelBackgroundColor=default;verticalAlign=top;aspect=fixed;imageAspect=0;image=https://media.trustradius.com/product-logos/aL/8E/FHZL1VXXQ0Z3.PNG;" parent="1" vertex="1">
          <mxGeometry x="576" y="-383.68" width="29" height="29" as="geometry" />
        </mxCell>
        <mxCell id="3FIwbWI3e-DVImyxeN1U-274" value="SonarCloud" style="shape=image;verticalLabelPosition=bottom;labelBackgroundColor=default;verticalAlign=top;aspect=fixed;imageAspect=0;image=https://static-00.iconduck.com/assets.00/sonarcloud-icon-256x224-dnm8uyby.png;" parent="1" vertex="1">
          <mxGeometry x="-185" y="-387" width="36" height="31.5" as="geometry" />
        </mxCell>
        <mxCell id="3FIwbWI3e-DVImyxeN1U-275" value="Logs Analytics" style="image;aspect=fixed;html=1;points=[];align=center;fontSize=12;image=img/lib/azure2/management_governance/Log_Analytics_Workspaces.svg;" parent="1" vertex="1">
          <mxGeometry x="19.11999999999999" y="-392.13" width="41.76" height="41.76" as="geometry" />
        </mxCell>
        <mxCell id="3FIwbWI3e-DVImyxeN1U-277" value="&lt;b&gt;Saint-Nolff Site&lt;/b&gt;" style="sketch=0;outlineConnect=0;gradientColor=none;html=1;whiteSpace=wrap;fontSize=12;fontStyle=0;shape=mxgraph.aws4.group;grIcon=mxgraph.aws4.group_on_premise;strokeColor=#000000;fillColor=none;verticalAlign=top;align=left;spacingLeft=30;fontColor=#AAB7B8;dashed=0;" parent="1" vertex="1">
          <mxGeometry x="-1036" y="-66" width="186" height="106.74" as="geometry" />
        </mxCell>
        <mxCell id="3FIwbWI3e-DVImyxeN1U-279" value="ADM MPLS Cloud" style="ellipse;shape=cloud;whiteSpace=wrap;html=1;" parent="1" vertex="1">
          <mxGeometry x="-1008" y="103" width="160" height="160.62" as="geometry" />
        </mxCell>
        <mxCell id="3FIwbWI3e-DVImyxeN1U-280" value="Express Route" style="image;aspect=fixed;html=1;points=[];align=center;fontSize=12;image=img/lib/azure2/networking/ExpressRoute_Circuits.svg;" parent="1" vertex="1">
          <mxGeometry x="-829" y="207.84" width="33" height="30.17" as="geometry" />
        </mxCell>
        <mxCell id="3FIwbWI3e-DVImyxeN1U-282" value="&lt;span style=&quot;color: rgb(0, 0, 0); font-family: Helvetica; font-size: 12px; font-style: normal; font-variant-ligatures: normal; font-variant-caps: normal; font-weight: 400; letter-spacing: normal; orphans: 2; text-align: center; text-indent: 0px; text-transform: none; widows: 2; word-spacing: 0px; -webkit-text-stroke-width: 0px; white-space: nowrap; background-color: rgb(255, 255, 255); text-decoration-thickness: initial; text-decoration-style: initial; text-decoration-color: initial; display: inline !important; float: none;&quot;&gt;Palo Alto NGFW&lt;/span&gt;" style="text;whiteSpace=wrap;html=1;" parent="1" vertex="1">
          <mxGeometry x="-481.36" y="-13.46" width="111.24" height="23" as="geometry" />
        </mxCell>
        <mxCell id="3FIwbWI3e-DVImyxeN1U-284" value="&lt;b&gt;Amsterdam Site&lt;/b&gt;" style="sketch=0;outlineConnect=0;gradientColor=none;html=1;whiteSpace=wrap;fontSize=12;fontStyle=0;shape=mxgraph.aws4.group;grIcon=mxgraph.aws4.group_on_premise;strokeColor=#000000;fillColor=none;verticalAlign=top;align=left;spacingLeft=30;fontColor=#AAB7B8;dashed=0;" parent="1" vertex="1">
          <mxGeometry x="-1022" y="372" width="202" height="104" as="geometry" />
        </mxCell>
        <mxCell id="3FIwbWI3e-DVImyxeN1U-303" style="edgeStyle=orthogonalEdgeStyle;rounded=0;orthogonalLoop=1;jettySize=auto;html=1;exitX=1;exitY=0.5;exitDx=0;exitDy=0;entryX=0.003;entryY=0.48;entryDx=0;entryDy=0;entryPerimeter=0;curved=1;strokeColor=#0066CC;" parent="1" source="3FIwbWI3e-DVImyxeN1U-299" target="3FIwbWI3e-DVImyxeN1U-203" edge="1">
          <mxGeometry relative="1" as="geometry">
            <Array as="points">
              <mxPoint x="-239" y="-2" />
              <mxPoint x="-239" y="-200" />
            </Array>
          </mxGeometry>
        </mxCell>
        <mxCell id="3FIwbWI3e-DVImyxeN1U-304" style="edgeStyle=orthogonalEdgeStyle;rounded=0;orthogonalLoop=1;jettySize=auto;html=1;exitX=1;exitY=0.5;exitDx=0;exitDy=0;entryX=0.003;entryY=0.48;entryDx=0;entryDy=0;entryPerimeter=0;curved=1;strokeColor=#0066CC;" parent="1" source="3FIwbWI3e-DVImyxeN1U-174" target="3FIwbWI3e-DVImyxeN1U-203" edge="1">
          <mxGeometry relative="1" as="geometry" />
        </mxCell>
        <mxCell id="3FIwbWI3e-DVImyxeN1U-306" value="" style="rounded=0;whiteSpace=wrap;html=1;fillColor=none;" parent="1" vertex="1">
          <mxGeometry x="-552.03" y="282.16" width="242.07" height="66.08" as="geometry" />
        </mxCell>
        <mxCell id="3FIwbWI3e-DVImyxeN1U-309" value="" style="sketch=0;outlineConnect=0;fontColor=#232F3E;gradientColor=none;fillColor=#232F3D;strokeColor=none;dashed=0;verticalLabelPosition=bottom;verticalAlign=top;align=center;html=1;fontSize=12;fontStyle=0;aspect=fixed;pointerEvents=1;shape=mxgraph.aws4.generic_firewall;" parent="1" vertex="1">
          <mxGeometry x="-525" y="291.1600000000001" width="52.81" height="44.68" as="geometry" />
        </mxCell>
        <mxCell id="3FIwbWI3e-DVImyxeN1U-310" value="" style="rounded=0;whiteSpace=wrap;html=1;fillColor=none;" parent="1" vertex="1">
          <mxGeometry x="-538.88" y="409.5" width="215" height="144.5" as="geometry" />
        </mxCell>
        <mxCell id="3FIwbWI3e-DVImyxeN1U-311" value="" style="rounded=0;whiteSpace=wrap;html=1;fillColor=none;" parent="1" vertex="1">
          <mxGeometry x="-506.88" y="457" width="148" height="81.5" as="geometry" />
        </mxCell>
        <mxCell id="3FIwbWI3e-DVImyxeN1U-312" value="" style="image;aspect=fixed;html=1;points=[];align=center;fontSize=12;image=img/lib/azure2/networking/Application_Gateways.svg;" parent="1" vertex="1">
          <mxGeometry x="-481.88" y="462.5" width="37.5" height="37.5" as="geometry" />
        </mxCell>
        <mxCell id="3FIwbWI3e-DVImyxeN1U-313" value="" style="image;aspect=fixed;html=1;points=[];align=center;fontSize=12;image=img/lib/azure2/networking/Web_Application_Firewall_Policies_WAF.svg;" parent="1" vertex="1">
          <mxGeometry x="-440.88" y="466.5" width="34.5" height="34.5" as="geometry" />
        </mxCell>
        <mxCell id="3FIwbWI3e-DVImyxeN1U-314" value="Azure App gateway&lt;div&gt;with WAF&lt;/div&gt;" style="text;html=1;align=center;verticalAlign=middle;resizable=0;points=[];autosize=1;strokeColor=none;fillColor=none;" parent="1" vertex="1">
          <mxGeometry x="-493.38" y="498" width="121" height="41" as="geometry" />
        </mxCell>
        <mxCell id="3FIwbWI3e-DVImyxeN1U-315" value="" style="image;aspect=fixed;html=1;points=[];align=center;fontSize=12;image=img/lib/azure2/networking/Subnet.svg;" parent="1" vertex="1">
          <mxGeometry x="-532.88" y="418.5" width="30.06" height="18" as="geometry" />
        </mxCell>
        <mxCell id="3FIwbWI3e-DVImyxeN1U-316" value="App Gateway Subnet" style="text;html=1;align=center;verticalAlign=middle;resizable=0;points=[];autosize=1;strokeColor=none;fillColor=none;" parent="1" vertex="1">
          <mxGeometry x="-509.88" y="413.5" width="131" height="26" as="geometry" />
        </mxCell>
        <mxCell id="3FIwbWI3e-DVImyxeN1U-317" value="Virtual WAN HUB - NE" style="text;html=1;align=center;verticalAlign=middle;resizable=0;points=[];autosize=1;strokeColor=none;fillColor=none;" parent="1" vertex="1">
          <mxGeometry x="-542.51" y="234.19000000000005" width="139" height="26" as="geometry" />
        </mxCell>
        <mxCell id="3FIwbWI3e-DVImyxeN1U-318" value="" style="image;aspect=fixed;html=1;points=[];align=center;fontSize=12;image=img/lib/azure2/networking/Network_Security_Groups.svg;" parent="1" vertex="1">
          <mxGeometry x="-337.95" y="402" width="22.24" height="27" as="geometry" />
        </mxCell>
        <mxCell id="3FIwbWI3e-DVImyxeN1U-320" value="&lt;span style=&quot;color: rgb(0, 0, 0); font-family: Helvetica; font-size: 12px; font-style: normal; font-variant-ligatures: normal; font-variant-caps: normal; font-weight: 400; letter-spacing: normal; orphans: 2; text-align: center; text-indent: 0px; text-transform: none; widows: 2; word-spacing: 0px; -webkit-text-stroke-width: 0px; white-space: nowrap; background-color: rgb(255, 255, 255); text-decoration-thickness: initial; text-decoration-style: initial; text-decoration-color: initial; display: inline !important; float: none;&quot;&gt;Palo Alto NGFW&lt;/span&gt;" style="text;whiteSpace=wrap;html=1;" parent="1" vertex="1">
          <mxGeometry x="-459.99999999999994" y="302" width="111.24" height="23" as="geometry" />
        </mxCell>
        <mxCell id="3FIwbWI3e-DVImyxeN1U-326" style="edgeStyle=orthogonalEdgeStyle;rounded=0;orthogonalLoop=1;jettySize=auto;html=1;exitX=1;exitY=0.5;exitDx=0;exitDy=0;entryX=-0.024;entryY=0.333;entryDx=0;entryDy=0;entryPerimeter=0;curved=1;" parent="1" source="3FIwbWI3e-DVImyxeN1U-311" target="3FIwbWI3e-DVImyxeN1U-253" edge="1">
          <mxGeometry relative="1" as="geometry">
            <Array as="points">
              <mxPoint x="-258" y="498" />
              <mxPoint x="-258" y="279" />
            </Array>
          </mxGeometry>
        </mxCell>
        <mxCell id="f5eb5FvTXcw_JUoiwL4Y-1" value="" style="image;aspect=fixed;html=1;points=[];align=center;fontSize=12;image=img/lib/azure2/networking/Virtual_WAN_Hub.svg;" vertex="1" parent="1">
          <mxGeometry x="-580.3199999999999" y="-247.5" width="40.12" height="39.5" as="geometry" />
        </mxCell>
        <mxCell id="f5eb5FvTXcw_JUoiwL4Y-2" value="" style="image;aspect=fixed;html=1;points=[];align=center;fontSize=12;image=img/lib/azure2/networking/Virtual_WAN_Hub.svg;" vertex="1" parent="1">
          <mxGeometry x="-578.9999999999999" y="230.25" width="40.12" height="39.5" as="geometry" />
        </mxCell>
        <mxCell id="_STYDhPdlqANtVIS4i8s-1" style="edgeStyle=orthogonalEdgeStyle;rounded=0;orthogonalLoop=1;jettySize=auto;html=1;curved=1;strokeColor=#CC0000;" edge="1" parent="1" source="C4QQqJA0bCrASXAXiiGH-1" target="3FIwbWI3e-DVImyxeN1U-161">
          <mxGeometry relative="1" as="geometry">
            <Array as="points">
              <mxPoint x="-660" y="171" />
              <mxPoint x="-660" y="-55" />
            </Array>
          </mxGeometry>
        </mxCell>
        <mxCell id="_STYDhPdlqANtVIS4i8s-2" style="edgeStyle=orthogonalEdgeStyle;rounded=0;orthogonalLoop=1;jettySize=auto;html=1;entryX=0;entryY=0.5;entryDx=0;entryDy=0;strokeColor=#CC0000;curved=1;" edge="1" parent="1" source="C4QQqJA0bCrASXAXiiGH-1" target="3FIwbWI3e-DVImyxeN1U-305">
          <mxGeometry relative="1" as="geometry" />
        </mxCell>
        <mxCell id="_STYDhPdlqANtVIS4i8s-3" style="edgeStyle=orthogonalEdgeStyle;rounded=0;orthogonalLoop=1;jettySize=auto;html=1;entryX=0;entryY=0.5;entryDx=0;entryDy=0;curved=1;strokeColor=#0066CC;" edge="1" parent="1" source="C4QQqJA0bCrASXAXiiGH-1" target="3FIwbWI3e-DVImyxeN1U-299">
          <mxGeometry relative="1" as="geometry" />
        </mxCell>
        <mxCell id="_STYDhPdlqANtVIS4i8s-6" style="edgeStyle=orthogonalEdgeStyle;rounded=0;orthogonalLoop=1;jettySize=auto;html=1;entryX=0;entryY=0.25;entryDx=0;entryDy=0;curved=1;strokeColor=#0066CC;" edge="1" parent="1" source="C4QQqJA0bCrASXAXiiGH-1" target="3FIwbWI3e-DVImyxeN1U-306">
          <mxGeometry relative="1" as="geometry" />
        </mxCell>
        <mxCell id="C4QQqJA0bCrASXAXiiGH-1" value="Azure Virtual WAN" style="image;aspect=fixed;html=1;points=[];align=center;fontSize=12;image=img/lib/azure2/networking/Virtual_WANs.svg;" vertex="1" parent="1">
          <mxGeometry x="-770" y="134" width="75" height="73.84" as="geometry" />
        </mxCell>
        <mxCell id="aYCuUUTJRWDMGMji4acK-1" value="Internal user" style="sketch=0;outlineConnect=0;fontColor=#232F3E;gradientColor=none;strokeColor=#232F3E;fillColor=#ffffff;dashed=0;verticalLabelPosition=bottom;verticalAlign=top;align=center;html=1;fontSize=12;fontStyle=0;aspect=fixed;shape=mxgraph.aws4.resourceIcon;resIcon=mxgraph.aws4.user;" vertex="1" parent="1">
          <mxGeometry x="-976" y="405.62" width="44" height="44" as="geometry" />
        </mxCell>
        <mxCell id="aYCuUUTJRWDMGMji4acK-2" value="Internal user" style="sketch=0;outlineConnect=0;fontColor=#232F3E;gradientColor=none;strokeColor=#232F3E;fillColor=#ffffff;dashed=0;verticalLabelPosition=bottom;verticalAlign=top;align=center;html=1;fontSize=12;fontStyle=0;aspect=fixed;shape=mxgraph.aws4.resourceIcon;resIcon=mxgraph.aws4.user;" vertex="1" parent="1">
          <mxGeometry x="-969" y="-39" width="44" height="44" as="geometry" />
        </mxCell>
        <mxCell id="aYCuUUTJRWDMGMji4acK-3" value="External user" style="sketch=0;outlineConnect=0;fontColor=#232F3E;gradientColor=none;strokeColor=#232F3E;fillColor=#ffffff;dashed=0;verticalLabelPosition=bottom;verticalAlign=top;align=center;html=1;fontSize=12;fontStyle=0;aspect=fixed;shape=mxgraph.aws4.resourceIcon;resIcon=mxgraph.aws4.user;" vertex="1" parent="1">
          <mxGeometry x="-1206" y="76" width="44" height="44" as="geometry" />
        </mxCell>
        <mxCell id="aYCuUUTJRWDMGMji4acK-4" style="edgeStyle=orthogonalEdgeStyle;rounded=0;orthogonalLoop=1;jettySize=auto;html=1;entryX=0;entryY=0.642;entryDx=0;entryDy=0;entryPerimeter=0;curved=1;strokeColor=#0066CC;" edge="1" parent="1" source="aYCuUUTJRWDMGMji4acK-3" target="3FIwbWI3e-DVImyxeN1U-173">
          <mxGeometry relative="1" as="geometry" />
        </mxCell>
        <mxCell id="_STYDhPdlqANtVIS4i8s-4" style="edgeStyle=orthogonalEdgeStyle;rounded=0;orthogonalLoop=1;jettySize=auto;html=1;exitX=0.625;exitY=0.2;exitDx=0;exitDy=0;exitPerimeter=0;entryX=0.5;entryY=0.01;entryDx=0;entryDy=0;entryPerimeter=0;curved=1;strokeColor=#0066CC;" edge="1" parent="1" source="3FIwbWI3e-DVImyxeN1U-279" target="C4QQqJA0bCrASXAXiiGH-1">
          <mxGeometry relative="1" as="geometry">
            <Array as="points">
              <mxPoint x="-908" y="83" />
              <mxPoint x="-732" y="83" />
            </Array>
          </mxGeometry>
        </mxCell>
        <mxCell id="_STYDhPdlqANtVIS4i8s-7" style="edgeStyle=orthogonalEdgeStyle;rounded=0;orthogonalLoop=1;jettySize=auto;html=1;entryX=0.55;entryY=0.95;entryDx=0;entryDy=0;entryPerimeter=0;" edge="1" parent="1" source="3FIwbWI3e-DVImyxeN1U-284" target="3FIwbWI3e-DVImyxeN1U-279">
          <mxGeometry relative="1" as="geometry" />
        </mxCell>
        <mxCell id="_STYDhPdlqANtVIS4i8s-8" style="edgeStyle=orthogonalEdgeStyle;rounded=0;orthogonalLoop=1;jettySize=auto;html=1;entryX=0.4;entryY=0.1;entryDx=0;entryDy=0;entryPerimeter=0;" edge="1" parent="1" source="3FIwbWI3e-DVImyxeN1U-277" target="3FIwbWI3e-DVImyxeN1U-279">
          <mxGeometry relative="1" as="geometry" />
        </mxCell>
        <mxCell id="_STYDhPdlqANtVIS4i8s-9" style="edgeStyle=orthogonalEdgeStyle;rounded=0;orthogonalLoop=1;jettySize=auto;html=1;entryX=0.8;entryY=0.8;entryDx=0;entryDy=0;entryPerimeter=0;strokeColor=#0066CC;curved=1;" edge="1" parent="1" source="aYCuUUTJRWDMGMji4acK-1" target="3FIwbWI3e-DVImyxeN1U-279">
          <mxGeometry relative="1" as="geometry">
            <Array as="points">
              <mxPoint x="-880" y="428" />
            </Array>
          </mxGeometry>
        </mxCell>
        <mxCell id="ZXtBdrUwGQ-chWIM-ss5-10" value="" style="endArrow=classic;html=1;rounded=0;strokeColor=#CC0000;" edge="1" parent="1">
          <mxGeometry width="50" height="50" relative="1" as="geometry">
            <mxPoint x="-937.8299999999999" y="-331.5" as="sourcePoint" />
            <mxPoint x="-899.8299999999999" y="-331.5" as="targetPoint" />
          </mxGeometry>
        </mxCell>
        <mxCell id="ZXtBdrUwGQ-chWIM-ss5-11" value="Non HTTP" style="text;html=1;align=center;verticalAlign=middle;resizable=0;points=[];autosize=1;strokeColor=none;fillColor=none;" vertex="1" parent="1">
          <mxGeometry x="-902.8299999999999" y="-343.5" width="75" height="26" as="geometry" />
        </mxCell>
        <mxCell id="ZXtBdrUwGQ-chWIM-ss5-12" value="" style="endArrow=classic;html=1;rounded=0;strokeColor=#0066CC;" edge="1" parent="1">
          <mxGeometry width="50" height="50" relative="1" as="geometry">
            <mxPoint x="-936.8299999999999" y="-310.5" as="sourcePoint" />
            <mxPoint x="-898.8299999999999" y="-310.5" as="targetPoint" />
          </mxGeometry>
        </mxCell>
        <mxCell id="ZXtBdrUwGQ-chWIM-ss5-13" value="HTTP / HTTPS" style="text;html=1;align=center;verticalAlign=middle;resizable=0;points=[];autosize=1;strokeColor=none;fillColor=none;" vertex="1" parent="1">
          <mxGeometry x="-902.8299999999999" y="-323.5" width="98" height="26" as="geometry" />
        </mxCell>
        <mxCell id="ZXtBdrUwGQ-chWIM-ss5-14" value="&lt;b&gt;&lt;font style=&quot;font-size: 14px;&quot;&gt;Caption&lt;/font&gt;&lt;/b&gt;" style="text;html=1;align=center;verticalAlign=middle;resizable=0;points=[];autosize=1;strokeColor=none;fillColor=none;" vertex="1" parent="1">
          <mxGeometry x="-949" y="-380.5" width="70" height="29" as="geometry" />
        </mxCell>
        <mxCell id="ZXtBdrUwGQ-chWIM-ss5-15" value="" style="rounded=0;whiteSpace=wrap;html=1;fillColor=#78BE2D;strokeColor=#78BE2D;" vertex="1" parent="1">
          <mxGeometry x="-938" y="-293.5" width="35.17" height="6" as="geometry" />
        </mxCell>
        <mxCell id="ZXtBdrUwGQ-chWIM-ss5-16" value="Express route Circuit" style="text;html=1;align=center;verticalAlign=middle;resizable=0;points=[];autosize=1;strokeColor=none;fillColor=none;" vertex="1" parent="1">
          <mxGeometry x="-906.3299999999999" y="-303.5" width="129" height="26" as="geometry" />
        </mxCell>
        <mxCell id="ZXtBdrUwGQ-chWIM-ss5-19" value="" style="endArrow=classic;html=1;rounded=0;strokeColor=#9933FF;dashed=1;" edge="1" parent="1">
          <mxGeometry width="50" height="50" relative="1" as="geometry">
            <mxPoint x="-937.9999999999999" y="-265.12" as="sourcePoint" />
            <mxPoint x="-897" y="-265" as="targetPoint" />
          </mxGeometry>
        </mxCell>
        <mxCell id="ZXtBdrUwGQ-chWIM-ss5-20" value="Private Link (HTTP/S - Non HTTP/S)" style="text;html=1;align=center;verticalAlign=middle;resizable=0;points=[];autosize=1;strokeColor=none;fillColor=none;" vertex="1" parent="1">
          <mxGeometry x="-900" y="-277.5" width="213" height="26" as="geometry" />
        </mxCell>
        <mxCell id="z6q7Hnkd9B62FX1YcO3Y-1" value="Sendgrid" style="image;aspect=fixed;html=1;points=[];align=center;fontSize=12;image=img/lib/azure2/integration/SendGrid_Accounts.svg;" vertex="1" parent="1">
          <mxGeometry x="-585.7300000000001" y="-391.18" width="43.22" height="44" as="geometry" />
        </mxCell>
        <mxCell id="z6q7Hnkd9B62FX1YcO3Y-2" value="Azure Monitor" style="image;aspect=fixed;html=1;points=[];align=center;fontSize=12;image=img/lib/azure2/management_governance/Monitor.svg;" vertex="1" parent="1">
          <mxGeometry x="396" y="-389.37" width="40.37" height="40.37" as="geometry" />
        </mxCell>
        <mxCell id="z6q7Hnkd9B62FX1YcO3Y-5" value="Shared Environment" style="text;html=1;align=center;verticalAlign=middle;resizable=0;points=[];autosize=1;strokeColor=none;fillColor=none;" vertex="1" parent="1">
          <mxGeometry x="-890" y="-255" width="127" height="26" as="geometry" />
        </mxCell>
        <mxCell id="z6q7Hnkd9B62FX1YcO3Y-6" value="Instance - Zone 1" style="rounded=1;whiteSpace=wrap;html=1;" vertex="1" parent="1">
          <mxGeometry x="453" y="-139" width="126" height="15.25" as="geometry" />
        </mxCell>
        <mxCell id="z6q7Hnkd9B62FX1YcO3Y-8" value="Instance - Zone 2" style="rounded=1;whiteSpace=wrap;html=1;" vertex="1" parent="1">
          <mxGeometry x="453" y="-120" width="126" height="15.25" as="geometry" />
        </mxCell>
        <mxCell id="z6q7Hnkd9B62FX1YcO3Y-9" value="Instance - Zone 3" style="rounded=1;whiteSpace=wrap;html=1;" vertex="1" parent="1">
          <mxGeometry x="452" y="-101" width="126" height="15.25" as="geometry" />
        </mxCell>
        <mxCell id="z6q7Hnkd9B62FX1YcO3Y-10" value="Instance - Zone 1" style="rounded=1;whiteSpace=wrap;html=1;" vertex="1" parent="1">
          <mxGeometry x="464.5" y="306.75" width="126" height="15.25" as="geometry" />
        </mxCell>
        <mxCell id="z6q7Hnkd9B62FX1YcO3Y-11" value="Instance - Zone 2" style="rounded=1;whiteSpace=wrap;html=1;" vertex="1" parent="1">
          <mxGeometry x="465.5" y="326.75" width="126" height="15.25" as="geometry" />
        </mxCell>
        <mxCell id="z6q7Hnkd9B62FX1YcO3Y-12" value="Instance - Zone 3" style="rounded=1;whiteSpace=wrap;html=1;" vertex="1" parent="1">
          <mxGeometry x="464.5" y="346.75" width="126" height="15.25" as="geometry" />
        </mxCell>
        <mxCell id="1wu9023wwO59CsR-VFID-1" value="&lt;font face=&quot;Helvetica&quot; style=&quot;font-size: 24px;&quot;&gt;&lt;b&gt;&lt;span style=&quot;text-align: start;&quot;&gt;&lt;span style=&quot;line-height: 15.3333px;&quot; lang=&quot;EN-US&quot;&gt;&lt;font style=&quot;&quot;&gt;Websites - Replatform&amp;nbsp;&lt;/font&gt;&lt;/span&gt;&lt;/span&gt;&lt;span style=&quot;background-color: initial;&quot;&gt;via PaaS solutions with Repurchase and Retire options&lt;/span&gt;&lt;/b&gt;&lt;/font&gt;" style="text;html=1;align=center;verticalAlign=middle;whiteSpace=wrap;rounded=0;" vertex="1" parent="1">
          <mxGeometry x="-594" y="607" width="959" height="30" as="geometry" />
        </mxCell>
      </root>
    </mxGraphModel>
  </diagram>
  <diagram id="ZaeSvaFUrvOs8YkDyQwf" name="Digital Apps">
    <mxGraphModel dx="3373" dy="1624" grid="0" gridSize="10" guides="1" tooltips="1" connect="1" arrows="1" fold="1" page="0" pageScale="1" pageWidth="850" pageHeight="1100" math="0" shadow="0">
      <root>
        <mxCell id="0" />
        <mxCell id="1" parent="0" />
        <mxCell id="PRodXgToNW_c8nMUO1XP-23" value="" style="rounded=0;whiteSpace=wrap;html=1;fillColor=none;dashed=1;" parent="1" vertex="1">
          <mxGeometry x="-226" y="-280" width="619" height="423" as="geometry" />
        </mxCell>
        <mxCell id="ZXRNmtlKCsMHnlVj6Q2O-1" value="" style="rounded=0;whiteSpace=wrap;html=1;fillColor=none;" parent="1" vertex="1">
          <mxGeometry x="-210" y="-138" width="254.5" height="251" as="geometry" />
        </mxCell>
        <mxCell id="PRodXgToNW_c8nMUO1XP-6" value="" style="rounded=0;whiteSpace=wrap;html=1;fillColor=#ffe6cc;strokeColor=#d79b00;opacity=10;" parent="1" vertex="1">
          <mxGeometry x="429" y="-289" width="216" height="1022" as="geometry" />
        </mxCell>
        <mxCell id="PRodXgToNW_c8nMUO1XP-7" value="" style="rounded=0;whiteSpace=wrap;html=1;fillColor=none;dashed=1;strokeColor=#087724;" parent="1" vertex="1">
          <mxGeometry x="-196" y="-90" width="234.5" height="189.08" as="geometry" />
        </mxCell>
        <mxCell id="PRodXgToNW_c8nMUO1XP-9" value="Primary Region - West Europe" style="points=[[0,0],[0.25,0],[0.5,0],[0.75,0],[1,0],[1,0.25],[1,0.5],[1,0.75],[1,1],[0.75,1],[0.5,1],[0.25,1],[0,1],[0,0.75],[0,0.5],[0,0.25]];outlineConnect=0;gradientColor=none;html=1;whiteSpace=wrap;fontSize=12;fontStyle=0;container=0;pointerEvents=0;collapsible=0;recursiveResize=0;shape=mxgraph.aws4.group;grIcon=mxgraph.aws4.group_region;strokeColor=#00A4A6;fillColor=none;verticalAlign=top;align=left;spacingLeft=30;fontColor=#147EBA;dashed=1;" parent="1" vertex="1">
          <mxGeometry x="-612" y="-301" width="1278" height="459" as="geometry" />
        </mxCell>
        <mxCell id="PRodXgToNW_c8nMUO1XP-24" value="" style="image;aspect=fixed;html=1;points=[];align=center;fontSize=12;image=img/lib/azure2/networking/Virtual_Networks.svg;" parent="1" vertex="1">
          <mxGeometry x="-219" y="-274" width="31.83" height="19" as="geometry" />
        </mxCell>
        <mxCell id="PRodXgToNW_c8nMUO1XP-25" value="Spoke - Website Factory WE" style="text;html=1;align=center;verticalAlign=middle;resizable=0;points=[];autosize=1;strokeColor=none;fillColor=none;" parent="1" vertex="1">
          <mxGeometry x="-186" y="-277.5" width="172" height="26" as="geometry" />
        </mxCell>
        <mxCell id="PRodXgToNW_c8nMUO1XP-26" value="" style="rounded=0;whiteSpace=wrap;html=1;fillColor=none;" parent="1" vertex="1">
          <mxGeometry x="112" y="-251.5" width="242" height="103" as="geometry" />
        </mxCell>
        <mxCell id="PRodXgToNW_c8nMUO1XP-27" value="" style="rounded=0;whiteSpace=wrap;html=1;fillColor=none;" parent="1" vertex="1">
          <mxGeometry x="54" y="-138" width="310" height="270" as="geometry" />
        </mxCell>
        <mxCell id="PRodXgToNW_c8nMUO1XP-28" value="" style="image;aspect=fixed;html=1;points=[];align=center;fontSize=12;image=img/lib/azure2/networking/Subnet.svg;" parent="1" vertex="1">
          <mxGeometry x="62" y="-130" width="30.06" height="18" as="geometry" />
        </mxCell>
        <mxCell id="PRodXgToNW_c8nMUO1XP-29" value="PE subnet" style="text;html=1;align=center;verticalAlign=middle;resizable=0;points=[];autosize=1;strokeColor=none;fillColor=none;" parent="1" vertex="1">
          <mxGeometry x="86.49999999999994" y="-134" width="73" height="26" as="geometry" />
        </mxCell>
        <mxCell id="PRodXgToNW_c8nMUO1XP-30" value="App service integration subnet" style="text;html=1;align=center;verticalAlign=middle;resizable=0;points=[];autosize=1;strokeColor=none;fillColor=none;" parent="1" vertex="1">
          <mxGeometry x="143.49999999999994" y="-246.5" width="179" height="26" as="geometry" />
        </mxCell>
        <mxCell id="PRodXgToNW_c8nMUO1XP-31" value="" style="image;aspect=fixed;html=1;points=[];align=center;fontSize=12;image=img/lib/azure2/networking/Subnet.svg;" parent="1" vertex="1">
          <mxGeometry x="115.82999999999998" y="-242.5" width="30.06" height="18" as="geometry" />
        </mxCell>
        <mxCell id="PRodXgToNW_c8nMUO1XP-32" value="Database PE" style="image;aspect=fixed;html=1;points=[];align=center;fontSize=12;image=img/lib/azure2/other/Private_Endpoints.svg;" parent="1" vertex="1">
          <mxGeometry x="264.99999999999994" y="-128.5" width="36" height="34.24" as="geometry" />
        </mxCell>
        <mxCell id="PRodXgToNW_c8nMUO1XP-33" value="Configuration PE" style="image;aspect=fixed;html=1;points=[];align=center;fontSize=12;image=img/lib/azure2/other/Private_Endpoints.svg;" parent="1" vertex="1">
          <mxGeometry x="264.99999999999994" y="-62.000000000000014" width="36" height="34.24" as="geometry" />
        </mxCell>
        <mxCell id="PRodXgToNW_c8nMUO1XP-36" value="Virtual Interfaces" style="text;html=1;align=center;verticalAlign=middle;resizable=0;points=[];autosize=1;strokeColor=none;fillColor=none;" parent="1" vertex="1">
          <mxGeometry x="193" y="-182" width="108" height="26" as="geometry" />
        </mxCell>
        <mxCell id="PRodXgToNW_c8nMUO1XP-39" value="" style="image;sketch=0;aspect=fixed;html=1;points=[];align=center;fontSize=12;image=img/lib/mscae/NetworkInterfaceCard.svg;" parent="1" vertex="1">
          <mxGeometry x="226.66" y="-216" width="31.68" height="36" as="geometry" />
        </mxCell>
        <mxCell id="PRodXgToNW_c8nMUO1XP-40" value="" style="rounded=0;whiteSpace=wrap;html=1;fillColor=none;" parent="1" vertex="1">
          <mxGeometry x="-209" y="-247" width="260" height="97" as="geometry" />
        </mxCell>
        <mxCell id="PRodXgToNW_c8nMUO1XP-42" value="" style="image;aspect=fixed;html=1;points=[];align=center;fontSize=12;image=img/lib/azure2/networking/Subnet.svg;" parent="1" vertex="1">
          <mxGeometry x="-187.17000000000002" y="-243" width="30.06" height="18" as="geometry" />
        </mxCell>
        <mxCell id="PRodXgToNW_c8nMUO1XP-43" value="APIM Subnet" style="text;html=1;align=center;verticalAlign=middle;resizable=0;points=[];autosize=1;strokeColor=none;fillColor=none;" parent="1" vertex="1">
          <mxGeometry x="-128.11000000000007" y="-247.5" width="89" height="26" as="geometry" />
        </mxCell>
        <mxCell id="ZXRNmtlKCsMHnlVj6Q2O-14" style="edgeStyle=orthogonalEdgeStyle;rounded=0;orthogonalLoop=1;jettySize=auto;html=1;" parent="1" source="PRodXgToNW_c8nMUO1XP-44" target="ZXRNmtlKCsMHnlVj6Q2O-13" edge="1">
          <mxGeometry relative="1" as="geometry">
            <Array as="points">
              <mxPoint x="-46" y="-199" />
            </Array>
          </mxGeometry>
        </mxCell>
        <mxCell id="PRodXgToNW_c8nMUO1XP-44" value="API Management" style="image;aspect=fixed;html=1;points=[];align=center;fontSize=12;image=img/lib/azure2/app_services/API_Management_Services.svg;" parent="1" vertex="1">
          <mxGeometry x="-124.11" y="-216" width="36.83" height="34" as="geometry" />
        </mxCell>
        <mxCell id="PRodXgToNW_c8nMUO1XP-45" value="AZURE PUBLIC PAAS" style="rounded=0;whiteSpace=wrap;html=1;fillColor=#fff2cc;strokeColor=#d6b656;fontStyle=1" parent="1" vertex="1">
          <mxGeometry x="429" y="-287" width="216" height="39" as="geometry" />
        </mxCell>
        <mxCell id="PRodXgToNW_c8nMUO1XP-48" style="edgeStyle=orthogonalEdgeStyle;rounded=0;orthogonalLoop=1;jettySize=auto;html=1;entryX=0.065;entryY=0.55;entryDx=0;entryDy=0;entryPerimeter=0;dashed=1;strokeColor=#9933FF;" parent="1" source="PRodXgToNW_c8nMUO1XP-39" target="PRodXgToNW_c8nMUO1XP-32" edge="1">
          <mxGeometry relative="1" as="geometry">
            <Array as="points">
              <mxPoint x="183" y="-198" />
              <mxPoint x="183" y="-110" />
            </Array>
          </mxGeometry>
        </mxCell>
        <mxCell id="PRodXgToNW_c8nMUO1XP-49" style="edgeStyle=orthogonalEdgeStyle;rounded=0;orthogonalLoop=1;jettySize=auto;html=1;strokeColor=#9933FF;dashed=1;entryX=0.065;entryY=0.701;entryDx=0;entryDy=0;entryPerimeter=0;" parent="1" source="PRodXgToNW_c8nMUO1XP-39" target="PRodXgToNW_c8nMUO1XP-33" edge="1">
          <mxGeometry relative="1" as="geometry">
            <mxPoint x="269" y="-29" as="targetPoint" />
            <Array as="points">
              <mxPoint x="162" y="-198" />
              <mxPoint x="162" y="-38" />
            </Array>
          </mxGeometry>
        </mxCell>
        <mxCell id="PRodXgToNW_c8nMUO1XP-51" value="Azure Keyvault WE" style="image;aspect=fixed;html=1;points=[];align=center;fontSize=12;image=img/lib/azure2/security/Key_Vaults.svg;" parent="1" vertex="1">
          <mxGeometry x="521.88" y="-145.25" width="40" height="40" as="geometry" />
        </mxCell>
        <mxCell id="PRodXgToNW_c8nMUO1XP-52" style="edgeStyle=orthogonalEdgeStyle;rounded=0;orthogonalLoop=1;jettySize=auto;html=1;entryX=0.091;entryY=0.538;entryDx=0;entryDy=0;entryPerimeter=0;strokeColor=#9933FF;dashed=1;" parent="1" target="TD_nTOqRsqrg66QejPlq-1" edge="1">
          <mxGeometry relative="1" as="geometry">
            <Array as="points">
              <mxPoint x="415" y="-108" />
              <mxPoint x="415" y="-193" />
            </Array>
            <mxPoint x="295" y="-108" as="sourcePoint" />
            <mxPoint x="556.3384999999998" y="-38.66300000000001" as="targetPoint" />
          </mxGeometry>
        </mxCell>
        <mxCell id="PRodXgToNW_c8nMUO1XP-53" style="edgeStyle=orthogonalEdgeStyle;rounded=0;orthogonalLoop=1;jettySize=auto;html=1;entryX=0.015;entryY=0.608;entryDx=0;entryDy=0;entryPerimeter=0;strokeColor=none;dashed=1;" parent="1" source="PRodXgToNW_c8nMUO1XP-33" target="PRodXgToNW_c8nMUO1XP-51" edge="1">
          <mxGeometry relative="1" as="geometry">
            <Array as="points">
              <mxPoint x="404" y="-34" />
              <mxPoint x="404" y="48" />
            </Array>
          </mxGeometry>
        </mxCell>
        <mxCell id="PRodXgToNW_c8nMUO1XP-54" value="" style="image;aspect=fixed;html=1;points=[];align=center;fontSize=12;image=img/lib/azure2/networking/Network_Security_Groups.svg;" parent="1" vertex="1">
          <mxGeometry x="35.76" y="-259.5" width="22.24" height="27" as="geometry" />
        </mxCell>
        <mxCell id="PRodXgToNW_c8nMUO1XP-55" value="" style="image;aspect=fixed;html=1;points=[];align=center;fontSize=12;image=img/lib/azure2/networking/Network_Security_Groups.svg;" parent="1" vertex="1">
          <mxGeometry x="337" y="-261.5" width="22.24" height="27" as="geometry" />
        </mxCell>
        <mxCell id="PRodXgToNW_c8nMUO1XP-56" value="" style="image;aspect=fixed;html=1;points=[];align=center;fontSize=12;image=img/lib/azure2/networking/Network_Security_Groups.svg;" parent="1" vertex="1">
          <mxGeometry x="351" y="-148.5" width="22.24" height="27" as="geometry" />
        </mxCell>
        <mxCell id="PRodXgToNW_c8nMUO1XP-96" style="edgeStyle=orthogonalEdgeStyle;rounded=0;orthogonalLoop=1;jettySize=auto;html=1;entryX=0.951;entryY=0.486;entryDx=0;entryDy=0;entryPerimeter=0;exitX=0.963;exitY=0.538;exitDx=0;exitDy=0;exitPerimeter=0;strokeColor=#CC0000;" parent="1" source="TD_nTOqRsqrg66QejPlq-1" target="DcGfwdizydH5qtudKik3-44" edge="1">
          <mxGeometry relative="1" as="geometry">
            <Array as="points">
              <mxPoint x="808" y="-193" />
              <mxPoint x="808" y="276" />
            </Array>
            <mxPoint x="593.75" y="-41.299999999999955" as="sourcePoint" />
            <mxPoint x="595.3394000000003" y="385.01784" as="targetPoint" />
          </mxGeometry>
        </mxCell>
        <mxCell id="PRodXgToNW_c8nMUO1XP-97" value="&lt;font style=&quot;font-size: 14px;&quot;&gt;Geo Replication&lt;/font&gt;" style="edgeLabel;html=1;align=center;verticalAlign=middle;resizable=0;points=[];" parent="PRodXgToNW_c8nMUO1XP-96" vertex="1" connectable="0">
          <mxGeometry x="-0.0099" relative="1" as="geometry">
            <mxPoint as="offset" />
          </mxGeometry>
        </mxCell>
        <mxCell id="PRodXgToNW_c8nMUO1XP-98" value="" style="rounded=0;whiteSpace=wrap;html=1;fillColor=#e1d5e7;strokeColor=#9673a6;opacity=10;" parent="1" vertex="1">
          <mxGeometry x="-608" y="-404" width="1462" height="80" as="geometry" />
        </mxCell>
        <mxCell id="PRodXgToNW_c8nMUO1XP-144" value="" style="image;aspect=fixed;html=1;points=[];align=center;fontSize=12;image=img/lib/azure2/other/Container_App_Environments.svg;" parent="1" vertex="1">
          <mxGeometry x="-189.44" y="-86.99999999999999" width="24.5" height="24.5" as="geometry" />
        </mxCell>
        <mxCell id="57aWWDc8VYqkWvpw1wQr-1" value="Frontend" style="image;aspect=fixed;html=1;points=[];align=center;fontSize=12;image=img/lib/azure2/other/Worker_Container_App.svg;" parent="1" vertex="1">
          <mxGeometry x="-112.85999999999999" y="-47.999999999999986" width="41.21" height="40" as="geometry" />
        </mxCell>
        <mxCell id="TD_nTOqRsqrg66QejPlq-1" value="" style="image;aspect=fixed;html=1;points=[];align=center;fontSize=12;image=img/lib/azure2/databases/Azure_Database_PostgreSQL_Server.svg;" parent="1" vertex="1">
          <mxGeometry x="520" y="-220.5" width="37.85" height="50.46" as="geometry" />
        </mxCell>
        <mxCell id="TD_nTOqRsqrg66QejPlq-3" value="Azure storage" style="image;aspect=fixed;html=1;points=[];align=center;fontSize=12;image=img/lib/azure2/storage/Storage_Accounts.svg;" parent="1" vertex="1">
          <mxGeometry x="527" y="-59.88000000000001" width="37.5" height="30" as="geometry" />
        </mxCell>
        <mxCell id="TD_nTOqRsqrg66QejPlq-4" value="Storage PE" style="image;aspect=fixed;html=1;points=[];align=center;fontSize=12;image=img/lib/azure2/other/Private_Endpoints.svg;" parent="1" vertex="1">
          <mxGeometry x="264.99999999999994" y="3.9999999999999876" width="36" height="34.24" as="geometry" />
        </mxCell>
        <mxCell id="TD_nTOqRsqrg66QejPlq-5" style="edgeStyle=orthogonalEdgeStyle;rounded=0;orthogonalLoop=1;jettySize=auto;html=1;strokeColor=#9933FF;dashed=1;entryX=-0.037;entryY=0.612;entryDx=0;entryDy=0;entryPerimeter=0;exitX=-0.094;exitY=0.426;exitDx=0;exitDy=0;exitPerimeter=0;" parent="1" source="PRodXgToNW_c8nMUO1XP-39" target="TD_nTOqRsqrg66QejPlq-4" edge="1">
          <mxGeometry relative="1" as="geometry">
            <mxPoint x="279" y="-19" as="targetPoint" />
            <Array as="points">
              <mxPoint x="224" y="-198" />
              <mxPoint x="162" y="-198" />
              <mxPoint x="162" y="26" />
            </Array>
            <mxPoint x="218" y="-201" as="sourcePoint" />
          </mxGeometry>
        </mxCell>
        <mxCell id="TD_nTOqRsqrg66QejPlq-6" style="edgeStyle=orthogonalEdgeStyle;rounded=0;orthogonalLoop=1;jettySize=auto;html=1;entryX=0.103;entryY=0.306;entryDx=0;entryDy=0;entryPerimeter=0;dashed=1;strokeColor=#9933FF;exitX=0.954;exitY=0.555;exitDx=0;exitDy=0;exitPerimeter=0;" parent="1" source="PRodXgToNW_c8nMUO1XP-33" target="PRodXgToNW_c8nMUO1XP-51" edge="1">
          <mxGeometry relative="1" as="geometry">
            <mxPoint x="305" y="-34.90000000000009" as="sourcePoint" />
            <mxPoint x="569.9200000000001" y="-41.680000000000064" as="targetPoint" />
            <Array as="points">
              <mxPoint x="446" y="-42" />
              <mxPoint x="446" y="-133" />
            </Array>
          </mxGeometry>
        </mxCell>
        <mxCell id="ZXRNmtlKCsMHnlVj6Q2O-2" value="" style="image;aspect=fixed;html=1;points=[];align=center;fontSize=12;image=img/lib/azure2/networking/Subnet.svg;" parent="1" vertex="1">
          <mxGeometry x="-203" y="-130" width="30.06" height="18" as="geometry" />
        </mxCell>
        <mxCell id="ZXRNmtlKCsMHnlVj6Q2O-3" value="Apps Subnet" style="text;html=1;align=center;verticalAlign=middle;resizable=0;points=[];autosize=1;strokeColor=none;fillColor=none;" parent="1" vertex="1">
          <mxGeometry x="-176.00000000000006" y="-134" width="87" height="26" as="geometry" />
        </mxCell>
        <mxCell id="ZXRNmtlKCsMHnlVj6Q2O-7" value="Backend" style="image;aspect=fixed;html=1;points=[];align=center;fontSize=12;image=img/lib/azure2/other/Worker_Container_App.svg;" parent="1" vertex="1">
          <mxGeometry x="-176" y="31.080000000000005" width="41.21" height="40" as="geometry" />
        </mxCell>
        <mxCell id="ZXRNmtlKCsMHnlVj6Q2O-8" style="edgeStyle=orthogonalEdgeStyle;rounded=0;orthogonalLoop=1;jettySize=auto;html=1;entryX=0.421;entryY=-0.014;entryDx=0;entryDy=0;entryPerimeter=0;" parent="1" source="57aWWDc8VYqkWvpw1wQr-1" target="ZXRNmtlKCsMHnlVj6Q2O-7" edge="1">
          <mxGeometry relative="1" as="geometry" />
        </mxCell>
        <mxCell id="ZXRNmtlKCsMHnlVj6Q2O-11" value="&lt;span style=&quot;color: rgb(0, 0, 0); font-family: Helvetica; font-size: 12px; font-style: normal; font-variant-ligatures: normal; font-variant-caps: normal; font-weight: 400; letter-spacing: normal; orphans: 2; text-align: center; text-indent: 0px; text-transform: none; widows: 2; word-spacing: 0px; -webkit-text-stroke-width: 0px; white-space: normal; background-color: rgb(255, 255, 255); text-decoration-thickness: initial; text-decoration-style: initial; text-decoration-color: initial; display: inline !important; float: none;&quot;&gt;ACE&lt;/span&gt;" style="text;whiteSpace=wrap;html=1;" parent="1" vertex="1">
          <mxGeometry x="-162" y="-89" width="36" height="27" as="geometry" />
        </mxCell>
        <mxCell id="ZXRNmtlKCsMHnlVj6Q2O-12" style="edgeStyle=orthogonalEdgeStyle;rounded=0;orthogonalLoop=1;jettySize=auto;html=1;entryX=0.074;entryY=0.241;entryDx=0;entryDy=0;entryPerimeter=0;curved=1;strokeColor=#9933FF;dashed=1;" parent="1" source="ZXRNmtlKCsMHnlVj6Q2O-7" target="PRodXgToNW_c8nMUO1XP-39" edge="1">
          <mxGeometry relative="1" as="geometry">
            <Array as="points">
              <mxPoint x="26" y="51" />
              <mxPoint x="26" y="-207" />
            </Array>
          </mxGeometry>
        </mxCell>
        <mxCell id="ZXRNmtlKCsMHnlVj6Q2O-13" value="Internal Ingress Proxy" style="rounded=1;whiteSpace=wrap;html=1;" parent="1" vertex="1">
          <mxGeometry x="-104" y="-101" width="120" height="35" as="geometry" />
        </mxCell>
        <mxCell id="ZXRNmtlKCsMHnlVj6Q2O-15" style="edgeStyle=orthogonalEdgeStyle;rounded=0;orthogonalLoop=1;jettySize=auto;html=1;exitX=0.5;exitY=1;exitDx=0;exitDy=0;entryX=0.919;entryY=0.517;entryDx=0;entryDy=0;entryPerimeter=0;" parent="1" source="ZXRNmtlKCsMHnlVj6Q2O-13" target="57aWWDc8VYqkWvpw1wQr-1" edge="1">
          <mxGeometry relative="1" as="geometry">
            <Array as="points">
              <mxPoint x="-44" y="-27" />
            </Array>
          </mxGeometry>
        </mxCell>
        <mxCell id="0jSKjweocW1X4mDkXYVK-1" value="Azure Container Registry" style="image;aspect=fixed;html=1;points=[];align=center;fontSize=12;image=img/lib/azure2/containers/Container_Registries.svg;" parent="1" vertex="1">
          <mxGeometry x="524" y="19" width="50.16" height="45" as="geometry" />
        </mxCell>
        <mxCell id="0jSKjweocW1X4mDkXYVK-2" value="ACR PE" style="image;aspect=fixed;html=1;points=[];align=center;fontSize=12;image=img/lib/azure2/other/Private_Endpoints.svg;" parent="1" vertex="1">
          <mxGeometry x="264.99999999999994" y="67.99999999999999" width="36" height="34.24" as="geometry" />
        </mxCell>
        <mxCell id="0jSKjweocW1X4mDkXYVK-4" style="edgeStyle=orthogonalEdgeStyle;rounded=0;orthogonalLoop=1;jettySize=auto;html=1;entryX=0.007;entryY=0.578;entryDx=0;entryDy=0;entryPerimeter=0;strokeColor=#9933FF;dashed=1;" parent="1" source="0jSKjweocW1X4mDkXYVK-2" target="0jSKjweocW1X4mDkXYVK-1" edge="1">
          <mxGeometry relative="1" as="geometry">
            <Array as="points">
              <mxPoint x="451" y="85" />
              <mxPoint x="451" y="45" />
            </Array>
          </mxGeometry>
        </mxCell>
        <mxCell id="0jSKjweocW1X4mDkXYVK-5" style="edgeStyle=orthogonalEdgeStyle;rounded=0;orthogonalLoop=1;jettySize=auto;html=1;entryX=0.009;entryY=0.429;entryDx=0;entryDy=0;entryPerimeter=0;strokeColor=#9933FF;dashed=1;" parent="1" source="TD_nTOqRsqrg66QejPlq-4" target="TD_nTOqRsqrg66QejPlq-3" edge="1">
          <mxGeometry relative="1" as="geometry">
            <Array as="points">
              <mxPoint x="472" y="21" />
              <mxPoint x="472" y="-47" />
            </Array>
          </mxGeometry>
        </mxCell>
        <mxCell id="0jSKjweocW1X4mDkXYVK-6" style="edgeStyle=orthogonalEdgeStyle;rounded=0;orthogonalLoop=1;jettySize=auto;html=1;entryX=0.009;entryY=0.701;entryDx=0;entryDy=0;entryPerimeter=0;dashed=1;strokeColor=#9933FF;" parent="1" source="PRodXgToNW_c8nMUO1XP-39" target="0jSKjweocW1X4mDkXYVK-2" edge="1">
          <mxGeometry relative="1" as="geometry">
            <Array as="points">
              <mxPoint x="162" y="-198" />
              <mxPoint x="162" y="92" />
            </Array>
          </mxGeometry>
        </mxCell>
        <mxCell id="liZkHH58fdioC8Mj_q43-2" value="" style="shape=cylinder3;whiteSpace=wrap;html=1;boundedLbl=1;backgroundOutline=1;size=4.22437139198243;rotation=75;fillColor=#78be2d;strokeColor=#78BE2D;" vertex="1" parent="1">
          <mxGeometry x="-832" y="91.18000000000004" width="4.11" height="232" as="geometry" />
        </mxCell>
        <mxCell id="liZkHH58fdioC8Mj_q43-3" value="" style="rounded=0;whiteSpace=wrap;html=1;fillColor=none;" vertex="1" parent="1">
          <mxGeometry x="-599" y="-231.82" width="306" height="322" as="geometry" />
        </mxCell>
        <mxCell id="liZkHH58fdioC8Mj_q43-4" value="" style="rounded=0;whiteSpace=wrap;html=1;fillColor=none;" vertex="1" parent="1">
          <mxGeometry x="-572.0700000000002" y="-13.819999999999993" width="246.07" height="66.08" as="geometry" />
        </mxCell>
        <mxCell id="liZkHH58fdioC8Mj_q43-5" value="" style="sketch=0;outlineConnect=0;fontColor=#232F3E;gradientColor=none;fillColor=#232F3D;strokeColor=none;dashed=0;verticalLabelPosition=bottom;verticalAlign=top;align=center;html=1;fontSize=12;fontStyle=0;aspect=fixed;pointerEvents=1;shape=mxgraph.aws4.generic_firewall;" vertex="1" parent="1">
          <mxGeometry x="-559.24" y="-3.119999999999976" width="52.81" height="44.68" as="geometry" />
        </mxCell>
        <mxCell id="liZkHH58fdioC8Mj_q43-6" value="" style="rounded=0;whiteSpace=wrap;html=1;fillColor=none;" vertex="1" parent="1">
          <mxGeometry x="-569.1700000000001" y="-176.32" width="237.17" height="144.5" as="geometry" />
        </mxCell>
        <mxCell id="liZkHH58fdioC8Mj_q43-7" style="edgeStyle=orthogonalEdgeStyle;rounded=0;orthogonalLoop=1;jettySize=auto;html=1;entryX=0;entryY=0.25;entryDx=0;entryDy=0;exitX=0.52;exitY=-0.05;exitDx=0;exitDy=0;exitPerimeter=0;strokeColor=#0066CC;" edge="1" parent="1" source="liZkHH58fdioC8Mj_q43-9" target="liZkHH58fdioC8Mj_q43-10">
          <mxGeometry relative="1" as="geometry">
            <Array as="points">
              <mxPoint x="-1084" y="-103.82" />
              <mxPoint x="-537" y="-103.82" />
            </Array>
          </mxGeometry>
        </mxCell>
        <mxCell id="liZkHH58fdioC8Mj_q43-8" style="edgeStyle=orthogonalEdgeStyle;rounded=0;orthogonalLoop=1;jettySize=auto;html=1;entryX=0;entryY=0.5;entryDx=0;entryDy=0;dashed=1;dashPattern=8 8;strokeColor=#0066CC;" edge="1" parent="1" source="liZkHH58fdioC8Mj_q43-9" target="DcGfwdizydH5qtudKik3-66">
          <mxGeometry relative="1" as="geometry">
            <Array as="points">
              <mxPoint x="-1089" y="492" />
              <mxPoint x="-688" y="492" />
              <mxPoint x="-688" y="490" />
            </Array>
            <mxPoint x="-520.8800000000001" y="518.9300000000003" as="targetPoint" />
          </mxGeometry>
        </mxCell>
        <mxCell id="liZkHH58fdioC8Mj_q43-9" value="Azure Front Door" style="image;aspect=fixed;html=1;points=[];align=center;fontSize=12;image=img/lib/azure2/networking/Front_Doors.svg;" vertex="1" parent="1">
          <mxGeometry x="-1119" y="181.18000000000004" width="68" height="60" as="geometry" />
        </mxCell>
        <mxCell id="liZkHH58fdioC8Mj_q43-10" value="" style="rounded=0;whiteSpace=wrap;html=1;fillColor=none;" vertex="1" parent="1">
          <mxGeometry x="-528.1700000000001" y="-124.82" width="164.17" height="81.5" as="geometry" />
        </mxCell>
        <mxCell id="liZkHH58fdioC8Mj_q43-11" value="" style="image;aspect=fixed;html=1;points=[];align=center;fontSize=12;image=img/lib/azure2/networking/Application_Gateways.svg;" vertex="1" parent="1">
          <mxGeometry x="-512.1700000000001" y="-123.32" width="37.5" height="37.5" as="geometry" />
        </mxCell>
        <mxCell id="liZkHH58fdioC8Mj_q43-12" value="" style="image;aspect=fixed;html=1;points=[];align=center;fontSize=12;image=img/lib/azure2/networking/Web_Application_Firewall_Policies_WAF.svg;" vertex="1" parent="1">
          <mxGeometry x="-471.1700000000001" y="-119.32" width="34.5" height="34.5" as="geometry" />
        </mxCell>
        <mxCell id="liZkHH58fdioC8Mj_q43-13" value="Azure App gateway&lt;div&gt;with WAF&lt;/div&gt;" style="text;html=1;align=center;verticalAlign=middle;resizable=0;points=[];autosize=1;strokeColor=none;fillColor=none;" vertex="1" parent="1">
          <mxGeometry x="-523.6700000000001" y="-87.82" width="121" height="41" as="geometry" />
        </mxCell>
        <mxCell id="liZkHH58fdioC8Mj_q43-14" value="" style="image;aspect=fixed;html=1;points=[];align=center;fontSize=12;image=img/lib/azure2/networking/Subnet.svg;" vertex="1" parent="1">
          <mxGeometry x="-563.1700000000001" y="-167.32" width="30.06" height="18" as="geometry" />
        </mxCell>
        <mxCell id="liZkHH58fdioC8Mj_q43-15" value="App Gateway Subnet" style="text;html=1;align=center;verticalAlign=middle;resizable=0;points=[];autosize=1;strokeColor=none;fillColor=none;" vertex="1" parent="1">
          <mxGeometry x="-540.1700000000001" y="-172.32" width="131" height="26" as="geometry" />
        </mxCell>
        <mxCell id="liZkHH58fdioC8Mj_q43-16" value="Virtual WAN HUB - WE" style="text;html=1;align=center;verticalAlign=middle;resizable=0;points=[];autosize=1;strokeColor=none;fillColor=none;" vertex="1" parent="1">
          <mxGeometry x="-560.51" y="-222.13" width="141" height="26" as="geometry" />
        </mxCell>
        <mxCell id="liZkHH58fdioC8Mj_q43-17" value="" style="rounded=0;whiteSpace=wrap;html=1;fillColor=none;dashed=1;strokeColor=#087724;" vertex="1" parent="1">
          <mxGeometry x="-953.3299999999999" y="-227.82" width="46.33" height="11" as="geometry" />
        </mxCell>
        <mxCell id="liZkHH58fdioC8Mj_q43-18" value="" style="image;aspect=fixed;html=1;points=[];align=center;fontSize=12;image=img/lib/azure2/networking/Network_Security_Groups.svg;" vertex="1" parent="1">
          <mxGeometry x="-368.24" y="-183.82" width="22.24" height="27" as="geometry" />
        </mxCell>
        <mxCell id="liZkHH58fdioC8Mj_q43-20" value="&lt;b&gt;Saint-Nolff Site&lt;/b&gt;" style="sketch=0;outlineConnect=0;gradientColor=none;html=1;whiteSpace=wrap;fontSize=12;fontStyle=0;shape=mxgraph.aws4.group;grIcon=mxgraph.aws4.group_on_premise;strokeColor=#000000;fillColor=none;verticalAlign=top;align=left;spacingLeft=30;fontColor=#AAB7B8;dashed=0;" vertex="1" parent="1">
          <mxGeometry x="-1050" y="-44.81999999999999" width="186" height="106.74" as="geometry" />
        </mxCell>
        <mxCell id="liZkHH58fdioC8Mj_q43-21" value="ADM MPLS Cloud" style="ellipse;shape=cloud;whiteSpace=wrap;html=1;" vertex="1" parent="1">
          <mxGeometry x="-1022" y="124.18000000000004" width="160" height="160.62" as="geometry" />
        </mxCell>
        <mxCell id="liZkHH58fdioC8Mj_q43-22" value="Express Route" style="image;aspect=fixed;html=1;points=[];align=center;fontSize=12;image=img/lib/azure2/networking/ExpressRoute_Circuits.svg;" vertex="1" parent="1">
          <mxGeometry x="-843" y="229.01999999999995" width="33" height="30.17" as="geometry" />
        </mxCell>
        <mxCell id="liZkHH58fdioC8Mj_q43-23" value="&lt;span style=&quot;color: rgb(0, 0, 0); font-family: Helvetica; font-size: 12px; font-style: normal; font-variant-ligatures: normal; font-variant-caps: normal; font-weight: 400; letter-spacing: normal; orphans: 2; text-align: center; text-indent: 0px; text-transform: none; widows: 2; word-spacing: 0px; -webkit-text-stroke-width: 0px; white-space: nowrap; background-color: rgb(255, 255, 255); text-decoration-thickness: initial; text-decoration-style: initial; text-decoration-color: initial; display: inline !important; float: none;&quot;&gt;Palo Alto NGFW&lt;/span&gt;" style="text;whiteSpace=wrap;html=1;" vertex="1" parent="1">
          <mxGeometry x="-495.3600000000001" y="7.719999999999999" width="111.24" height="23" as="geometry" />
        </mxCell>
        <mxCell id="liZkHH58fdioC8Mj_q43-24" value="&lt;b&gt;Amsterdam Site&lt;/b&gt;" style="sketch=0;outlineConnect=0;gradientColor=none;html=1;whiteSpace=wrap;fontSize=12;fontStyle=0;shape=mxgraph.aws4.group;grIcon=mxgraph.aws4.group_on_premise;strokeColor=#000000;fillColor=none;verticalAlign=top;align=left;spacingLeft=30;fontColor=#AAB7B8;dashed=0;" vertex="1" parent="1">
          <mxGeometry x="-1035" y="377.18000000000006" width="202" height="104" as="geometry" />
        </mxCell>
        <mxCell id="liZkHH58fdioC8Mj_q43-37" value="" style="image;aspect=fixed;html=1;points=[];align=center;fontSize=12;image=img/lib/azure2/networking/Virtual_WAN_Hub.svg;" vertex="1" parent="1">
          <mxGeometry x="-594.3199999999999" y="-226.32" width="40.12" height="39.5" as="geometry" />
        </mxCell>
        <mxCell id="liZkHH58fdioC8Mj_q43-39" style="edgeStyle=orthogonalEdgeStyle;rounded=0;orthogonalLoop=1;jettySize=auto;html=1;curved=1;strokeColor=#CC0000;" edge="1" parent="1" source="liZkHH58fdioC8Mj_q43-43" target="liZkHH58fdioC8Mj_q43-3">
          <mxGeometry relative="1" as="geometry">
            <Array as="points">
              <mxPoint x="-674" y="192.18000000000004" />
              <mxPoint x="-674" y="-33.81999999999999" />
            </Array>
          </mxGeometry>
        </mxCell>
        <mxCell id="liZkHH58fdioC8Mj_q43-40" style="edgeStyle=orthogonalEdgeStyle;rounded=0;orthogonalLoop=1;jettySize=auto;html=1;entryX=-0.003;entryY=0.565;entryDx=0;entryDy=0;strokeColor=#CC0000;curved=1;entryPerimeter=0;" edge="1" parent="1" source="liZkHH58fdioC8Mj_q43-43" target="DcGfwdizydH5qtudKik3-62">
          <mxGeometry relative="1" as="geometry">
            <mxPoint x="-596" y="422.43000000000006" as="targetPoint" />
          </mxGeometry>
        </mxCell>
        <mxCell id="liZkHH58fdioC8Mj_q43-41" style="edgeStyle=orthogonalEdgeStyle;rounded=0;orthogonalLoop=1;jettySize=auto;html=1;entryX=0;entryY=0.5;entryDx=0;entryDy=0;curved=1;strokeColor=#0066CC;" edge="1" parent="1" source="liZkHH58fdioC8Mj_q43-43" target="liZkHH58fdioC8Mj_q43-4">
          <mxGeometry relative="1" as="geometry" />
        </mxCell>
        <mxCell id="liZkHH58fdioC8Mj_q43-43" value="Azure Virtual WAN" style="image;aspect=fixed;html=1;points=[];align=center;fontSize=12;image=img/lib/azure2/networking/Virtual_WANs.svg;" vertex="1" parent="1">
          <mxGeometry x="-784" y="155.18000000000004" width="75" height="73.84" as="geometry" />
        </mxCell>
        <mxCell id="liZkHH58fdioC8Mj_q43-44" value="Internal user" style="sketch=0;outlineConnect=0;fontColor=#232F3E;gradientColor=none;strokeColor=#232F3E;fillColor=#ffffff;dashed=0;verticalLabelPosition=bottom;verticalAlign=top;align=center;html=1;fontSize=12;fontStyle=0;aspect=fixed;shape=mxgraph.aws4.resourceIcon;resIcon=mxgraph.aws4.user;" vertex="1" parent="1">
          <mxGeometry x="-989" y="410.79999999999995" width="44" height="44" as="geometry" />
        </mxCell>
        <mxCell id="liZkHH58fdioC8Mj_q43-45" value="Internal user" style="sketch=0;outlineConnect=0;fontColor=#232F3E;gradientColor=none;strokeColor=#232F3E;fillColor=#ffffff;dashed=0;verticalLabelPosition=bottom;verticalAlign=top;align=center;html=1;fontSize=12;fontStyle=0;aspect=fixed;shape=mxgraph.aws4.resourceIcon;resIcon=mxgraph.aws4.user;" vertex="1" parent="1">
          <mxGeometry x="-983" y="-17.819999999999993" width="44" height="44" as="geometry" />
        </mxCell>
        <mxCell id="liZkHH58fdioC8Mj_q43-46" value="External user" style="sketch=0;outlineConnect=0;fontColor=#232F3E;gradientColor=none;strokeColor=#232F3E;fillColor=#ffffff;dashed=0;verticalLabelPosition=bottom;verticalAlign=top;align=center;html=1;fontSize=12;fontStyle=0;aspect=fixed;shape=mxgraph.aws4.resourceIcon;resIcon=mxgraph.aws4.user;" vertex="1" parent="1">
          <mxGeometry x="-1220" y="97.18000000000004" width="44" height="44" as="geometry" />
        </mxCell>
        <mxCell id="liZkHH58fdioC8Mj_q43-47" style="edgeStyle=orthogonalEdgeStyle;rounded=0;orthogonalLoop=1;jettySize=auto;html=1;entryX=0;entryY=0.642;entryDx=0;entryDy=0;entryPerimeter=0;curved=1;strokeColor=#0066CC;" edge="1" parent="1" source="liZkHH58fdioC8Mj_q43-46" target="liZkHH58fdioC8Mj_q43-9">
          <mxGeometry relative="1" as="geometry" />
        </mxCell>
        <mxCell id="liZkHH58fdioC8Mj_q43-48" style="edgeStyle=orthogonalEdgeStyle;rounded=0;orthogonalLoop=1;jettySize=auto;html=1;exitX=0.625;exitY=0.2;exitDx=0;exitDy=0;exitPerimeter=0;entryX=0.5;entryY=0.01;entryDx=0;entryDy=0;entryPerimeter=0;curved=1;strokeColor=#0066CC;" edge="1" parent="1" source="liZkHH58fdioC8Mj_q43-21" target="liZkHH58fdioC8Mj_q43-43">
          <mxGeometry relative="1" as="geometry">
            <Array as="points">
              <mxPoint x="-922" y="104.18000000000004" />
              <mxPoint x="-746" y="104.18000000000004" />
            </Array>
          </mxGeometry>
        </mxCell>
        <mxCell id="liZkHH58fdioC8Mj_q43-49" style="edgeStyle=orthogonalEdgeStyle;rounded=0;orthogonalLoop=1;jettySize=auto;html=1;entryX=0.55;entryY=0.95;entryDx=0;entryDy=0;entryPerimeter=0;" edge="1" parent="1" source="liZkHH58fdioC8Mj_q43-24" target="liZkHH58fdioC8Mj_q43-21">
          <mxGeometry relative="1" as="geometry" />
        </mxCell>
        <mxCell id="liZkHH58fdioC8Mj_q43-50" style="edgeStyle=orthogonalEdgeStyle;rounded=0;orthogonalLoop=1;jettySize=auto;html=1;entryX=0.4;entryY=0.1;entryDx=0;entryDy=0;entryPerimeter=0;" edge="1" parent="1" source="liZkHH58fdioC8Mj_q43-20" target="liZkHH58fdioC8Mj_q43-21">
          <mxGeometry relative="1" as="geometry" />
        </mxCell>
        <mxCell id="liZkHH58fdioC8Mj_q43-51" style="edgeStyle=orthogonalEdgeStyle;rounded=0;orthogonalLoop=1;jettySize=auto;html=1;entryX=0.8;entryY=0.8;entryDx=0;entryDy=0;entryPerimeter=0;strokeColor=#0066CC;curved=1;" edge="1" parent="1" source="liZkHH58fdioC8Mj_q43-44" target="liZkHH58fdioC8Mj_q43-21">
          <mxGeometry relative="1" as="geometry">
            <Array as="points">
              <mxPoint x="-894" y="449.18000000000006" />
            </Array>
          </mxGeometry>
        </mxCell>
        <mxCell id="liZkHH58fdioC8Mj_q43-52" value="" style="endArrow=classic;html=1;rounded=0;strokeColor=#CC0000;" edge="1" parent="1">
          <mxGeometry width="50" height="50" relative="1" as="geometry">
            <mxPoint x="-951.8299999999999" y="-310.32" as="sourcePoint" />
            <mxPoint x="-913.8299999999999" y="-310.32" as="targetPoint" />
          </mxGeometry>
        </mxCell>
        <mxCell id="liZkHH58fdioC8Mj_q43-53" value="Non HTTP" style="text;html=1;align=center;verticalAlign=middle;resizable=0;points=[];autosize=1;strokeColor=none;fillColor=none;" vertex="1" parent="1">
          <mxGeometry x="-916.8299999999999" y="-322.32" width="75" height="26" as="geometry" />
        </mxCell>
        <mxCell id="liZkHH58fdioC8Mj_q43-54" value="" style="endArrow=classic;html=1;rounded=0;strokeColor=#0066CC;" edge="1" parent="1">
          <mxGeometry width="50" height="50" relative="1" as="geometry">
            <mxPoint x="-950.8299999999999" y="-289.32" as="sourcePoint" />
            <mxPoint x="-912.8299999999999" y="-289.32" as="targetPoint" />
          </mxGeometry>
        </mxCell>
        <mxCell id="liZkHH58fdioC8Mj_q43-55" value="HTTP / HTTPS" style="text;html=1;align=center;verticalAlign=middle;resizable=0;points=[];autosize=1;strokeColor=none;fillColor=none;" vertex="1" parent="1">
          <mxGeometry x="-916.8299999999999" y="-302.32" width="98" height="26" as="geometry" />
        </mxCell>
        <mxCell id="liZkHH58fdioC8Mj_q43-56" value="&lt;b&gt;&lt;font style=&quot;font-size: 14px;&quot;&gt;Caption&lt;/font&gt;&lt;/b&gt;" style="text;html=1;align=center;verticalAlign=middle;resizable=0;points=[];autosize=1;strokeColor=none;fillColor=none;" vertex="1" parent="1">
          <mxGeometry x="-963" y="-359.32" width="70" height="29" as="geometry" />
        </mxCell>
        <mxCell id="liZkHH58fdioC8Mj_q43-57" value="" style="rounded=0;whiteSpace=wrap;html=1;fillColor=#78BE2D;strokeColor=#78BE2D;" vertex="1" parent="1">
          <mxGeometry x="-952" y="-272.32" width="35.17" height="6" as="geometry" />
        </mxCell>
        <mxCell id="liZkHH58fdioC8Mj_q43-58" value="Express route Circuit" style="text;html=1;align=center;verticalAlign=middle;resizable=0;points=[];autosize=1;strokeColor=none;fillColor=none;" vertex="1" parent="1">
          <mxGeometry x="-920.3299999999999" y="-282.32" width="129" height="26" as="geometry" />
        </mxCell>
        <mxCell id="liZkHH58fdioC8Mj_q43-59" value="" style="endArrow=classic;html=1;rounded=0;strokeColor=#9933FF;dashed=1;" edge="1" parent="1">
          <mxGeometry width="50" height="50" relative="1" as="geometry">
            <mxPoint x="-952" y="-243.94" as="sourcePoint" />
            <mxPoint x="-911" y="-243.82" as="targetPoint" />
          </mxGeometry>
        </mxCell>
        <mxCell id="liZkHH58fdioC8Mj_q43-60" value="Private Link (HTTP/S - Non HTTP/S)" style="text;html=1;align=center;verticalAlign=middle;resizable=0;points=[];autosize=1;strokeColor=none;fillColor=none;" vertex="1" parent="1">
          <mxGeometry x="-914" y="-256.32" width="213" height="26" as="geometry" />
        </mxCell>
        <mxCell id="liZkHH58fdioC8Mj_q43-62" value="Shared Environment" style="text;html=1;align=center;verticalAlign=middle;resizable=0;points=[];autosize=1;strokeColor=none;fillColor=none;" vertex="1" parent="1">
          <mxGeometry x="-904" y="-233.82" width="127" height="26" as="geometry" />
        </mxCell>
        <mxCell id="DcGfwdizydH5qtudKik3-1" value="" style="rounded=0;whiteSpace=wrap;html=1;fillColor=#e1d5e7;strokeColor=#9673a6;opacity=10;" vertex="1" parent="1">
          <mxGeometry x="-608" y="-404" width="1462" height="80" as="geometry" />
        </mxCell>
        <mxCell id="DcGfwdizydH5qtudKik3-2" value="Azure B2C" style="image;aspect=fixed;html=1;points=[];align=center;fontSize=12;image=img/lib/azure2/identity/Azure_AD_B2C.svg;" vertex="1" parent="1">
          <mxGeometry x="738" y="-387.74" width="32.06" height="29.74" as="geometry" />
        </mxCell>
        <mxCell id="DcGfwdizydH5qtudKik3-3" value="Appq insights" style="image;aspect=fixed;html=1;points=[];align=center;fontSize=12;image=img/lib/azure2/devops/Application_Insights.svg;" vertex="1" parent="1">
          <mxGeometry x="-370.12" y="-390.5" width="25" height="35.8" as="geometry" />
        </mxCell>
        <mxCell id="DcGfwdizydH5qtudKik3-4" value="Azure DevOps" style="image;aspect=fixed;html=1;points=[];align=center;fontSize=12;image=img/lib/azure2/devops/Azure_DevOps.svg;" vertex="1" parent="1">
          <mxGeometry x="216.34" y="-390.5" width="35" height="35" as="geometry" />
        </mxCell>
        <mxCell id="DcGfwdizydH5qtudKik3-5" value="Aquasec" style="shape=image;verticalLabelPosition=bottom;labelBackgroundColor=default;verticalAlign=top;aspect=fixed;imageAspect=0;image=https://media.trustradius.com/product-logos/aL/8E/FHZL1VXXQ0Z3.PNG;" vertex="1" parent="1">
          <mxGeometry x="576" y="-383.68" width="29" height="29" as="geometry" />
        </mxCell>
        <mxCell id="DcGfwdizydH5qtudKik3-6" value="SonarCloud" style="shape=image;verticalLabelPosition=bottom;labelBackgroundColor=default;verticalAlign=top;aspect=fixed;imageAspect=0;image=https://static-00.iconduck.com/assets.00/sonarcloud-icon-256x224-dnm8uyby.png;" vertex="1" parent="1">
          <mxGeometry x="-185" y="-387" width="36" height="31.5" as="geometry" />
        </mxCell>
        <mxCell id="DcGfwdizydH5qtudKik3-7" value="Logs Analytics" style="image;aspect=fixed;html=1;points=[];align=center;fontSize=12;image=img/lib/azure2/management_governance/Log_Analytics_Workspaces.svg;" vertex="1" parent="1">
          <mxGeometry x="19.11999999999999" y="-392.13" width="41.76" height="41.76" as="geometry" />
        </mxCell>
        <mxCell id="DcGfwdizydH5qtudKik3-8" value="Sendgrid" style="image;aspect=fixed;html=1;points=[];align=center;fontSize=12;image=img/lib/azure2/integration/SendGrid_Accounts.svg;" vertex="1" parent="1">
          <mxGeometry x="-585.7300000000001" y="-391.18" width="43.22" height="44" as="geometry" />
        </mxCell>
        <mxCell id="DcGfwdizydH5qtudKik3-9" value="Azure Monitor" style="image;aspect=fixed;html=1;points=[];align=center;fontSize=12;image=img/lib/azure2/management_governance/Monitor.svg;" vertex="1" parent="1">
          <mxGeometry x="396" y="-389.37" width="40.37" height="40.37" as="geometry" />
        </mxCell>
        <mxCell id="DcGfwdizydH5qtudKik3-10" value="" style="rounded=0;whiteSpace=wrap;html=1;fillColor=none;dashed=1;" vertex="1" parent="1">
          <mxGeometry x="-228" y="192" width="619" height="423" as="geometry" />
        </mxCell>
        <mxCell id="DcGfwdizydH5qtudKik3-11" value="" style="rounded=0;whiteSpace=wrap;html=1;fillColor=none;" vertex="1" parent="1">
          <mxGeometry x="-212" y="334" width="254.5" height="251" as="geometry" />
        </mxCell>
        <mxCell id="DcGfwdizydH5qtudKik3-12" value="" style="rounded=0;whiteSpace=wrap;html=1;fillColor=none;dashed=1;strokeColor=#087724;" vertex="1" parent="1">
          <mxGeometry x="-198" y="382" width="234.5" height="189.08" as="geometry" />
        </mxCell>
        <mxCell id="DcGfwdizydH5qtudKik3-13" value="Primary Region - North Europe" style="points=[[0,0],[0.25,0],[0.5,0],[0.75,0],[1,0],[1,0.25],[1,0.5],[1,0.75],[1,1],[0.75,1],[0.5,1],[0.25,1],[0,1],[0,0.75],[0,0.5],[0,0.25]];outlineConnect=0;gradientColor=none;html=1;whiteSpace=wrap;fontSize=12;fontStyle=0;container=0;pointerEvents=0;collapsible=0;recursiveResize=0;shape=mxgraph.aws4.group;grIcon=mxgraph.aws4.group_region;strokeColor=#00A4A6;fillColor=none;verticalAlign=top;align=left;spacingLeft=30;fontColor=#147EBA;dashed=1;" vertex="1" parent="1">
          <mxGeometry x="-614" y="171" width="1278" height="459" as="geometry" />
        </mxCell>
        <mxCell id="DcGfwdizydH5qtudKik3-14" value="" style="image;aspect=fixed;html=1;points=[];align=center;fontSize=12;image=img/lib/azure2/networking/Virtual_Networks.svg;" vertex="1" parent="1">
          <mxGeometry x="-221" y="198" width="31.83" height="19" as="geometry" />
        </mxCell>
        <mxCell id="DcGfwdizydH5qtudKik3-15" value="Spoke - Website Factory NE" style="text;html=1;align=center;verticalAlign=middle;resizable=0;points=[];autosize=1;strokeColor=none;fillColor=none;" vertex="1" parent="1">
          <mxGeometry x="-187" y="194.5" width="169" height="26" as="geometry" />
        </mxCell>
        <mxCell id="DcGfwdizydH5qtudKik3-16" value="" style="rounded=0;whiteSpace=wrap;html=1;fillColor=none;" vertex="1" parent="1">
          <mxGeometry x="110" y="220.5" width="242" height="103" as="geometry" />
        </mxCell>
        <mxCell id="DcGfwdizydH5qtudKik3-17" value="" style="rounded=0;whiteSpace=wrap;html=1;fillColor=none;" vertex="1" parent="1">
          <mxGeometry x="52" y="334" width="310" height="270" as="geometry" />
        </mxCell>
        <mxCell id="DcGfwdizydH5qtudKik3-18" value="" style="image;aspect=fixed;html=1;points=[];align=center;fontSize=12;image=img/lib/azure2/networking/Subnet.svg;" vertex="1" parent="1">
          <mxGeometry x="60" y="342" width="30.06" height="18" as="geometry" />
        </mxCell>
        <mxCell id="DcGfwdizydH5qtudKik3-19" value="PE subnet" style="text;html=1;align=center;verticalAlign=middle;resizable=0;points=[];autosize=1;strokeColor=none;fillColor=none;" vertex="1" parent="1">
          <mxGeometry x="84.49999999999994" y="338" width="73" height="26" as="geometry" />
        </mxCell>
        <mxCell id="DcGfwdizydH5qtudKik3-20" value="App service integration subnet" style="text;html=1;align=center;verticalAlign=middle;resizable=0;points=[];autosize=1;strokeColor=none;fillColor=none;" vertex="1" parent="1">
          <mxGeometry x="141.49999999999994" y="225.5" width="179" height="26" as="geometry" />
        </mxCell>
        <mxCell id="DcGfwdizydH5qtudKik3-21" value="" style="image;aspect=fixed;html=1;points=[];align=center;fontSize=12;image=img/lib/azure2/networking/Subnet.svg;" vertex="1" parent="1">
          <mxGeometry x="113.82999999999998" y="229.5" width="30.06" height="18" as="geometry" />
        </mxCell>
        <mxCell id="DcGfwdizydH5qtudKik3-22" value="Database PE" style="image;aspect=fixed;html=1;points=[];align=center;fontSize=12;image=img/lib/azure2/other/Private_Endpoints.svg;" vertex="1" parent="1">
          <mxGeometry x="262.99999999999994" y="343.5" width="36" height="34.24" as="geometry" />
        </mxCell>
        <mxCell id="DcGfwdizydH5qtudKik3-23" value="Configuration PE" style="image;aspect=fixed;html=1;points=[];align=center;fontSize=12;image=img/lib/azure2/other/Private_Endpoints.svg;" vertex="1" parent="1">
          <mxGeometry x="262.99999999999994" y="410" width="36" height="34.24" as="geometry" />
        </mxCell>
        <mxCell id="DcGfwdizydH5qtudKik3-24" value="Virtual Interfaces" style="text;html=1;align=center;verticalAlign=middle;resizable=0;points=[];autosize=1;strokeColor=none;fillColor=none;" vertex="1" parent="1">
          <mxGeometry x="191" y="290" width="108" height="26" as="geometry" />
        </mxCell>
        <mxCell id="DcGfwdizydH5qtudKik3-25" value="" style="image;sketch=0;aspect=fixed;html=1;points=[];align=center;fontSize=12;image=img/lib/mscae/NetworkInterfaceCard.svg;" vertex="1" parent="1">
          <mxGeometry x="224.66" y="256" width="31.68" height="36" as="geometry" />
        </mxCell>
        <mxCell id="DcGfwdizydH5qtudKik3-26" value="" style="rounded=0;whiteSpace=wrap;html=1;fillColor=none;" vertex="1" parent="1">
          <mxGeometry x="-211" y="225" width="260" height="97" as="geometry" />
        </mxCell>
        <mxCell id="DcGfwdizydH5qtudKik3-27" value="" style="image;aspect=fixed;html=1;points=[];align=center;fontSize=12;image=img/lib/azure2/networking/Subnet.svg;" vertex="1" parent="1">
          <mxGeometry x="-189.17000000000002" y="229" width="30.06" height="18" as="geometry" />
        </mxCell>
        <mxCell id="DcGfwdizydH5qtudKik3-28" value="APIM Subnet" style="text;html=1;align=center;verticalAlign=middle;resizable=0;points=[];autosize=1;strokeColor=none;fillColor=none;" vertex="1" parent="1">
          <mxGeometry x="-130.11000000000007" y="224.5" width="89" height="26" as="geometry" />
        </mxCell>
        <mxCell id="DcGfwdizydH5qtudKik3-29" style="edgeStyle=orthogonalEdgeStyle;rounded=0;orthogonalLoop=1;jettySize=auto;html=1;" edge="1" parent="1" source="DcGfwdizydH5qtudKik3-30" target="DcGfwdizydH5qtudKik3-55">
          <mxGeometry relative="1" as="geometry">
            <Array as="points">
              <mxPoint x="-48" y="273" />
            </Array>
          </mxGeometry>
        </mxCell>
        <mxCell id="DcGfwdizydH5qtudKik3-30" value="API Management" style="image;aspect=fixed;html=1;points=[];align=center;fontSize=12;image=img/lib/azure2/app_services/API_Management_Services.svg;" vertex="1" parent="1">
          <mxGeometry x="-126.11" y="256" width="36.83" height="34" as="geometry" />
        </mxCell>
        <mxCell id="DcGfwdizydH5qtudKik3-31" value="AZURE PUBLIC PAAS" style="rounded=0;whiteSpace=wrap;html=1;fillColor=#fff2cc;strokeColor=#d6b656;fontStyle=1" vertex="1" parent="1">
          <mxGeometry x="427" y="185" width="216" height="39" as="geometry" />
        </mxCell>
        <mxCell id="DcGfwdizydH5qtudKik3-32" style="edgeStyle=orthogonalEdgeStyle;rounded=0;orthogonalLoop=1;jettySize=auto;html=1;entryX=0.065;entryY=0.55;entryDx=0;entryDy=0;entryPerimeter=0;dashed=1;strokeColor=#9933FF;" edge="1" parent="1" source="DcGfwdizydH5qtudKik3-25" target="DcGfwdizydH5qtudKik3-22">
          <mxGeometry relative="1" as="geometry">
            <Array as="points">
              <mxPoint x="181" y="274" />
              <mxPoint x="181" y="362" />
            </Array>
          </mxGeometry>
        </mxCell>
        <mxCell id="DcGfwdizydH5qtudKik3-33" style="edgeStyle=orthogonalEdgeStyle;rounded=0;orthogonalLoop=1;jettySize=auto;html=1;strokeColor=#9933FF;dashed=1;entryX=0.065;entryY=0.701;entryDx=0;entryDy=0;entryPerimeter=0;" edge="1" parent="1" source="DcGfwdizydH5qtudKik3-25" target="DcGfwdizydH5qtudKik3-23">
          <mxGeometry relative="1" as="geometry">
            <mxPoint x="267" y="443" as="targetPoint" />
            <Array as="points">
              <mxPoint x="160" y="274" />
              <mxPoint x="160" y="434" />
            </Array>
          </mxGeometry>
        </mxCell>
        <mxCell id="DcGfwdizydH5qtudKik3-34" value="Azure Keyvault NE" style="image;aspect=fixed;html=1;points=[];align=center;fontSize=12;image=img/lib/azure2/security/Key_Vaults.svg;" vertex="1" parent="1">
          <mxGeometry x="519.88" y="326.75" width="40" height="40" as="geometry" />
        </mxCell>
        <mxCell id="DcGfwdizydH5qtudKik3-35" style="edgeStyle=orthogonalEdgeStyle;rounded=0;orthogonalLoop=1;jettySize=auto;html=1;entryX=0.091;entryY=0.538;entryDx=0;entryDy=0;entryPerimeter=0;strokeColor=#9933FF;dashed=1;" edge="1" parent="1" target="DcGfwdizydH5qtudKik3-44">
          <mxGeometry relative="1" as="geometry">
            <Array as="points">
              <mxPoint x="413" y="364" />
              <mxPoint x="413" y="279" />
            </Array>
            <mxPoint x="293" y="364" as="sourcePoint" />
            <mxPoint x="554.3384999999998" y="433.337" as="targetPoint" />
          </mxGeometry>
        </mxCell>
        <mxCell id="DcGfwdizydH5qtudKik3-36" style="edgeStyle=orthogonalEdgeStyle;rounded=0;orthogonalLoop=1;jettySize=auto;html=1;entryX=0.015;entryY=0.608;entryDx=0;entryDy=0;entryPerimeter=0;strokeColor=none;dashed=1;" edge="1" parent="1" source="DcGfwdizydH5qtudKik3-23" target="DcGfwdizydH5qtudKik3-34">
          <mxGeometry relative="1" as="geometry">
            <Array as="points">
              <mxPoint x="402" y="438" />
              <mxPoint x="402" y="520" />
            </Array>
          </mxGeometry>
        </mxCell>
        <mxCell id="DcGfwdizydH5qtudKik3-37" value="" style="image;aspect=fixed;html=1;points=[];align=center;fontSize=12;image=img/lib/azure2/networking/Network_Security_Groups.svg;" vertex="1" parent="1">
          <mxGeometry x="33.76" y="212.5" width="22.24" height="27" as="geometry" />
        </mxCell>
        <mxCell id="DcGfwdizydH5qtudKik3-38" value="" style="image;aspect=fixed;html=1;points=[];align=center;fontSize=12;image=img/lib/azure2/networking/Network_Security_Groups.svg;" vertex="1" parent="1">
          <mxGeometry x="335" y="210.5" width="22.24" height="27" as="geometry" />
        </mxCell>
        <mxCell id="DcGfwdizydH5qtudKik3-39" value="" style="image;aspect=fixed;html=1;points=[];align=center;fontSize=12;image=img/lib/azure2/networking/Network_Security_Groups.svg;" vertex="1" parent="1">
          <mxGeometry x="349" y="323.5" width="22.24" height="27" as="geometry" />
        </mxCell>
        <mxCell id="DcGfwdizydH5qtudKik3-42" value="" style="image;aspect=fixed;html=1;points=[];align=center;fontSize=12;image=img/lib/azure2/other/Container_App_Environments.svg;" vertex="1" parent="1">
          <mxGeometry x="-191.44" y="385" width="24.5" height="24.5" as="geometry" />
        </mxCell>
        <mxCell id="DcGfwdizydH5qtudKik3-43" value="Frontend" style="image;aspect=fixed;html=1;points=[];align=center;fontSize=12;image=img/lib/azure2/other/Worker_Container_App.svg;" vertex="1" parent="1">
          <mxGeometry x="-114.85999999999999" y="424" width="41.21" height="40" as="geometry" />
        </mxCell>
        <mxCell id="DcGfwdizydH5qtudKik3-44" value="" style="image;aspect=fixed;html=1;points=[];align=center;fontSize=12;image=img/lib/azure2/databases/Azure_Database_PostgreSQL_Server.svg;" vertex="1" parent="1">
          <mxGeometry x="518" y="251.5" width="37.85" height="50.46" as="geometry" />
        </mxCell>
        <mxCell id="DcGfwdizydH5qtudKik3-45" value="Azure storage" style="image;aspect=fixed;html=1;points=[];align=center;fontSize=12;image=img/lib/azure2/storage/Storage_Accounts.svg;" vertex="1" parent="1">
          <mxGeometry x="525" y="412.12" width="37.5" height="30" as="geometry" />
        </mxCell>
        <mxCell id="DcGfwdizydH5qtudKik3-46" value="Storage PE" style="image;aspect=fixed;html=1;points=[];align=center;fontSize=12;image=img/lib/azure2/other/Private_Endpoints.svg;" vertex="1" parent="1">
          <mxGeometry x="262.99999999999994" y="476" width="36" height="34.24" as="geometry" />
        </mxCell>
        <mxCell id="DcGfwdizydH5qtudKik3-47" style="edgeStyle=orthogonalEdgeStyle;rounded=0;orthogonalLoop=1;jettySize=auto;html=1;strokeColor=#9933FF;dashed=1;entryX=-0.037;entryY=0.612;entryDx=0;entryDy=0;entryPerimeter=0;exitX=-0.094;exitY=0.426;exitDx=0;exitDy=0;exitPerimeter=0;" edge="1" parent="1" source="DcGfwdizydH5qtudKik3-25" target="DcGfwdizydH5qtudKik3-46">
          <mxGeometry relative="1" as="geometry">
            <mxPoint x="277" y="453" as="targetPoint" />
            <Array as="points">
              <mxPoint x="222" y="274" />
              <mxPoint x="160" y="274" />
              <mxPoint x="160" y="498" />
            </Array>
            <mxPoint x="216" y="271" as="sourcePoint" />
          </mxGeometry>
        </mxCell>
        <mxCell id="DcGfwdizydH5qtudKik3-48" style="edgeStyle=orthogonalEdgeStyle;rounded=0;orthogonalLoop=1;jettySize=auto;html=1;entryX=0.103;entryY=0.306;entryDx=0;entryDy=0;entryPerimeter=0;dashed=1;strokeColor=#9933FF;exitX=0.954;exitY=0.555;exitDx=0;exitDy=0;exitPerimeter=0;" edge="1" parent="1" source="DcGfwdizydH5qtudKik3-23" target="DcGfwdizydH5qtudKik3-34">
          <mxGeometry relative="1" as="geometry">
            <mxPoint x="303" y="437.0999999999999" as="sourcePoint" />
            <mxPoint x="567.9200000000001" y="430.31999999999994" as="targetPoint" />
            <Array as="points">
              <mxPoint x="444" y="430" />
              <mxPoint x="444" y="339" />
            </Array>
          </mxGeometry>
        </mxCell>
        <mxCell id="DcGfwdizydH5qtudKik3-49" value="" style="image;aspect=fixed;html=1;points=[];align=center;fontSize=12;image=img/lib/azure2/networking/Subnet.svg;" vertex="1" parent="1">
          <mxGeometry x="-205" y="342" width="30.06" height="18" as="geometry" />
        </mxCell>
        <mxCell id="DcGfwdizydH5qtudKik3-50" value="Apps Subnet" style="text;html=1;align=center;verticalAlign=middle;resizable=0;points=[];autosize=1;strokeColor=none;fillColor=none;" vertex="1" parent="1">
          <mxGeometry x="-178.00000000000006" y="338" width="87" height="26" as="geometry" />
        </mxCell>
        <mxCell id="DcGfwdizydH5qtudKik3-51" value="Backend" style="image;aspect=fixed;html=1;points=[];align=center;fontSize=12;image=img/lib/azure2/other/Worker_Container_App.svg;" vertex="1" parent="1">
          <mxGeometry x="-178" y="503.08" width="41.21" height="40" as="geometry" />
        </mxCell>
        <mxCell id="DcGfwdizydH5qtudKik3-52" style="edgeStyle=orthogonalEdgeStyle;rounded=0;orthogonalLoop=1;jettySize=auto;html=1;entryX=0.421;entryY=-0.014;entryDx=0;entryDy=0;entryPerimeter=0;" edge="1" parent="1" source="DcGfwdizydH5qtudKik3-43" target="DcGfwdizydH5qtudKik3-51">
          <mxGeometry relative="1" as="geometry" />
        </mxCell>
        <mxCell id="DcGfwdizydH5qtudKik3-53" value="&lt;span style=&quot;color: rgb(0, 0, 0); font-family: Helvetica; font-size: 12px; font-style: normal; font-variant-ligatures: normal; font-variant-caps: normal; font-weight: 400; letter-spacing: normal; orphans: 2; text-align: center; text-indent: 0px; text-transform: none; widows: 2; word-spacing: 0px; -webkit-text-stroke-width: 0px; white-space: normal; background-color: rgb(255, 255, 255); text-decoration-thickness: initial; text-decoration-style: initial; text-decoration-color: initial; display: inline !important; float: none;&quot;&gt;ACE&lt;/span&gt;" style="text;whiteSpace=wrap;html=1;" vertex="1" parent="1">
          <mxGeometry x="-164" y="383" width="36" height="27" as="geometry" />
        </mxCell>
        <mxCell id="DcGfwdizydH5qtudKik3-54" style="edgeStyle=orthogonalEdgeStyle;rounded=0;orthogonalLoop=1;jettySize=auto;html=1;entryX=0.074;entryY=0.241;entryDx=0;entryDy=0;entryPerimeter=0;curved=1;strokeColor=#9933FF;dashed=1;" edge="1" parent="1" source="DcGfwdizydH5qtudKik3-51" target="DcGfwdizydH5qtudKik3-25">
          <mxGeometry relative="1" as="geometry">
            <Array as="points">
              <mxPoint x="24" y="523" />
              <mxPoint x="24" y="265" />
            </Array>
          </mxGeometry>
        </mxCell>
        <mxCell id="DcGfwdizydH5qtudKik3-55" value="Internal Ingress Proxy" style="rounded=1;whiteSpace=wrap;html=1;" vertex="1" parent="1">
          <mxGeometry x="-106" y="371" width="120" height="35" as="geometry" />
        </mxCell>
        <mxCell id="DcGfwdizydH5qtudKik3-56" style="edgeStyle=orthogonalEdgeStyle;rounded=0;orthogonalLoop=1;jettySize=auto;html=1;exitX=0.5;exitY=1;exitDx=0;exitDy=0;entryX=0.919;entryY=0.517;entryDx=0;entryDy=0;entryPerimeter=0;" edge="1" parent="1" source="DcGfwdizydH5qtudKik3-55" target="DcGfwdizydH5qtudKik3-43">
          <mxGeometry relative="1" as="geometry">
            <Array as="points">
              <mxPoint x="-46" y="445" />
            </Array>
          </mxGeometry>
        </mxCell>
        <mxCell id="DcGfwdizydH5qtudKik3-57" value="Azure Container Registry" style="image;aspect=fixed;html=1;points=[];align=center;fontSize=12;image=img/lib/azure2/containers/Container_Registries.svg;" vertex="1" parent="1">
          <mxGeometry x="522" y="491" width="50.16" height="45" as="geometry" />
        </mxCell>
        <mxCell id="DcGfwdizydH5qtudKik3-58" value="ACR PE" style="image;aspect=fixed;html=1;points=[];align=center;fontSize=12;image=img/lib/azure2/other/Private_Endpoints.svg;" vertex="1" parent="1">
          <mxGeometry x="262.99999999999994" y="540" width="36" height="34.24" as="geometry" />
        </mxCell>
        <mxCell id="DcGfwdizydH5qtudKik3-59" style="edgeStyle=orthogonalEdgeStyle;rounded=0;orthogonalLoop=1;jettySize=auto;html=1;entryX=0.007;entryY=0.578;entryDx=0;entryDy=0;entryPerimeter=0;strokeColor=#9933FF;dashed=1;" edge="1" parent="1" source="DcGfwdizydH5qtudKik3-58" target="DcGfwdizydH5qtudKik3-57">
          <mxGeometry relative="1" as="geometry">
            <Array as="points">
              <mxPoint x="449" y="557" />
              <mxPoint x="449" y="517" />
            </Array>
          </mxGeometry>
        </mxCell>
        <mxCell id="DcGfwdizydH5qtudKik3-60" style="edgeStyle=orthogonalEdgeStyle;rounded=0;orthogonalLoop=1;jettySize=auto;html=1;entryX=0.009;entryY=0.429;entryDx=0;entryDy=0;entryPerimeter=0;strokeColor=#9933FF;dashed=1;" edge="1" parent="1" source="DcGfwdizydH5qtudKik3-46" target="DcGfwdizydH5qtudKik3-45">
          <mxGeometry relative="1" as="geometry">
            <Array as="points">
              <mxPoint x="470" y="493" />
              <mxPoint x="470" y="425" />
            </Array>
          </mxGeometry>
        </mxCell>
        <mxCell id="DcGfwdizydH5qtudKik3-61" style="edgeStyle=orthogonalEdgeStyle;rounded=0;orthogonalLoop=1;jettySize=auto;html=1;entryX=0.009;entryY=0.701;entryDx=0;entryDy=0;entryPerimeter=0;dashed=1;strokeColor=#9933FF;" edge="1" parent="1" source="DcGfwdizydH5qtudKik3-25" target="DcGfwdizydH5qtudKik3-58">
          <mxGeometry relative="1" as="geometry">
            <Array as="points">
              <mxPoint x="160" y="274" />
              <mxPoint x="160" y="564" />
            </Array>
          </mxGeometry>
        </mxCell>
        <mxCell id="DcGfwdizydH5qtudKik3-62" value="" style="rounded=0;whiteSpace=wrap;html=1;fillColor=none;" vertex="1" parent="1">
          <mxGeometry x="-601" y="257.18" width="306" height="322" as="geometry" />
        </mxCell>
        <mxCell id="isdv48symEiXYZAmcHEr-3" style="edgeStyle=orthogonalEdgeStyle;rounded=0;orthogonalLoop=1;jettySize=auto;html=1;exitX=1;exitY=0.5;exitDx=0;exitDy=0;entryX=0.03;entryY=0.5;entryDx=0;entryDy=0;entryPerimeter=0;curved=1;strokeColor=#0066CC;" edge="1" parent="1" source="DcGfwdizydH5qtudKik3-63" target="DcGfwdizydH5qtudKik3-30">
          <mxGeometry relative="1" as="geometry">
            <mxPoint x="-131" y="268" as="targetPoint" />
            <Array as="points">
              <mxPoint x="-248" y="345" />
              <mxPoint x="-248" y="274" />
              <mxPoint x="-131" y="274" />
              <mxPoint x="-131" y="273" />
            </Array>
          </mxGeometry>
        </mxCell>
        <mxCell id="DcGfwdizydH5qtudKik3-63" value="" style="rounded=0;whiteSpace=wrap;html=1;fillColor=none;" vertex="1" parent="1">
          <mxGeometry x="-579.2900000000002" y="311.92" width="246.07" height="66.08" as="geometry" />
        </mxCell>
        <mxCell id="DcGfwdizydH5qtudKik3-64" value="" style="sketch=0;outlineConnect=0;fontColor=#232F3E;gradientColor=none;fillColor=#232F3D;strokeColor=none;dashed=0;verticalLabelPosition=bottom;verticalAlign=top;align=center;html=1;fontSize=12;fontStyle=0;aspect=fixed;pointerEvents=1;shape=mxgraph.aws4.generic_firewall;" vertex="1" parent="1">
          <mxGeometry x="-554.4300000000001" y="327" width="52.81" height="44.68" as="geometry" />
        </mxCell>
        <mxCell id="DcGfwdizydH5qtudKik3-65" value="" style="rounded=0;whiteSpace=wrap;html=1;fillColor=none;" vertex="1" parent="1">
          <mxGeometry x="-575.8400000000001" y="397.3" width="237.17" height="144.5" as="geometry" />
        </mxCell>
        <mxCell id="DcGfwdizydH5qtudKik3-66" value="" style="rounded=0;whiteSpace=wrap;html=1;fillColor=none;" vertex="1" parent="1">
          <mxGeometry x="-534.8400000000001" y="448.8" width="164.17" height="81.5" as="geometry" />
        </mxCell>
        <mxCell id="DcGfwdizydH5qtudKik3-67" value="" style="image;aspect=fixed;html=1;points=[];align=center;fontSize=12;image=img/lib/azure2/networking/Application_Gateways.svg;" vertex="1" parent="1">
          <mxGeometry x="-518.8400000000001" y="450.3" width="37.5" height="37.5" as="geometry" />
        </mxCell>
        <mxCell id="DcGfwdizydH5qtudKik3-68" value="" style="image;aspect=fixed;html=1;points=[];align=center;fontSize=12;image=img/lib/azure2/networking/Web_Application_Firewall_Policies_WAF.svg;" vertex="1" parent="1">
          <mxGeometry x="-477.84000000000003" y="454.3" width="34.5" height="34.5" as="geometry" />
        </mxCell>
        <mxCell id="DcGfwdizydH5qtudKik3-69" value="Azure App gateway&lt;div&gt;with WAF&lt;/div&gt;" style="text;html=1;align=center;verticalAlign=middle;resizable=0;points=[];autosize=1;strokeColor=none;fillColor=none;" vertex="1" parent="1">
          <mxGeometry x="-530.3400000000001" y="485.8" width="121" height="41" as="geometry" />
        </mxCell>
        <mxCell id="DcGfwdizydH5qtudKik3-70" value="" style="image;aspect=fixed;html=1;points=[];align=center;fontSize=12;image=img/lib/azure2/networking/Subnet.svg;" vertex="1" parent="1">
          <mxGeometry x="-569.8400000000001" y="406.3" width="30.06" height="18" as="geometry" />
        </mxCell>
        <mxCell id="DcGfwdizydH5qtudKik3-71" value="App Gateway Subnet" style="text;html=1;align=center;verticalAlign=middle;resizable=0;points=[];autosize=1;strokeColor=none;fillColor=none;" vertex="1" parent="1">
          <mxGeometry x="-546.8400000000001" y="401.3" width="131" height="26" as="geometry" />
        </mxCell>
        <mxCell id="DcGfwdizydH5qtudKik3-72" value="Virtual WAN HUB - NE" style="text;html=1;align=center;verticalAlign=middle;resizable=0;points=[];autosize=1;strokeColor=none;fillColor=none;" vertex="1" parent="1">
          <mxGeometry x="-561.51" y="266.87" width="139" height="26" as="geometry" />
        </mxCell>
        <mxCell id="DcGfwdizydH5qtudKik3-73" value="" style="image;aspect=fixed;html=1;points=[];align=center;fontSize=12;image=img/lib/azure2/networking/Network_Security_Groups.svg;" vertex="1" parent="1">
          <mxGeometry x="-374.90999999999997" y="389.8" width="22.24" height="27" as="geometry" />
        </mxCell>
        <mxCell id="DcGfwdizydH5qtudKik3-74" value="&lt;span style=&quot;color: rgb(0, 0, 0); font-family: Helvetica; font-size: 12px; font-style: normal; font-variant-ligatures: normal; font-variant-caps: normal; font-weight: 400; letter-spacing: normal; orphans: 2; text-align: center; text-indent: 0px; text-transform: none; widows: 2; word-spacing: 0px; -webkit-text-stroke-width: 0px; white-space: nowrap; background-color: rgb(255, 255, 255); text-decoration-thickness: initial; text-decoration-style: initial; text-decoration-color: initial; display: inline !important; float: none;&quot;&gt;Palo Alto NGFW&lt;/span&gt;" style="text;whiteSpace=wrap;html=1;" vertex="1" parent="1">
          <mxGeometry x="-501.6200000000001" y="332" width="111.24" height="23" as="geometry" />
        </mxCell>
        <mxCell id="DcGfwdizydH5qtudKik3-75" value="" style="image;aspect=fixed;html=1;points=[];align=center;fontSize=12;image=img/lib/azure2/networking/Virtual_WAN_Hub.svg;" vertex="1" parent="1">
          <mxGeometry x="-596.3199999999999" y="262.68" width="40.12" height="39.5" as="geometry" />
        </mxCell>
        <mxCell id="isdv48symEiXYZAmcHEr-1" style="edgeStyle=orthogonalEdgeStyle;rounded=0;orthogonalLoop=1;jettySize=auto;html=1;entryX=-0.003;entryY=0.607;entryDx=0;entryDy=0;entryPerimeter=0;strokeColor=#0066CC;curved=1;" edge="1" parent="1" source="liZkHH58fdioC8Mj_q43-43" target="DcGfwdizydH5qtudKik3-63">
          <mxGeometry relative="1" as="geometry" />
        </mxCell>
        <mxCell id="isdv48symEiXYZAmcHEr-2" style="edgeStyle=orthogonalEdgeStyle;rounded=0;orthogonalLoop=1;jettySize=auto;html=1;exitX=1;exitY=0.5;exitDx=0;exitDy=0;entryX=0.003;entryY=0.559;entryDx=0;entryDy=0;entryPerimeter=0;curved=1;strokeColor=#0066CC;" edge="1" parent="1" source="DcGfwdizydH5qtudKik3-66" target="DcGfwdizydH5qtudKik3-30">
          <mxGeometry relative="1" as="geometry">
            <mxPoint x="-160" y="275" as="targetPoint" />
          </mxGeometry>
        </mxCell>
        <mxCell id="isdv48symEiXYZAmcHEr-4" style="edgeStyle=orthogonalEdgeStyle;rounded=0;orthogonalLoop=1;jettySize=auto;html=1;exitX=1;exitY=0.5;exitDx=0;exitDy=0;entryX=-0.024;entryY=0.353;entryDx=0;entryDy=0;entryPerimeter=0;curved=1;strokeColor=#0066CC;" edge="1" parent="1" source="liZkHH58fdioC8Mj_q43-10" target="PRodXgToNW_c8nMUO1XP-44">
          <mxGeometry relative="1" as="geometry" />
        </mxCell>
        <mxCell id="isdv48symEiXYZAmcHEr-5" style="edgeStyle=orthogonalEdgeStyle;rounded=0;orthogonalLoop=1;jettySize=auto;html=1;exitX=1;exitY=0.5;exitDx=0;exitDy=0;entryX=-0.051;entryY=0.471;entryDx=0;entryDy=0;entryPerimeter=0;curved=1;strokeColor=#0066CC;" edge="1" parent="1" source="liZkHH58fdioC8Mj_q43-4" target="PRodXgToNW_c8nMUO1XP-44">
          <mxGeometry relative="1" as="geometry">
            <Array as="points">
              <mxPoint x="-232" y="19" />
              <mxPoint x="-232" y="-200" />
            </Array>
          </mxGeometry>
        </mxCell>
        <mxCell id="Simn2tP4a_o1qUook16E-1" value="&lt;font face=&quot;Helvetica&quot; style=&quot;font-size: 24px;&quot;&gt;&lt;b&gt;&lt;span style=&quot;text-align: start;&quot;&gt;&lt;span style=&quot;line-height: 15.3333px;&quot; lang=&quot;EN-US&quot;&gt;&lt;font style=&quot;&quot;&gt;Digital Apps - Replatform&amp;nbsp;&lt;/font&gt;&lt;/span&gt;&lt;/span&gt;&lt;span style=&quot;background-color: initial;&quot;&gt;via PaaS solutions with Repurchase and Retire options&lt;/span&gt;&lt;/b&gt;&lt;/font&gt;" style="text;html=1;align=center;verticalAlign=middle;whiteSpace=wrap;rounded=0;" vertex="1" parent="1">
          <mxGeometry x="-540.17" y="630" width="959" height="30" as="geometry" />
        </mxCell>
      </root>
    </mxGraphModel>
  </diagram>
  <diagram id="gqMMUnUPY0M3LWiZXmXD" name="Option1">
    <mxGraphModel dx="3166" dy="1662" grid="0" gridSize="10" guides="1" tooltips="1" connect="1" arrows="1" fold="1" page="0" pageScale="1" pageWidth="850" pageHeight="1100" math="0" shadow="0">
      <root>
        <mxCell id="0" />
        <mxCell id="1" parent="0" />
        <mxCell id="TsJ5qSW49ZMew8vf5sHp-14" value="" style="shape=cylinder3;whiteSpace=wrap;html=1;boundedLbl=1;backgroundOutline=1;size=4.22437139198243;rotation=75;fillColor=#78be2d;strokeColor=#78BE2D;" vertex="1" parent="1">
          <mxGeometry x="-816.59" y="54.44" width="4.11" height="232" as="geometry" />
        </mxCell>
        <mxCell id="rkB8ppVnu8Dv38RpVlEC-9" value="" style="rounded=0;whiteSpace=wrap;html=1;fillColor=#ffe6cc;strokeColor=#d79b00;opacity=20;" vertex="1" parent="1">
          <mxGeometry x="489" y="-286" width="158" height="577" as="geometry" />
        </mxCell>
        <mxCell id="rkB8ppVnu8Dv38RpVlEC-2" value="" style="rounded=0;whiteSpace=wrap;html=1;fillColor=none;dashed=1;" vertex="1" parent="1">
          <mxGeometry x="-278" y="-294" width="758" height="577" as="geometry" />
        </mxCell>
        <mxCell id="rkB8ppVnu8Dv38RpVlEC-3" value="" style="rounded=0;whiteSpace=wrap;html=1;fillColor=none;" vertex="1" parent="1">
          <mxGeometry x="-25" y="-262" width="660" height="248" as="geometry" />
        </mxCell>
        <mxCell id="GEG8Ne6vveBUThjVTHLy-86" style="edgeStyle=orthogonalEdgeStyle;rounded=0;orthogonalLoop=1;jettySize=auto;html=1;exitX=1;exitY=0.5;exitDx=0;exitDy=0;strokeColor=#CC0000;curved=1;" edge="1" parent="1" source="GEG8Ne6vveBUThjVTHLy-83" target="rkB8ppVnu8Dv38RpVlEC-79">
          <mxGeometry relative="1" as="geometry">
            <Array as="points">
              <mxPoint x="500" y="-114" />
              <mxPoint x="500" y="-225" />
            </Array>
          </mxGeometry>
        </mxCell>
        <mxCell id="GEG8Ne6vveBUThjVTHLy-83" value="" style="ellipse;whiteSpace=wrap;html=1;fillColor=#dae8fc;strokeColor=#6c8ebf;opacity=30;" vertex="1" parent="1">
          <mxGeometry x="12" y="-185" width="425" height="143" as="geometry" />
        </mxCell>
        <mxCell id="GEG8Ne6vveBUThjVTHLy-19" value="" style="rounded=0;whiteSpace=wrap;html=1;fillColor=none;" vertex="1" parent="1">
          <mxGeometry x="-259" y="72" width="324" height="183" as="geometry" />
        </mxCell>
        <mxCell id="rkB8ppVnu8Dv38RpVlEC-4" value="" style="rounded=0;whiteSpace=wrap;html=1;fillColor=default;" vertex="1" parent="1">
          <mxGeometry x="-584" y="-103" width="279" height="382" as="geometry" />
        </mxCell>
        <mxCell id="GEG8Ne6vveBUThjVTHLy-14" style="edgeStyle=orthogonalEdgeStyle;rounded=0;orthogonalLoop=1;jettySize=auto;html=1;exitX=1;exitY=0.5;exitDx=0;exitDy=0;entryX=0.027;entryY=0.618;entryDx=0;entryDy=0;curved=1;entryPerimeter=0;strokeColor=#0066CC;" edge="1" parent="1" source="rkB8ppVnu8Dv38RpVlEC-5" target="rkB8ppVnu8Dv38RpVlEC-40">
          <mxGeometry relative="1" as="geometry">
            <Array as="points">
              <mxPoint x="-277" y="148" />
              <mxPoint x="-277" y="-193" />
            </Array>
          </mxGeometry>
        </mxCell>
        <mxCell id="rkB8ppVnu8Dv38RpVlEC-5" value="" style="rounded=0;whiteSpace=wrap;html=1;fillColor=none;" vertex="1" parent="1">
          <mxGeometry x="-561.07" y="159.54" width="218.07" height="66.08" as="geometry" />
        </mxCell>
        <mxCell id="rkB8ppVnu8Dv38RpVlEC-8" value="" style="sketch=0;outlineConnect=0;fontColor=#232F3E;gradientColor=none;fillColor=#232F3D;strokeColor=none;dashed=0;verticalLabelPosition=bottom;verticalAlign=top;align=center;html=1;fontSize=12;fontStyle=0;aspect=fixed;pointerEvents=1;shape=mxgraph.aws4.generic_firewall;" vertex="1" parent="1">
          <mxGeometry x="-540" y="164.97" width="52.81" height="44.68" as="geometry" />
        </mxCell>
        <mxCell id="rkB8ppVnu8Dv38RpVlEC-11" value="" style="rounded=0;whiteSpace=wrap;html=1;fillColor=none;" vertex="1" parent="1">
          <mxGeometry x="-554.17" y="-47.5" width="215" height="144.5" as="geometry" />
        </mxCell>
        <mxCell id="rkB8ppVnu8Dv38RpVlEC-12" value="Region - West Europe" style="points=[[0,0],[0.25,0],[0.5,0],[0.75,0],[1,0],[1,0.25],[1,0.5],[1,0.75],[1,1],[0.75,1],[0.5,1],[0.25,1],[0,1],[0,0.75],[0,0.5],[0,0.25]];outlineConnect=0;gradientColor=none;html=1;whiteSpace=wrap;fontSize=12;fontStyle=0;container=0;pointerEvents=0;collapsible=0;recursiveResize=0;shape=mxgraph.aws4.group;grIcon=mxgraph.aws4.group_region;strokeColor=#00A4A6;fillColor=none;verticalAlign=top;align=left;spacingLeft=30;fontColor=#147EBA;dashed=1;" vertex="1" parent="1">
          <mxGeometry x="-634" y="-316" width="1304" height="630" as="geometry" />
        </mxCell>
        <mxCell id="rkB8ppVnu8Dv38RpVlEC-13" style="edgeStyle=orthogonalEdgeStyle;rounded=0;orthogonalLoop=1;jettySize=auto;html=1;entryX=0;entryY=0.25;entryDx=0;entryDy=0;strokeColor=#0066CC;curved=1;" edge="1" parent="1" source="rkB8ppVnu8Dv38RpVlEC-15" target="rkB8ppVnu8Dv38RpVlEC-16">
          <mxGeometry relative="1" as="geometry">
            <Array as="points">
              <mxPoint x="-847" y="-179" />
              <mxPoint x="-847" y="-130" />
              <mxPoint x="-776" y="-130" />
              <mxPoint x="-776" y="20" />
            </Array>
          </mxGeometry>
        </mxCell>
        <mxCell id="rkB8ppVnu8Dv38RpVlEC-15" value="Azure Front Door" style="image;aspect=fixed;html=1;points=[];align=center;fontSize=12;image=img/lib/azure2/networking/Front_Doors.svg;" vertex="1" parent="1">
          <mxGeometry x="-1072" y="-210" width="68" height="60" as="geometry" />
        </mxCell>
        <mxCell id="GEG8Ne6vveBUThjVTHLy-13" style="edgeStyle=orthogonalEdgeStyle;rounded=0;orthogonalLoop=1;jettySize=auto;html=1;exitX=1;exitY=0.5;exitDx=0;exitDy=0;entryX=0;entryY=0.529;entryDx=0;entryDy=0;curved=1;entryPerimeter=0;strokeColor=#0066CC;" edge="1" parent="1" source="rkB8ppVnu8Dv38RpVlEC-16" target="rkB8ppVnu8Dv38RpVlEC-40">
          <mxGeometry relative="1" as="geometry">
            <Array as="points">
              <mxPoint x="-296" y="41" />
              <mxPoint x="-296" y="-196" />
            </Array>
          </mxGeometry>
        </mxCell>
        <mxCell id="rkB8ppVnu8Dv38RpVlEC-16" value="" style="rounded=0;whiteSpace=wrap;html=1;fillColor=none;" vertex="1" parent="1">
          <mxGeometry x="-522.17" width="148" height="81.5" as="geometry" />
        </mxCell>
        <mxCell id="rkB8ppVnu8Dv38RpVlEC-17" value="" style="image;aspect=fixed;html=1;points=[];align=center;fontSize=12;image=img/lib/azure2/networking/Application_Gateways.svg;" vertex="1" parent="1">
          <mxGeometry x="-497.17" y="5.5" width="37.5" height="37.5" as="geometry" />
        </mxCell>
        <mxCell id="rkB8ppVnu8Dv38RpVlEC-18" value="" style="image;aspect=fixed;html=1;points=[];align=center;fontSize=12;image=img/lib/azure2/networking/Web_Application_Firewall_Policies_WAF.svg;" vertex="1" parent="1">
          <mxGeometry x="-456.17" y="9.5" width="34.5" height="34.5" as="geometry" />
        </mxCell>
        <mxCell id="rkB8ppVnu8Dv38RpVlEC-19" value="Azure App gateway&lt;div&gt;with WAF&lt;/div&gt;" style="text;html=1;align=center;verticalAlign=middle;resizable=0;points=[];autosize=1;strokeColor=none;fillColor=none;" vertex="1" parent="1">
          <mxGeometry x="-508.67" y="41" width="121" height="41" as="geometry" />
        </mxCell>
        <mxCell id="rkB8ppVnu8Dv38RpVlEC-20" value="" style="image;aspect=fixed;html=1;points=[];align=center;fontSize=12;image=img/lib/azure2/networking/Subnet.svg;" vertex="1" parent="1">
          <mxGeometry x="-548.17" y="-38.5" width="30.06" height="18" as="geometry" />
        </mxCell>
        <mxCell id="rkB8ppVnu8Dv38RpVlEC-21" value="App Gateway Subnet" style="text;html=1;align=center;verticalAlign=middle;resizable=0;points=[];autosize=1;strokeColor=none;fillColor=none;" vertex="1" parent="1">
          <mxGeometry x="-525.17" y="-43.5" width="131" height="26" as="geometry" />
        </mxCell>
        <mxCell id="rkB8ppVnu8Dv38RpVlEC-22" value="Virtual WAN HUB - WE" style="text;html=1;align=center;verticalAlign=middle;resizable=0;points=[];autosize=1;strokeColor=none;fillColor=none;" vertex="1" parent="1">
          <mxGeometry x="-538.51" y="-93.31" width="141" height="26" as="geometry" />
        </mxCell>
        <mxCell id="rkB8ppVnu8Dv38RpVlEC-23" value="" style="image;aspect=fixed;html=1;points=[];align=center;fontSize=12;image=img/lib/azure2/networking/Virtual_Networks.svg;" vertex="1" parent="1">
          <mxGeometry x="-271" y="-286" width="31.83" height="19" as="geometry" />
        </mxCell>
        <mxCell id="rkB8ppVnu8Dv38RpVlEC-24" value="Spoke - Animal Nutrition EU" style="text;html=1;align=center;verticalAlign=middle;resizable=0;points=[];autosize=1;strokeColor=none;fillColor=none;" vertex="1" parent="1">
          <mxGeometry x="-234.56" y="-288" width="167" height="26" as="geometry" />
        </mxCell>
        <mxCell id="rkB8ppVnu8Dv38RpVlEC-35" value="" style="rounded=0;whiteSpace=wrap;html=1;fillColor=none;" vertex="1" parent="1">
          <mxGeometry x="-251.06" y="-247" width="200" height="97" as="geometry" />
        </mxCell>
        <mxCell id="rkB8ppVnu8Dv38RpVlEC-36" value="&lt;font style=&quot;font-size: 14px;&quot;&gt;Shared resources&lt;/font&gt;" style="rounded=0;whiteSpace=wrap;html=1;fillColor=none;dashed=1;strokeColor=#087724;" vertex="1" parent="1">
          <mxGeometry x="1009" y="-388" width="148" height="30" as="geometry" />
        </mxCell>
        <mxCell id="rkB8ppVnu8Dv38RpVlEC-37" value="" style="image;aspect=fixed;html=1;points=[];align=center;fontSize=12;image=img/lib/azure2/networking/Subnet.svg;" vertex="1" parent="1">
          <mxGeometry x="-241" y="-243.5" width="30.06" height="18" as="geometry" />
        </mxCell>
        <mxCell id="rkB8ppVnu8Dv38RpVlEC-38" value="APIM Subnet" style="text;html=1;align=center;verticalAlign=middle;resizable=0;points=[];autosize=1;strokeColor=none;fillColor=none;" vertex="1" parent="1">
          <mxGeometry x="-206.00000000000006" y="-247.5" width="89" height="26" as="geometry" />
        </mxCell>
        <mxCell id="GEG8Ne6vveBUThjVTHLy-49" style="edgeStyle=orthogonalEdgeStyle;rounded=0;orthogonalLoop=1;jettySize=auto;html=1;exitX=0.407;exitY=0.882;exitDx=0;exitDy=0;exitPerimeter=0;" edge="1" parent="1" source="rkB8ppVnu8Dv38RpVlEC-40" target="GEG8Ne6vveBUThjVTHLy-34">
          <mxGeometry relative="1" as="geometry">
            <Array as="points">
              <mxPoint x="-170" y="-51" />
              <mxPoint x="-68" y="-51" />
              <mxPoint x="-68" y="105" />
              <mxPoint x="-201" y="105" />
            </Array>
          </mxGeometry>
        </mxCell>
        <mxCell id="rkB8ppVnu8Dv38RpVlEC-41" value="AZURE PUBLIC PAAS" style="rounded=0;whiteSpace=wrap;html=1;fillColor=#fff2cc;strokeColor=#d6b656;fontStyle=1" vertex="1" parent="1">
          <mxGeometry x="486" y="-298" width="159" height="29.5" as="geometry" />
        </mxCell>
        <mxCell id="rkB8ppVnu8Dv38RpVlEC-46" style="edgeStyle=orthogonalEdgeStyle;rounded=0;orthogonalLoop=1;jettySize=auto;html=1;entryX=0.015;entryY=0.608;entryDx=0;entryDy=0;entryPerimeter=0;strokeColor=none;dashed=1;" edge="1" parent="1">
          <mxGeometry relative="1" as="geometry">
            <Array as="points">
              <mxPoint x="404" y="-34" />
              <mxPoint x="404" y="48" />
            </Array>
            <mxPoint x="301" y="-34" as="sourcePoint" />
            <mxPoint x="522.48" y="-120.93000000000006" as="targetPoint" />
          </mxGeometry>
        </mxCell>
        <mxCell id="rkB8ppVnu8Dv38RpVlEC-47" value="" style="image;aspect=fixed;html=1;points=[];align=center;fontSize=12;image=img/lib/azure2/networking/Network_Security_Groups.svg;" vertex="1" parent="1">
          <mxGeometry x="-66" y="-255" width="22.24" height="27" as="geometry" />
        </mxCell>
        <mxCell id="rkB8ppVnu8Dv38RpVlEC-50" value="" style="image;aspect=fixed;html=1;points=[];align=center;fontSize=12;image=img/lib/azure2/networking/Network_Security_Groups.svg;" vertex="1" parent="1">
          <mxGeometry x="-353.24" y="-55" width="22.24" height="27" as="geometry" />
        </mxCell>
        <mxCell id="rkB8ppVnu8Dv38RpVlEC-53" value="" style="rounded=0;whiteSpace=wrap;html=1;fillColor=#e1d5e7;strokeColor=#9673a6;opacity=10;" vertex="1" parent="1">
          <mxGeometry x="-650" y="-404" width="1320" height="80" as="geometry" />
        </mxCell>
        <mxCell id="rkB8ppVnu8Dv38RpVlEC-54" value="Azure B2C" style="image;aspect=fixed;html=1;points=[];align=center;fontSize=12;image=img/lib/azure2/identity/Azure_AD_B2C.svg;" vertex="1" parent="1">
          <mxGeometry x="586" y="-385.6" width="32.06" height="29.74" as="geometry" />
        </mxCell>
        <mxCell id="rkB8ppVnu8Dv38RpVlEC-57" value="Aquasec" style="shape=image;verticalLabelPosition=bottom;labelBackgroundColor=default;verticalAlign=top;aspect=fixed;imageAspect=0;image=https://media.trustradius.com/product-logos/aL/8E/FHZL1VXXQ0Z3.PNG;" vertex="1" parent="1">
          <mxGeometry x="84" y="-383" width="34" height="34" as="geometry" />
        </mxCell>
        <mxCell id="rkB8ppVnu8Dv38RpVlEC-58" value="SonarCloud" style="shape=image;verticalLabelPosition=bottom;labelBackgroundColor=default;verticalAlign=top;aspect=fixed;imageAspect=0;image=https://static-00.iconduck.com/assets.00/sonarcloud-icon-256x224-dnm8uyby.png;" vertex="1" parent="1">
          <mxGeometry x="-26.980000000000004" y="-382.47999999999996" width="36" height="31.5" as="geometry" />
        </mxCell>
        <mxCell id="rkB8ppVnu8Dv38RpVlEC-59" value="Logs Analytics" style="image;aspect=fixed;html=1;points=[];align=center;fontSize=12;image=img/lib/azure2/management_governance/Log_Analytics_Workspaces.svg;" vertex="1" parent="1">
          <mxGeometry x="211.73999999999995" y="-391.61" width="41.76" height="41.76" as="geometry" />
        </mxCell>
        <mxCell id="rkB8ppVnu8Dv38RpVlEC-60" style="edgeStyle=orthogonalEdgeStyle;rounded=0;orthogonalLoop=1;jettySize=auto;html=1;entryX=0.4;entryY=0.1;entryDx=0;entryDy=0;curved=1;entryPerimeter=0;" edge="1" parent="1" target="rkB8ppVnu8Dv38RpVlEC-63">
          <mxGeometry relative="1" as="geometry">
            <mxPoint x="-981.5294117647059" y="37.74000000000001" as="sourcePoint" />
          </mxGeometry>
        </mxCell>
        <mxCell id="rkB8ppVnu8Dv38RpVlEC-61" value="&lt;b&gt;Saint-Nolff Site&lt;/b&gt;" style="sketch=0;outlineConnect=0;gradientColor=none;html=1;whiteSpace=wrap;fontSize=12;fontStyle=0;shape=mxgraph.aws4.group;grIcon=mxgraph.aws4.group_on_premise;strokeColor=#000000;fillColor=none;verticalAlign=top;align=left;spacingLeft=30;fontColor=#AAB7B8;dashed=0;" vertex="1" parent="1">
          <mxGeometry x="-1080" y="-106.26" width="169" height="144" as="geometry" />
        </mxCell>
        <mxCell id="rkB8ppVnu8Dv38RpVlEC-63" value="ADM MPLS Cloud" style="ellipse;shape=cloud;whiteSpace=wrap;html=1;" vertex="1" parent="1">
          <mxGeometry x="-1046" y="107" width="160" height="160.62" as="geometry" />
        </mxCell>
        <mxCell id="rkB8ppVnu8Dv38RpVlEC-64" value="Express Route" style="image;aspect=fixed;html=1;points=[];align=center;fontSize=12;image=img/lib/azure2/networking/ExpressRoute_Circuits.svg;" vertex="1" parent="1">
          <mxGeometry x="-831.5999999999999" y="179.48" width="33" height="30.17" as="geometry" />
        </mxCell>
        <mxCell id="TsJ5qSW49ZMew8vf5sHp-5" style="edgeStyle=orthogonalEdgeStyle;rounded=0;orthogonalLoop=1;jettySize=auto;html=1;entryX=0;entryY=0.5;entryDx=0;entryDy=0;curved=1;strokeColor=#CC0000;startArrow=block;startFill=1;" edge="1" parent="1" source="rkB8ppVnu8Dv38RpVlEC-65" target="rkB8ppVnu8Dv38RpVlEC-4">
          <mxGeometry relative="1" as="geometry" />
        </mxCell>
        <mxCell id="rkB8ppVnu8Dv38RpVlEC-65" value="Azure Virtual WAN" style="image;aspect=fixed;html=1;points=[];align=center;fontSize=12;image=img/lib/azure2/networking/Virtual_WANs.svg;" vertex="1" parent="1">
          <mxGeometry x="-734" y="99.99999999999999" width="75" height="73.84" as="geometry" />
        </mxCell>
        <mxCell id="rkB8ppVnu8Dv38RpVlEC-66" value="&lt;span style=&quot;color: rgb(0, 0, 0); font-family: Helvetica; font-size: 12px; font-style: normal; font-variant-ligatures: normal; font-variant-caps: normal; font-weight: 400; letter-spacing: normal; orphans: 2; text-align: center; text-indent: 0px; text-transform: none; widows: 2; word-spacing: 0px; -webkit-text-stroke-width: 0px; white-space: nowrap; background-color: rgb(255, 255, 255); text-decoration-thickness: initial; text-decoration-style: initial; text-decoration-color: initial; display: inline !important; float: none;&quot;&gt;Palo Alto NGFW&lt;/span&gt;" style="text;whiteSpace=wrap;html=1;" vertex="1" parent="1">
          <mxGeometry x="-478.14" y="181.07999999999998" width="111.24" height="23" as="geometry" />
        </mxCell>
        <mxCell id="rkB8ppVnu8Dv38RpVlEC-67" style="edgeStyle=orthogonalEdgeStyle;rounded=0;orthogonalLoop=1;jettySize=auto;html=1;entryX=0.498;entryY=0.957;entryDx=0;entryDy=0;curved=1;entryPerimeter=0;" edge="1" parent="1" source="rkB8ppVnu8Dv38RpVlEC-68" target="rkB8ppVnu8Dv38RpVlEC-63">
          <mxGeometry relative="1" as="geometry" />
        </mxCell>
        <mxCell id="rkB8ppVnu8Dv38RpVlEC-68" value="&lt;b&gt;Amsterdam Site&lt;/b&gt;" style="sketch=0;outlineConnect=0;gradientColor=none;html=1;whiteSpace=wrap;fontSize=12;fontStyle=0;shape=mxgraph.aws4.group;grIcon=mxgraph.aws4.group_on_premise;strokeColor=#000000;fillColor=none;verticalAlign=top;align=left;spacingLeft=30;fontColor=#AAB7B8;dashed=0;" vertex="1" parent="1">
          <mxGeometry x="-1067" y="359" width="202" height="109" as="geometry" />
        </mxCell>
        <mxCell id="rkB8ppVnu8Dv38RpVlEC-79" value="Azure PostgreSQL&amp;nbsp;&lt;div&gt;Database flexible&lt;/div&gt;" style="image;aspect=fixed;html=1;points=[];align=center;fontSize=12;image=img/lib/azure2/databases/Azure_Database_PostgreSQL_Server.svg;" vertex="1" parent="1">
          <mxGeometry x="544.31" y="-252.81" width="42.38" height="56.5" as="geometry" />
        </mxCell>
        <mxCell id="rkB8ppVnu8Dv38RpVlEC-160" value="Sendgrid" style="image;aspect=fixed;html=1;points=[];align=center;fontSize=12;image=img/lib/azure2/integration/SendGrid_Accounts.svg;" vertex="1" parent="1">
          <mxGeometry x="-624.1500000000001" y="-397.26" width="43.22" height="44" as="geometry" />
        </mxCell>
        <mxCell id="GEG8Ne6vveBUThjVTHLy-18" value="" style="rounded=0;whiteSpace=wrap;html=1;fillColor=none;" vertex="1" parent="1">
          <mxGeometry x="74" y="-2.5" width="392" height="255.5" as="geometry" />
        </mxCell>
        <mxCell id="GEG8Ne6vveBUThjVTHLy-23" value="" style="image;aspect=fixed;html=1;points=[];align=center;fontSize=12;image=img/lib/azure2/networking/Network_Security_Groups.svg;" vertex="1" parent="1">
          <mxGeometry x="48" y="63" width="22.24" height="27" as="geometry" />
        </mxCell>
        <mxCell id="GEG8Ne6vveBUThjVTHLy-25" value="Software Factory Prod Resource Group" style="text;html=1;align=center;verticalAlign=middle;resizable=0;points=[];autosize=1;strokeColor=none;fillColor=none;" vertex="1" parent="1">
          <mxGeometry x="105.99999999999991" y="4.370000000000009" width="229" height="26" as="geometry" />
        </mxCell>
        <mxCell id="GEG8Ne6vveBUThjVTHLy-34" value="" style="whiteSpace=wrap;html=1;aspect=fixed;dashed=1;strokeWidth=2;" vertex="1" parent="1">
          <mxGeometry x="-241" y="141" width="80" height="80" as="geometry" />
        </mxCell>
        <mxCell id="GEG8Ne6vveBUThjVTHLy-35" value="" style="whiteSpace=wrap;html=1;aspect=fixed;dashed=1;strokeWidth=2;" vertex="1" parent="1">
          <mxGeometry x="-46" y="141.09" width="80" height="80" as="geometry" />
        </mxCell>
        <mxCell id="GEG8Ne6vveBUThjVTHLy-37" value="" style="shape=image;html=1;verticalAlign=top;verticalLabelPosition=bottom;labelBackgroundColor=#ffffff;imageAspect=0;aspect=fixed;image=https://cdn1.iconfinder.com/data/icons/Futurosoft%20Icons%200.5.2/128x128/apps/fedora.png" vertex="1" parent="1">
          <mxGeometry x="-247" y="131" width="23" height="23" as="geometry" />
        </mxCell>
        <mxCell id="GEG8Ne6vveBUThjVTHLy-38" value="" style="shape=image;html=1;verticalAlign=top;verticalLabelPosition=bottom;labelBackgroundColor=#ffffff;imageAspect=0;aspect=fixed;image=https://cdn1.iconfinder.com/data/icons/Futurosoft%20Icons%200.5.2/128x128/apps/fedora.png" vertex="1" parent="1">
          <mxGeometry x="-53.56" y="132.5" width="23" height="23" as="geometry" />
        </mxCell>
        <mxCell id="GEG8Ne6vveBUThjVTHLy-40" value="Prod1" style="text;html=1;align=center;verticalAlign=middle;resizable=0;points=[];autosize=1;strokeColor=none;fillColor=none;" vertex="1" parent="1">
          <mxGeometry x="-231" y="221" width="50" height="26" as="geometry" />
        </mxCell>
        <mxCell id="GEG8Ne6vveBUThjVTHLy-41" value="Prod2" style="text;html=1;align=center;verticalAlign=middle;resizable=0;points=[];autosize=1;strokeColor=none;fillColor=none;" vertex="1" parent="1">
          <mxGeometry x="-121" y="221" width="50" height="26" as="geometry" />
        </mxCell>
        <mxCell id="GEG8Ne6vveBUThjVTHLy-110" style="edgeStyle=orthogonalEdgeStyle;rounded=0;orthogonalLoop=1;jettySize=auto;html=1;entryX=0;entryY=0.5;entryDx=0;entryDy=0;curved=1;strokeColor=#0066CC;" edge="1" parent="1" source="rkB8ppVnu8Dv38RpVlEC-40" target="GEG8Ne6vveBUThjVTHLy-87">
          <mxGeometry relative="1" as="geometry">
            <Array as="points">
              <mxPoint x="-167" y="-63" />
              <mxPoint x="82" y="-63" />
              <mxPoint x="82" y="169" />
            </Array>
          </mxGeometry>
        </mxCell>
        <mxCell id="GEG8Ne6vveBUThjVTHLy-111" style="edgeStyle=orthogonalEdgeStyle;rounded=0;orthogonalLoop=1;jettySize=auto;html=1;" edge="1" parent="1" source="rkB8ppVnu8Dv38RpVlEC-40" target="GEG8Ne6vveBUThjVTHLy-35">
          <mxGeometry relative="1" as="geometry">
            <Array as="points">
              <mxPoint x="-170" y="-50" />
              <mxPoint x="-68" y="-50" />
              <mxPoint x="-68" y="105" />
              <mxPoint x="-6" y="105" />
            </Array>
          </mxGeometry>
        </mxCell>
        <mxCell id="rkB8ppVnu8Dv38RpVlEC-40" value="API Management" style="image;aspect=fixed;html=1;points=[];align=center;fontSize=12;image=img/lib/azure2/app_services/API_Management_Services.svg;" vertex="1" parent="1">
          <mxGeometry x="-185" y="-214" width="36.83" height="34" as="geometry" />
        </mxCell>
        <mxCell id="GEG8Ne6vveBUThjVTHLy-51" value="" style="whiteSpace=wrap;html=1;aspect=fixed;dashed=1;strokeWidth=2;" vertex="1" parent="1">
          <mxGeometry x="178" y="-250" width="80" height="80" as="geometry" />
        </mxCell>
        <mxCell id="GEG8Ne6vveBUThjVTHLy-52" value="" style="shape=image;html=1;verticalAlign=top;verticalLabelPosition=bottom;labelBackgroundColor=#ffffff;imageAspect=0;aspect=fixed;image=https://cdn1.iconfinder.com/data/icons/Futurosoft%20Icons%200.5.2/128x128/apps/fedora.png" vertex="1" parent="1">
          <mxGeometry x="168" y="-260" width="23" height="23" as="geometry" />
        </mxCell>
        <mxCell id="GEG8Ne6vveBUThjVTHLy-53" value="Master" style="text;html=1;align=center;verticalAlign=middle;resizable=0;points=[];autosize=1;strokeColor=none;fillColor=none;" vertex="1" parent="1">
          <mxGeometry x="189" y="-170" width="55" height="26" as="geometry" />
        </mxCell>
        <mxCell id="GEG8Ne6vveBUThjVTHLy-56" value="Worker 1" style="text;html=1;align=center;verticalAlign=middle;resizable=0;points=[];autosize=1;strokeColor=none;fillColor=none;" vertex="1" parent="1">
          <mxGeometry x="31" y="-129" width="66" height="26" as="geometry" />
        </mxCell>
        <mxCell id="GEG8Ne6vveBUThjVTHLy-65" value="Worker4" style="text;html=1;align=center;verticalAlign=middle;resizable=0;points=[];autosize=1;strokeColor=none;fillColor=none;" vertex="1" parent="1">
          <mxGeometry x="304.5" y="-141" width="63" height="26" as="geometry" />
        </mxCell>
        <mxCell id="GEG8Ne6vveBUThjVTHLy-67" style="edgeStyle=orthogonalEdgeStyle;rounded=0;orthogonalLoop=1;jettySize=auto;html=1;curved=1;entryX=0;entryY=0.5;entryDx=0;entryDy=0;strokeColor=#0066CC;" edge="1" parent="1" source="rkB8ppVnu8Dv38RpVlEC-40" target="GEG8Ne6vveBUThjVTHLy-83">
          <mxGeometry relative="1" as="geometry">
            <mxPoint x="183" y="-215" as="targetPoint" />
          </mxGeometry>
        </mxCell>
        <mxCell id="GEG8Ne6vveBUThjVTHLy-68" value="" style="group" vertex="1" connectable="0" parent="1">
          <mxGeometry x="24" y="-203" width="69" height="69" as="geometry" />
        </mxCell>
        <mxCell id="GEG8Ne6vveBUThjVTHLy-54" value="" style="whiteSpace=wrap;html=1;aspect=fixed;dashed=1;strokeWidth=2;" vertex="1" parent="GEG8Ne6vveBUThjVTHLy-68">
          <mxGeometry x="10" y="10" width="59" height="59" as="geometry" />
        </mxCell>
        <mxCell id="GEG8Ne6vveBUThjVTHLy-55" value="" style="shape=image;html=1;verticalAlign=top;verticalLabelPosition=bottom;labelBackgroundColor=#ffffff;imageAspect=0;aspect=fixed;image=https://cdn1.iconfinder.com/data/icons/Futurosoft%20Icons%200.5.2/128x128/apps/fedora.png" vertex="1" parent="GEG8Ne6vveBUThjVTHLy-68">
          <mxGeometry width="23" height="23" as="geometry" />
        </mxCell>
        <mxCell id="GEG8Ne6vveBUThjVTHLy-70" value="" style="group" vertex="1" connectable="0" parent="1">
          <mxGeometry x="111" y="-144" width="69" height="69" as="geometry" />
        </mxCell>
        <mxCell id="GEG8Ne6vveBUThjVTHLy-71" value="" style="whiteSpace=wrap;html=1;aspect=fixed;dashed=1;strokeWidth=2;" vertex="1" parent="GEG8Ne6vveBUThjVTHLy-70">
          <mxGeometry x="10" y="10" width="59" height="59" as="geometry" />
        </mxCell>
        <mxCell id="GEG8Ne6vveBUThjVTHLy-72" value="" style="shape=image;html=1;verticalAlign=top;verticalLabelPosition=bottom;labelBackgroundColor=#ffffff;imageAspect=0;aspect=fixed;image=https://cdn1.iconfinder.com/data/icons/Futurosoft%20Icons%200.5.2/128x128/apps/fedora.png" vertex="1" parent="GEG8Ne6vveBUThjVTHLy-70">
          <mxGeometry width="23" height="23" as="geometry" />
        </mxCell>
        <mxCell id="GEG8Ne6vveBUThjVTHLy-75" value="" style="group" vertex="1" connectable="0" parent="1">
          <mxGeometry x="297" y="-210" width="69" height="69" as="geometry" />
        </mxCell>
        <mxCell id="GEG8Ne6vveBUThjVTHLy-76" value="" style="whiteSpace=wrap;html=1;aspect=fixed;dashed=1;strokeWidth=2;" vertex="1" parent="GEG8Ne6vveBUThjVTHLy-75">
          <mxGeometry x="10" y="10" width="59" height="59" as="geometry" />
        </mxCell>
        <mxCell id="GEG8Ne6vveBUThjVTHLy-77" value="" style="shape=image;html=1;verticalAlign=top;verticalLabelPosition=bottom;labelBackgroundColor=#ffffff;imageAspect=0;aspect=fixed;image=https://cdn1.iconfinder.com/data/icons/Futurosoft%20Icons%200.5.2/128x128/apps/fedora.png" vertex="1" parent="GEG8Ne6vveBUThjVTHLy-75">
          <mxGeometry width="23" height="23" as="geometry" />
        </mxCell>
        <mxCell id="GEG8Ne6vveBUThjVTHLy-78" value="" style="group" vertex="1" connectable="0" parent="1">
          <mxGeometry x="241" y="-138" width="69" height="69" as="geometry" />
        </mxCell>
        <mxCell id="GEG8Ne6vveBUThjVTHLy-79" value="" style="whiteSpace=wrap;html=1;aspect=fixed;dashed=1;strokeWidth=2;" vertex="1" parent="GEG8Ne6vveBUThjVTHLy-78">
          <mxGeometry x="10" y="10" width="59" height="59" as="geometry" />
        </mxCell>
        <mxCell id="GEG8Ne6vveBUThjVTHLy-80" value="" style="shape=image;html=1;verticalAlign=top;verticalLabelPosition=bottom;labelBackgroundColor=#ffffff;imageAspect=0;aspect=fixed;image=https://cdn1.iconfinder.com/data/icons/Futurosoft%20Icons%200.5.2/128x128/apps/fedora.png" vertex="1" parent="GEG8Ne6vveBUThjVTHLy-78">
          <mxGeometry width="23" height="23" as="geometry" />
        </mxCell>
        <mxCell id="GEG8Ne6vveBUThjVTHLy-81" value="Worker 2" style="text;html=1;align=center;verticalAlign=middle;resizable=0;points=[];autosize=1;strokeColor=none;fillColor=none;" vertex="1" parent="1">
          <mxGeometry x="119" y="-75" width="66" height="26" as="geometry" />
        </mxCell>
        <mxCell id="GEG8Ne6vveBUThjVTHLy-82" value="Worker3" style="text;html=1;align=center;verticalAlign=middle;resizable=0;points=[];autosize=1;strokeColor=none;fillColor=none;" vertex="1" parent="1">
          <mxGeometry x="241.5" y="-75" width="63" height="26" as="geometry" />
        </mxCell>
        <mxCell id="GEG8Ne6vveBUThjVTHLy-84" value="" style="shape=image;html=1;verticalAlign=top;verticalLabelPosition=bottom;labelBackgroundColor=#ffffff;imageAspect=0;aspect=fixed;image=https://cdn0.iconfinder.com/data/icons/social-media-2127/48/social_media_social_media_logo_docker-128.png" vertex="1" parent="1">
          <mxGeometry x="171.5" y="-173.31" width="93.31" height="93.31" as="geometry" />
        </mxCell>
        <mxCell id="GEG8Ne6vveBUThjVTHLy-87" value="" style="ellipse;whiteSpace=wrap;html=1;fillColor=#dae8fc;strokeColor=#6c8ebf;opacity=30;" vertex="1" parent="1">
          <mxGeometry x="103" y="97" width="358" height="143" as="geometry" />
        </mxCell>
        <mxCell id="GEG8Ne6vveBUThjVTHLy-90" value="" style="whiteSpace=wrap;html=1;aspect=fixed;dashed=1;strokeWidth=2;" vertex="1" parent="1">
          <mxGeometry x="240.5" y="32" width="80" height="80" as="geometry" />
        </mxCell>
        <mxCell id="GEG8Ne6vveBUThjVTHLy-91" value="" style="shape=image;html=1;verticalAlign=top;verticalLabelPosition=bottom;labelBackgroundColor=#ffffff;imageAspect=0;aspect=fixed;image=https://cdn1.iconfinder.com/data/icons/Futurosoft%20Icons%200.5.2/128x128/apps/fedora.png" vertex="1" parent="1">
          <mxGeometry x="230.5" y="22" width="23" height="23" as="geometry" />
        </mxCell>
        <mxCell id="GEG8Ne6vveBUThjVTHLy-92" value="Master" style="text;html=1;align=center;verticalAlign=middle;resizable=0;points=[];autosize=1;strokeColor=none;fillColor=none;" vertex="1" parent="1">
          <mxGeometry x="251.5" y="112" width="55" height="26" as="geometry" />
        </mxCell>
        <mxCell id="GEG8Ne6vveBUThjVTHLy-94" value="Worker3" style="text;html=1;align=center;verticalAlign=middle;resizable=0;points=[];autosize=1;strokeColor=none;fillColor=none;" vertex="1" parent="1">
          <mxGeometry x="367.5" y="155.5" width="63" height="26" as="geometry" />
        </mxCell>
        <mxCell id="GEG8Ne6vveBUThjVTHLy-98" value="" style="group" vertex="1" connectable="0" parent="1">
          <mxGeometry x="135.28" y="121.92" width="69" height="69" as="geometry" />
        </mxCell>
        <mxCell id="GEG8Ne6vveBUThjVTHLy-99" value="" style="whiteSpace=wrap;html=1;aspect=fixed;dashed=1;strokeWidth=2;" vertex="1" parent="GEG8Ne6vveBUThjVTHLy-98">
          <mxGeometry x="10" y="10" width="59" height="59" as="geometry" />
        </mxCell>
        <mxCell id="GEG8Ne6vveBUThjVTHLy-100" value="" style="shape=image;html=1;verticalAlign=top;verticalLabelPosition=bottom;labelBackgroundColor=#ffffff;imageAspect=0;aspect=fixed;image=https://cdn1.iconfinder.com/data/icons/Futurosoft%20Icons%200.5.2/128x128/apps/fedora.png" vertex="1" parent="GEG8Ne6vveBUThjVTHLy-98">
          <mxGeometry width="23" height="23" as="geometry" />
        </mxCell>
        <mxCell id="GEG8Ne6vveBUThjVTHLy-101" value="" style="group" vertex="1" connectable="0" parent="1">
          <mxGeometry x="366" y="80" width="69" height="69" as="geometry" />
        </mxCell>
        <mxCell id="GEG8Ne6vveBUThjVTHLy-102" value="" style="whiteSpace=wrap;html=1;aspect=fixed;dashed=1;strokeWidth=2;" vertex="1" parent="GEG8Ne6vveBUThjVTHLy-101">
          <mxGeometry x="10" y="10" width="59" height="59" as="geometry" />
        </mxCell>
        <mxCell id="GEG8Ne6vveBUThjVTHLy-103" value="" style="shape=image;html=1;verticalAlign=top;verticalLabelPosition=bottom;labelBackgroundColor=#ffffff;imageAspect=0;aspect=fixed;image=https://cdn1.iconfinder.com/data/icons/Futurosoft%20Icons%200.5.2/128x128/apps/fedora.png" vertex="1" parent="GEG8Ne6vveBUThjVTHLy-101">
          <mxGeometry width="23" height="23" as="geometry" />
        </mxCell>
        <mxCell id="GEG8Ne6vveBUThjVTHLy-104" value="" style="group" vertex="1" connectable="0" parent="1">
          <mxGeometry x="288" y="145" width="69" height="69" as="geometry" />
        </mxCell>
        <mxCell id="GEG8Ne6vveBUThjVTHLy-105" value="" style="whiteSpace=wrap;html=1;aspect=fixed;dashed=1;strokeWidth=2;" vertex="1" parent="GEG8Ne6vveBUThjVTHLy-104">
          <mxGeometry x="10" y="10" width="59" height="59" as="geometry" />
        </mxCell>
        <mxCell id="GEG8Ne6vveBUThjVTHLy-106" value="" style="shape=image;html=1;verticalAlign=top;verticalLabelPosition=bottom;labelBackgroundColor=#ffffff;imageAspect=0;aspect=fixed;image=https://cdn1.iconfinder.com/data/icons/Futurosoft%20Icons%200.5.2/128x128/apps/fedora.png" vertex="1" parent="GEG8Ne6vveBUThjVTHLy-104">
          <mxGeometry width="23" height="23" as="geometry" />
        </mxCell>
        <mxCell id="GEG8Ne6vveBUThjVTHLy-107" value="Worker 1" style="text;html=1;align=center;verticalAlign=middle;resizable=0;points=[];autosize=1;strokeColor=none;fillColor=none;" vertex="1" parent="1">
          <mxGeometry x="146.5" y="199" width="66" height="26" as="geometry" />
        </mxCell>
        <mxCell id="GEG8Ne6vveBUThjVTHLy-108" value="Worker2" style="text;html=1;align=center;verticalAlign=middle;resizable=0;points=[];autosize=1;strokeColor=none;fillColor=none;" vertex="1" parent="1">
          <mxGeometry x="291" y="214" width="63" height="26" as="geometry" />
        </mxCell>
        <mxCell id="GEG8Ne6vveBUThjVTHLy-109" value="" style="shape=image;html=1;verticalAlign=top;verticalLabelPosition=bottom;labelBackgroundColor=#ffffff;imageAspect=0;aspect=fixed;image=https://cdn0.iconfinder.com/data/icons/social-media-2127/48/social_media_social_media_logo_docker-128.png" vertex="1" parent="1">
          <mxGeometry x="212.5" y="97" width="93.31" height="93.31" as="geometry" />
        </mxCell>
        <mxCell id="GEG8Ne6vveBUThjVTHLy-112" value="&lt;b&gt;Prod Subscription&lt;/b&gt;" style="text;html=1;align=center;verticalAlign=middle;resizable=0;points=[];autosize=1;strokeColor=none;fillColor=none;" vertex="1" parent="1">
          <mxGeometry x="-600.14" y="-281" width="122" height="26" as="geometry" />
        </mxCell>
        <mxCell id="GEG8Ne6vveBUThjVTHLy-113" value="" style="image;aspect=fixed;html=1;points=[];align=center;fontSize=12;image=img/lib/azure2/general/Subscriptions.svg;" vertex="1" parent="1">
          <mxGeometry x="-611" y="-286" width="17.97" height="29" as="geometry" />
        </mxCell>
        <mxCell id="GEG8Ne6vveBUThjVTHLy-116" value="" style="image;aspect=fixed;html=1;points=[];align=center;fontSize=12;image=img/lib/azure2/general/Resource_Groups.svg;" vertex="1" parent="1">
          <mxGeometry x="-21.010000000000055" y="-258.39" width="30.03" height="28.26" as="geometry" />
        </mxCell>
        <mxCell id="GEG8Ne6vveBUThjVTHLy-117" value="App Prod Resource Group" style="text;html=1;align=center;verticalAlign=middle;resizable=0;points=[];autosize=1;strokeColor=none;fillColor=none;" vertex="1" parent="1">
          <mxGeometry x="3" y="-256.13" width="159" height="26" as="geometry" />
        </mxCell>
        <mxCell id="GEG8Ne6vveBUThjVTHLy-119" value="" style="image;aspect=fixed;html=1;points=[];align=center;fontSize=12;image=img/lib/azure2/general/Resource_Groups.svg;" vertex="1" parent="1">
          <mxGeometry x="82.99999999999994" y="2.1100000000000136" width="30.03" height="28.26" as="geometry" />
        </mxCell>
        <mxCell id="GEG8Ne6vveBUThjVTHLy-120" value="" style="image;aspect=fixed;html=1;points=[];align=center;fontSize=12;image=img/lib/azure2/general/Resource_Groups.svg;" vertex="1" parent="1">
          <mxGeometry x="-256.00000000000006" y="76.00000000000001" width="30.03" height="28.26" as="geometry" />
        </mxCell>
        <mxCell id="GEG8Ne6vveBUThjVTHLy-121" value="Website Prod Resource Group" style="text;html=1;align=center;verticalAlign=middle;resizable=0;points=[];autosize=1;strokeColor=none;fillColor=none;" vertex="1" parent="1">
          <mxGeometry x="-234.5600000000001" y="76.00000000000001" width="181" height="26" as="geometry" />
        </mxCell>
        <mxCell id="GEG8Ne6vveBUThjVTHLy-122" value="Azure Monitor" style="image;aspect=fixed;html=1;points=[];align=center;fontSize=12;image=img/lib/azure2/management_governance/Monitor.svg;" vertex="1" parent="1">
          <mxGeometry x="337" y="-389.37" width="40.37" height="40.37" as="geometry" />
        </mxCell>
        <mxCell id="GEG8Ne6vveBUThjVTHLy-123" value="Jfrog artifactory" style="shape=image;verticalLabelPosition=bottom;labelBackgroundColor=default;verticalAlign=top;aspect=fixed;imageAspect=0;image=https://plugins.jetbrains.com/files/9834/603636/icon/pluginIcon.png;" vertex="1" parent="1">
          <mxGeometry x="-470.19" y="-395.01" width="44.03" height="44.03" as="geometry" />
        </mxCell>
        <mxCell id="GEG8Ne6vveBUThjVTHLy-125" value="Bitbucket" style="shape=image;verticalLabelPosition=bottom;labelBackgroundColor=default;verticalAlign=top;aspect=fixed;imageAspect=0;image=https://bitbucket.org/blog/wp-content/uploads/2023/04/bblogo.png;" vertex="1" parent="1">
          <mxGeometry x="-339.17" y="-391.85" width="46.67" height="42" as="geometry" />
        </mxCell>
        <mxCell id="GEG8Ne6vveBUThjVTHLy-129" value="" style="shape=image;verticalLabelPosition=bottom;labelBackgroundColor=default;verticalAlign=top;aspect=fixed;imageAspect=0;image=https://www.dotcom-monitor.com/wp-content/uploads/site24x7-logo.png;" vertex="1" parent="1">
          <mxGeometry x="-247" y="-382.48" width="68.34" height="41" as="geometry" />
        </mxCell>
        <mxCell id="GEG8Ne6vveBUThjVTHLy-131" value="" style="shape=image;verticalLabelPosition=bottom;labelBackgroundColor=default;verticalAlign=top;aspect=fixed;imageAspect=0;image=https://www.httpcs.com/images/logo_entreprises/logo-uptime-robot.png;" vertex="1" parent="1">
          <mxGeometry x="-163.29" y="-374" width="97.29" height="30" as="geometry" />
        </mxCell>
        <mxCell id="GEG8Ne6vveBUThjVTHLy-132" value="Backup Center" style="image;aspect=fixed;html=1;points=[];align=center;fontSize=12;image=img/lib/azure2/other/Azure_Backup_Center.svg;" vertex="1" parent="1">
          <mxGeometry x="466" y="-396" width="49" height="44.68" as="geometry" />
        </mxCell>
        <mxCell id="GEG8Ne6vveBUThjVTHLy-134" value="" style="image;aspect=fixed;html=1;points=[];align=center;fontSize=12;image=img/lib/azure2/networking/Virtual_WAN_Hub.svg;" vertex="1" parent="1">
          <mxGeometry x="-584" y="-103" width="48.75" height="48" as="geometry" />
        </mxCell>
        <mxCell id="GEG8Ne6vveBUThjVTHLy-135" value="" style="endArrow=classic;html=1;rounded=0;strokeColor=#CC0000;" edge="1" parent="1">
          <mxGeometry width="50" height="50" relative="1" as="geometry">
            <mxPoint x="-607.8" y="389" as="sourcePoint" />
            <mxPoint x="-569.8" y="389" as="targetPoint" />
          </mxGeometry>
        </mxCell>
        <mxCell id="GEG8Ne6vveBUThjVTHLy-136" value="Non HTTP" style="text;html=1;align=center;verticalAlign=middle;resizable=0;points=[];autosize=1;strokeColor=none;fillColor=none;" vertex="1" parent="1">
          <mxGeometry x="-572.8" y="377" width="75" height="26" as="geometry" />
        </mxCell>
        <mxCell id="GEG8Ne6vveBUThjVTHLy-137" value="" style="endArrow=classic;html=1;rounded=0;strokeColor=#0066CC;" edge="1" parent="1">
          <mxGeometry width="50" height="50" relative="1" as="geometry">
            <mxPoint x="-606.8" y="410" as="sourcePoint" />
            <mxPoint x="-568.8" y="410" as="targetPoint" />
          </mxGeometry>
        </mxCell>
        <mxCell id="GEG8Ne6vveBUThjVTHLy-138" value="HTTP / HTTPS" style="text;html=1;align=center;verticalAlign=middle;resizable=0;points=[];autosize=1;strokeColor=none;fillColor=none;" vertex="1" parent="1">
          <mxGeometry x="-572.8" y="397" width="98" height="26" as="geometry" />
        </mxCell>
        <mxCell id="TsJ5qSW49ZMew8vf5sHp-1" value="Azure MariDB&amp;nbsp;&lt;div&gt;Database flexible&amp;nbsp;&lt;/div&gt;" style="image;aspect=fixed;html=1;points=[];align=center;fontSize=12;image=img/lib/azure2/databases/Azure_Database_MariaDB_Server.svg;" vertex="1" parent="1">
          <mxGeometry x="558" y="-104" width="36.75" height="49" as="geometry" />
        </mxCell>
        <mxCell id="TsJ5qSW49ZMew8vf5sHp-2" style="edgeStyle=orthogonalEdgeStyle;rounded=0;orthogonalLoop=1;jettySize=auto;html=1;entryX=0.024;entryY=0.528;entryDx=0;entryDy=0;entryPerimeter=0;curved=1;strokeColor=#CC0000;" edge="1" parent="1" source="GEG8Ne6vveBUThjVTHLy-83" target="TsJ5qSW49ZMew8vf5sHp-1">
          <mxGeometry relative="1" as="geometry" />
        </mxCell>
        <mxCell id="TsJ5qSW49ZMew8vf5sHp-3" value="&lt;b&gt;&lt;font style=&quot;font-size: 14px;&quot;&gt;Caption&lt;/font&gt;&lt;/b&gt;" style="text;html=1;align=center;verticalAlign=middle;resizable=0;points=[];autosize=1;strokeColor=none;fillColor=none;" vertex="1" parent="1">
          <mxGeometry x="-618.97" y="340" width="70" height="29" as="geometry" />
        </mxCell>
        <mxCell id="TsJ5qSW49ZMew8vf5sHp-7" style="edgeStyle=orthogonalEdgeStyle;rounded=0;orthogonalLoop=1;jettySize=auto;html=1;entryX=-0.016;entryY=0.392;entryDx=0;entryDy=0;entryPerimeter=0;curved=1;strokeColor=#0066CC;exitX=0.616;exitY=0.934;exitDx=0;exitDy=0;exitPerimeter=0;" edge="1" parent="1" source="rkB8ppVnu8Dv38RpVlEC-65" target="rkB8ppVnu8Dv38RpVlEC-5">
          <mxGeometry relative="1" as="geometry" />
        </mxCell>
        <mxCell id="TsJ5qSW49ZMew8vf5sHp-9" style="edgeStyle=orthogonalEdgeStyle;rounded=0;orthogonalLoop=1;jettySize=auto;html=1;strokeColor=#0066CC;curved=1;" edge="1" parent="1" source="TsJ5qSW49ZMew8vf5sHp-8" target="rkB8ppVnu8Dv38RpVlEC-15">
          <mxGeometry relative="1" as="geometry" />
        </mxCell>
        <mxCell id="TsJ5qSW49ZMew8vf5sHp-8" value="External User" style="sketch=0;outlineConnect=0;fontColor=#232F3E;gradientColor=none;strokeColor=#232F3E;fillColor=#ffffff;dashed=0;verticalLabelPosition=bottom;verticalAlign=top;align=center;html=1;fontSize=12;fontStyle=0;aspect=fixed;shape=mxgraph.aws4.resourceIcon;resIcon=mxgraph.aws4.user;" vertex="1" parent="1">
          <mxGeometry x="-1161" y="-318" width="60" height="60" as="geometry" />
        </mxCell>
        <mxCell id="TsJ5qSW49ZMew8vf5sHp-10" value="Internal user" style="sketch=0;outlineConnect=0;fontColor=#232F3E;gradientColor=none;strokeColor=#232F3E;fillColor=#ffffff;dashed=0;verticalLabelPosition=bottom;verticalAlign=top;align=center;html=1;fontSize=12;fontStyle=0;aspect=fixed;shape=mxgraph.aws4.resourceIcon;resIcon=mxgraph.aws4.user;" vertex="1" parent="1">
          <mxGeometry x="-1031" y="401" width="44" height="44" as="geometry" />
        </mxCell>
        <mxCell id="TsJ5qSW49ZMew8vf5sHp-11" value="Internal user" style="sketch=0;outlineConnect=0;fontColor=#232F3E;gradientColor=none;strokeColor=#232F3E;fillColor=#ffffff;dashed=0;verticalLabelPosition=bottom;verticalAlign=top;align=center;html=1;fontSize=12;fontStyle=0;aspect=fixed;shape=mxgraph.aws4.resourceIcon;resIcon=mxgraph.aws4.user;" vertex="1" parent="1">
          <mxGeometry x="-1003.5" y="-61.5" width="44" height="44" as="geometry" />
        </mxCell>
        <mxCell id="TsJ5qSW49ZMew8vf5sHp-13" style="edgeStyle=orthogonalEdgeStyle;rounded=0;orthogonalLoop=1;jettySize=auto;html=1;entryX=0.8;entryY=0.8;entryDx=0;entryDy=0;entryPerimeter=0;curved=1;strokeColor=#0066CC;exitX=0.64;exitY=0.386;exitDx=0;exitDy=0;exitPerimeter=0;" edge="1" parent="1" source="TsJ5qSW49ZMew8vf5sHp-10" target="rkB8ppVnu8Dv38RpVlEC-63">
          <mxGeometry relative="1" as="geometry">
            <Array as="points">
              <mxPoint x="-1003" y="412" />
              <mxPoint x="-918" y="412" />
            </Array>
          </mxGeometry>
        </mxCell>
        <mxCell id="TsJ5qSW49ZMew8vf5sHp-15" style="edgeStyle=orthogonalEdgeStyle;rounded=0;orthogonalLoop=1;jettySize=auto;html=1;exitX=0.625;exitY=0.2;exitDx=0;exitDy=0;exitPerimeter=0;entryX=0.376;entryY=-0.022;entryDx=0;entryDy=0;entryPerimeter=0;curved=1;strokeColor=#0066CC;" edge="1" parent="1" source="rkB8ppVnu8Dv38RpVlEC-63" target="rkB8ppVnu8Dv38RpVlEC-65">
          <mxGeometry relative="1" as="geometry">
            <Array as="points">
              <mxPoint x="-946" y="65" />
              <mxPoint x="-706" y="65" />
            </Array>
          </mxGeometry>
        </mxCell>
        <mxCell id="TsJ5qSW49ZMew8vf5sHp-17" value="" style="rounded=0;whiteSpace=wrap;html=1;fillColor=#78BE2D;strokeColor=#78BE2D;" vertex="1" parent="1">
          <mxGeometry x="-607.97" y="427" width="35.17" height="6" as="geometry" />
        </mxCell>
        <mxCell id="TsJ5qSW49ZMew8vf5sHp-18" value="Express route Circuit" style="text;html=1;align=center;verticalAlign=middle;resizable=0;points=[];autosize=1;strokeColor=none;fillColor=none;" vertex="1" parent="1">
          <mxGeometry x="-576.3" y="417" width="129" height="26" as="geometry" />
        </mxCell>
        <mxCell id="TsJ5qSW49ZMew8vf5sHp-19" value="Docker Swarm Cluster" style="text;html=1;align=center;verticalAlign=middle;whiteSpace=wrap;rounded=0;" vertex="1" parent="1">
          <mxGeometry x="-572.8" y="439" width="135" height="30" as="geometry" />
        </mxCell>
        <mxCell id="TsJ5qSW49ZMew8vf5sHp-20" value="" style="ellipse;whiteSpace=wrap;html=1;fillColor=#dae8fc;strokeColor=#6c8ebf;opacity=30;" vertex="1" parent="1">
          <mxGeometry x="-609.4599999999999" y="449" width="38.15" height="10" as="geometry" />
        </mxCell>
        <mxCell id="TsJ5qSW49ZMew8vf5sHp-21" value="&lt;span style=&quot;text-align: start;&quot;&gt;&lt;span style=&quot;line-height: 15.3333px; font-family: Calibri, sans-serif;&quot; lang=&quot;EN-US&quot;&gt;&lt;font style=&quot;font-size: 18px;&quot;&gt;&lt;b&gt;Re-platform via IaaS by replacing CentOS to RedHat&lt;/b&gt;&lt;/font&gt;&lt;/span&gt;&lt;/span&gt;&lt;span style=&quot;font-size: medium; text-align: start;&quot;&gt;&lt;/span&gt;" style="text;html=1;align=center;verticalAlign=middle;whiteSpace=wrap;rounded=0;" vertex="1" parent="1">
          <mxGeometry x="-168" y="418" width="514" height="30" as="geometry" />
        </mxCell>
      </root>
    </mxGraphModel>
  </diagram>
</mxfile>
